<svg width="30" height="32" viewBox="0 0 30 32" fill="none" xmlns="http://www.w3.org/2000/svg">
<path d="M0.549628 1.34772C0.20148 1.70306 0 2.25628 0 2.97272V28.5278C0 29.2443 0.20148 29.7975 0.549628 30.1528L0.635555 30.2308L15.323 15.9164V15.5784L0.635555 1.26395L0.549628 1.34772Z" fill="white"/>
<path d="M21.991 20.6902L17.1006 15.9163V15.5783L21.9969 10.8044L22.1065 10.8665L27.905 14.0833C29.5598 14.9962 29.5598 16.4984 27.905 17.4171L22.1065 20.6281L21.991 20.6902Z" fill="white"/>
<path d="M21.2177 21.517L16.2118 16.6362L1.43848 31.0417C1.98811 31.605 2.8844 31.6729 3.90366 31.1095L21.2177 21.517Z" fill="white"/>
<path d="M21.2177 9.97774L3.90366 0.385192C2.8844 -0.172363 1.98811 -0.104477 1.43848 0.458856L16.2118 14.8585L21.2177 9.97774Z" fill="white"/>
</svg>
