<svg width="25" height="30" viewBox="0 0 25 30" fill="none" xmlns="http://www.w3.org/2000/svg">
<path d="M20.5465 15.6774C20.5121 11.9531 23.6742 10.1412 23.8188 10.0568C22.028 7.51111 19.2523 7.16329 18.2769 7.13555C15.9456 6.89635 13.6843 8.49564 12.4967 8.49564C11.2854 8.49564 9.45671 7.15866 7.48574 7.19795C4.94945 7.23609 2.57671 8.66782 1.27537 10.8911C-1.41026 15.4244 0.592706 22.0861 3.16574 25.7504C4.45285 27.545 5.95685 29.5487 7.92545 29.4782C9.85137 29.4008 10.5708 28.2811 12.8949 28.2811C15.1977 28.2811 15.8733 29.4782 17.881 29.4331C19.948 29.4008 21.2493 27.6305 22.4914 25.8197C23.9788 23.7628 24.5761 21.7372 24.5998 21.6332C24.5512 21.617 20.5856 20.1413 20.5465 15.6774Z" fill="white"/>
<path d="M16.7539 4.72507C17.7897 3.46204 18.4985 1.74373 18.3017 0C16.8025 0.0647111 14.9275 1.01111 13.8478 2.2464C12.8926 3.33493 12.0392 5.11911 12.2597 6.79698C13.9438 6.91947 15.673 5.96844 16.7539 4.72507Z" fill="white"/>
</svg>
