<svg width="60" height="60" viewBox="0 0 60 60" fill="none" xmlns="http://www.w3.org/2000/svg">
<path d="M8.33193 8.33215L3.5708 24.401L6.54651 42.8504L19.0445 47.0164L35.1133 19.6398L24.9959 5.35645H17.8542L8.33193 8.33215Z" fill="white"/>
<path d="M16.8218 59.5132H14.5017C8.13775 58.7135 3.37323 53.4248 3.45692 46.8481C3.49179 44.1712 3.18261 41.5733 2.70952 38.9336L1.36816 31.4468C0.818361 28.3759 0.324357 25.3933 0.105833 22.2793C0.0860731 22.005 0.101184 21.7179 0.0012207 21.5772V17.9809C0.728859 9.97104 6.04318 3.20609 13.8008 0.890669C21.6212 -1.44335 29.982 1.58576 34.6942 8.19263C40.2131 15.9305 39.267 26.4673 32.4939 33.1183C29.9344 35.6313 26.7658 40.7585 27.548 44.3653C29.1486 51.751 24.1679 58.5961 16.8218 59.5132ZM10.4834 21.1239C10.459 20.3288 10.4357 19.7802 10.4485 19.1514C10.5299 15.2458 13.2556 11.9622 16.8148 10.9893C20.7087 9.92571 24.6526 11.6158 26.6251 14.9285C28.6569 18.34 28.1315 22.6408 25.3093 25.5176L27.7468 27.9737C31.1549 24.6017 32.2533 19.4106 30.4807 14.8983C28.2757 9.28525 22.3244 6.18988 16.5021 7.48707C10.7624 8.76567 6.70921 13.9742 6.95563 19.9685C7.06722 22.6733 7.3148 25.2526 7.81346 27.9319L9.54189 37.2226C10.094 40.189 12.936 42.1197 15.807 41.9825C18.6781 41.8453 21.1039 39.6438 21.6467 36.7112C22.0315 34.6294 22.2442 32.6452 21.7583 30.5553C20.5192 25.2329 15.9337 21.4087 10.4811 21.1239H10.4834Z" fill="#116CB2"/>
<path d="M59.3955 31.5529L41.8799 31.5541V28.074H59.3955V31.5529Z" fill="#116CB2"/>
<path d="M58.3204 10.4905L44.407 17.4543L42.8645 14.324L56.7559 7.37891L58.3204 10.4905Z" fill="#116CB2"/>
<path d="M56.7686 52.2515L42.8621 45.3052L44.4034 42.1738L58.2947 49.1224L56.7686 52.2515Z" fill="#116CB2"/>
<path d="M17.1854 37.8832C16.4683 38.5341 15.5465 38.6701 14.6399 38.3562C13.9889 38.1307 13.1148 37.4717 12.9475 36.572L11.3504 27.9775C11.1423 26.8593 11.0005 25.8329 10.8599 24.6497C13.4461 24.9751 15.7522 26.3014 17.0994 28.4982C18.4013 30.6207 18.7895 33.2058 18.3548 35.6235C18.2002 36.4825 17.8305 37.2973 17.1854 37.8832Z" fill="#116CB2"/>
</svg>
