<svg width="54" height="60" viewBox="0 0 54 60" fill="none" xmlns="http://www.w3.org/2000/svg">
<path d="M29.0461 59.5144H5.17424C4.70322 59.2668 4.2181 58.9297 4.04308 58.5636C3.7459 57.9394 3.87041 57.4826 4.07244 56.9037C5.68755 52.2727 6.19264 47.3256 5.52193 42.4599C5.17072 39.9108 4.38489 37.6348 3.1304 35.4181C1.36259 32.2983 0.43464 28.9239 0.171525 25.36C0.0869524 24.2186 0.0681584 23.0934 0.164477 21.9589C0.640199 16.4166 3.26313 11.1475 7.05598 7.10009C11.193 3.01896 16.6456 0.618628 22.3907 0.194357C36.3781 -0.837842 48.2218 10.2955 48.1078 24.093L52.7711 32.3204C54.1196 34.6998 53.0777 37.5965 50.665 38.7635L48.8937 39.6213L48.8796 45.9424C48.8749 48.0719 47.9845 50.0898 46.4974 51.5869C44.2104 53.8885 40.817 54.4859 37.7829 53.4316L32.8342 51.7113C31.2544 53.5235 30.6389 55.7983 30.31 58.0742C30.2019 58.8193 29.6393 59.1924 29.0472 59.5144H29.0461ZM25.3695 30.0142L33.687 21.7578C36.3698 19.0517 36.3886 14.7893 33.8021 12.0763C31.2614 9.41208 26.9999 9.12846 24.0997 11.5846C21.182 9.11916 16.8641 9.40278 14.3163 12.1553C11.7662 14.9102 11.8555 19.2005 14.6111 21.8601L22.9146 30.0874C23.577 30.7442 24.6965 30.6826 25.3695 30.0142Z" fill="#554E00"/>
<path d="M26.0859 14.4988C27.5002 13.083 29.665 12.9981 31.091 14.3128C32.4606 15.574 32.6556 17.8302 31.2507 19.2297L24.102 26.3528L17.039 19.3436C15.6365 17.9511 15.6471 15.7867 16.9838 14.4267C18.3146 13.0714 20.5358 13.0016 21.943 14.3558L22.8968 15.2741C23.5852 15.9367 24.6858 15.8995 25.3483 15.2369L26.0859 14.4988Z" fill="#554E00"/>
</svg>
