<svg width="54" height="60" viewBox="0 0 54 60" fill="none" xmlns="http://www.w3.org/2000/svg">
<circle cx="26.5665" cy="31.8809" r="22.0122" fill="white"/>
<path d="M28.6407 59.5132H25.3675C12.1607 59.5132 1.71174 48.0755 1.08145 34.7434C0.457023 21.5355 9.98515 9.80718 23.261 7.88L23.2645 3.39418L20.4493 3.38363C19.5004 3.38012 18.7951 2.5823 18.8291 1.69545C18.8596 0.874196 19.5226 0.116211 20.4634 0.116211H33.5471C34.5265 0.116211 35.2025 0.929259 35.1791 1.80206C35.1557 2.67485 34.4762 3.37895 33.5589 3.38246L30.7554 3.39183L30.7261 7.86945C43.7911 9.74743 53.3297 21.1957 52.9478 34.3052C52.5671 47.3526 42.4918 58.2421 29.2827 59.4113C29.0672 59.43 28.8293 59.4347 28.6431 59.5109L28.6407 59.5132ZM10.23 35.1921H21.8774C22.4515 36.8721 23.6863 38.1139 25.3686 38.6833L25.3651 51.207C25.3651 52.1606 26.0282 52.9561 26.9502 52.9585C37.7963 52.9854 46.4387 44.1696 46.4083 33.4992C46.3767 22.8745 37.7576 14.122 26.9467 14.1524C26.1137 14.1548 25.3698 14.8811 25.3698 15.7855L25.3663 28.4264C23.6898 29.0005 22.4468 30.2388 21.8751 31.92L10.2933 31.9165C9.31386 31.9165 8.57344 32.576 8.54415 33.5015C8.51604 34.3802 9.18733 35.1921 10.23 35.1921ZM19.2883 26.9562L19.286 19.5251C19.286 18.6254 18.5503 17.8955 17.6634 17.8931L15.1915 17.8885C14.2179 17.8861 13.5009 18.6722 13.5314 19.5802C13.5619 20.4881 14.2531 21.1488 15.1938 21.1606L16.0139 21.1699L16.0197 27.0136C16.0197 27.9684 16.8293 28.6654 17.7032 28.635C18.5772 28.6045 19.2883 27.9391 19.2883 26.955V26.9562ZM20.0487 50.1479C21.0234 50.1468 21.6408 49.274 21.6174 48.475C21.5928 47.6209 20.9109 46.904 19.9983 46.8946L17.2077 46.8665C17.4467 46.4506 17.7993 46.0909 18.2492 45.9819C20.3954 45.4594 21.8189 43.5475 21.5986 41.3555C21.3936 39.3241 19.7054 37.5574 17.5416 37.5469L15.3074 37.5363C14.348 37.5316 13.6567 38.3388 13.6872 39.2257C13.7153 40.0587 14.3925 40.7967 15.3121 40.8002L17.3073 40.8073C17.8684 40.8096 18.289 41.1833 18.3441 41.6988C18.3898 42.1299 18.0981 42.6255 17.6224 42.7485C15.0661 43.4093 13.5419 45.6809 13.6567 48.2981C13.6989 49.2728 14.2238 50.1585 15.3285 50.1561L20.051 50.1479H20.0487Z" fill="#27367A"/>
<path d="M53.8909 13.4462V14.8497C53.6426 16.2579 53.222 17.6543 52.2238 18.8142C49.6394 14.4326 46.0779 10.9086 41.7409 8.31601C44.0652 6.49075 47.0421 6.18732 49.6886 7.45024C51.9696 8.5386 53.5184 10.8219 53.8898 13.4462H53.8909Z" fill="#27367A"/>
<path d="M1.77384 18.8227C0.588244 17.3196 -0.0139267 15.4639 0.144231 13.6082C0.37971 10.848 2.05735 8.52018 4.38754 7.42127C7.02233 6.17827 10.0484 6.5227 12.2626 8.32922C7.87404 10.9347 4.35826 14.4646 1.77267 18.8227H1.77384Z" fill="#27367A"/>
<path d="M28.6384 38.702C30.8795 37.9171 32.3615 35.9184 32.3779 33.6105C32.3943 31.3084 30.9791 29.209 28.6466 28.4393L28.6384 17.5054C36.9153 18.3465 43.1104 25.323 43.1373 33.5016C43.1654 41.7269 36.9551 48.7609 28.6431 49.6091L28.6384 38.702Z" fill="#27367A"/>
<path d="M26.5319 31.5135C27.7328 31.2347 28.7989 32.0102 29.0496 33.081C29.3155 34.2151 28.602 35.3409 27.4774 35.6033C26.3527 35.8658 25.2807 35.2015 24.9796 34.1178C24.6786 33.0342 25.2971 31.7994 26.5319 31.5123V31.5135Z" fill="#27367A"/>
</svg>
