<svg width="45" height="60" viewBox="0 0 45 60" fill="none" xmlns="http://www.w3.org/2000/svg">
<path d="M31.8739 59.5138H12.3109C11.8378 59.2197 11.3984 58.864 11.3159 58.2502L11.3078 54.4051C11.2996 50.3088 13.5035 46.6868 17.0813 44.7608C12.5504 41.5851 11.9273 35.3257 15.5028 31.3596C19.0946 27.3749 25.3703 27.4238 28.8935 31.4793C32.369 35.4791 31.6658 41.6549 27.2022 44.7608C30.8719 46.7229 33.0014 50.4239 32.9851 54.5213L32.9712 57.8899C33.056 58.7013 32.5492 59.2429 31.8739 59.5138Z" fill="white"/>
<path d="M0.00116239 54.641V49.4207C0.470766 45.8534 2.50029 42.7393 5.76195 40.9772C1.44368 37.9259 0.645124 32.0326 3.83006 28.0189C6.98827 24.04 12.8804 23.4449 16.7453 26.8774C10.2464 30.2972 8.36918 38.571 12.7281 44.4341C9.61177 47.3773 8.19134 51.4293 8.51564 55.7302L1.50761 55.7395C0.728816 55.772 0.27781 55.2629 0 54.641H0.00116239Z" fill="#AF31A0"/>
<path d="M0.0012207 10.2104V9.39784C0.306928 8.9387 0.642858 8.39587 1.29612 8.39238L5.10293 8.37843C5.9538 8.37495 6.59311 9.00496 6.58963 9.80119C6.5873 10.5358 6.00611 11.2042 5.19244 11.2088L1.62624 11.2274C0.840463 11.2309 0.349937 10.8532 0.0012207 10.2104Z" fill="#AF31A0"/>
<path d="M42.8456 55.74L35.7725 55.7296C36.0956 51.4288 34.6752 47.3825 31.5623 44.43C35.9143 38.5681 34.0405 30.3012 27.5451 26.8768C31.4042 23.4455 37.3045 24.0394 40.4581 28.0195C43.6349 32.0285 42.8549 37.9102 38.532 40.9731C41.8029 42.7562 43.8999 45.8958 44.2358 49.5771C44.3788 51.1486 44.2416 52.6958 44.2939 54.2906C44.2567 55.0845 43.7174 55.7098 42.8456 55.74Z" fill="#AF31A0"/>
<path d="M22.7305 18.4883C22.3469 18.286 21.9435 18.2918 21.6018 18.472L16.8848 20.956C16.5466 21.1339 16.12 21.0944 15.8247 20.8782C15.5725 20.6933 15.426 20.2737 15.4888 19.9134L16.4094 14.5641C16.4547 14.3002 16.3036 13.8887 16.1107 13.7016L12.2399 9.9308C11.983 9.68089 11.8726 9.27056 11.9714 8.91604C12.04 8.66961 12.3678 8.34182 12.7002 8.29416L18.0658 7.51652C18.4343 7.46305 18.7586 7.21779 18.9202 6.88883L21.303 2.04168C21.4414 1.76039 21.8238 1.54418 22.0946 1.53256C22.4201 1.51977 22.8281 1.72086 22.9862 2.04285L25.3702 6.88883C25.5074 7.16664 25.8131 7.45027 26.1223 7.49444L31.496 8.2744C31.8331 8.32322 32.1853 8.5894 32.2818 8.82769C32.4306 9.19384 32.3364 9.65415 32.0574 9.92615L28.1809 13.7027C27.9449 13.9329 27.838 14.3328 27.8938 14.6571L28.8144 20.0075C28.8667 20.3097 28.6644 20.7317 28.4668 20.877C28.1623 21.099 27.7462 21.1374 27.4044 20.9572L22.7305 18.4894V18.4883Z" fill="white"/>
<path d="M42.9247 11.2042L39.0969 11.2123C38.2867 11.2135 37.7032 10.5381 37.6986 9.8C37.6939 9.06188 38.2705 8.3877 39.0783 8.3877H42.8898C43.6639 8.38653 44.2277 9.02236 44.2754 9.69887C44.3253 10.4242 43.7825 11.203 42.9247 11.2053V11.2042Z" fill="#AF31A0"/>
<path d="M7.30213 1.90225C8.07047 2.28003 8.30411 3.14136 7.96353 3.82135C7.62295 4.50135 6.77557 4.79311 6.0235 4.42579L2.73744 2.81821C1.99119 2.45322 1.7064 1.59073 2.08302 0.870053C2.43871 0.191219 3.27562 -0.0761294 4.02188 0.290022L7.30213 1.90109V1.90225Z" fill="#AF31A0"/>
<path d="M38.1043 4.49021C37.4138 4.82614 36.6211 4.41001 36.3281 3.82881C35.9817 3.14068 36.2258 2.28168 36.9488 1.92599L40.2698 0.292834C40.9858 -0.0593688 41.7867 0.160322 42.168 0.801959C42.5492 1.4436 42.3737 2.41419 41.6251 2.77802L38.1043 4.49137V4.49021Z" fill="#AF31A0"/>
<path d="M4.02422 19.2937C3.24193 19.675 2.41431 19.3797 2.07722 18.7079C1.71223 17.9779 1.99702 17.1317 2.74327 16.7679L6.07467 15.144C6.80813 14.786 7.62645 15.1033 7.96238 15.7682C8.32621 16.4866 8.03213 17.3374 7.27309 17.7082L4.02422 19.2949V19.2937Z" fill="#AF31A0"/>
<path d="M41.5065 16.7455C42.2691 17.1163 42.5585 17.9009 42.247 18.6367C41.9715 19.2876 41.1206 19.7049 40.3814 19.3434L36.9419 17.6649C36.2154 17.3104 35.9922 16.4258 36.3246 15.7726C36.664 15.1065 37.4812 14.7857 38.2158 15.1426L41.5054 16.7443L41.5065 16.7455Z" fill="#AF31A0"/>
</svg>
