<svg width="24" height="24" viewBox="0 0 24 24" fill="none" xmlns="http://www.w3.org/2000/svg">
<path d="M15.6257 24H8.42106L7.08418 23.9264C6.25122 23.8805 5.46794 23.7816 4.66966 23.5448C2.55513 22.9177 0.977316 21.2592 0.423723 19.1245C0.173879 18.1608 0.202004 17.183 0.0960668 16.1864L0.0505981 15.7575L0.0637231 8.31143L0.110598 7.20471C0.146692 6.3558 0.246535 5.55518 0.479035 4.74424C1.07153 2.67753 2.64372 1.09315 4.70715 0.490341C5.53028 0.249873 6.34215 0.142529 7.20465 0.111123L8.45199 0.0651855H15.5484L16.7451 0.111592C17.6142 0.14581 18.4359 0.237217 19.2698 0.472529C21.3295 1.05472 22.9415 2.61331 23.5415 4.67534C23.7754 5.47924 23.9343 6.28127 23.9343 7.14143V16.718C23.9343 17.6424 23.7885 18.5077 23.5331 19.3725C22.9392 21.3834 21.4031 22.9116 19.409 23.5336C18.585 23.7905 17.7764 23.8805 16.9181 23.9363C16.4751 23.9653 16.0359 23.9194 15.6262 23.9995L15.6257 24ZM17.3728 21.7402C20.0432 21.5494 21.5704 19.9364 21.7424 17.3086C21.8085 16.2994 21.8376 15.3319 21.8376 14.3138V9.73221C21.8376 8.71502 21.8081 7.74799 21.7415 6.74158C21.7068 6.21424 21.607 5.72252 21.4499 5.2219C21.0557 3.96331 20.0882 2.99768 18.8278 2.60909C18.3131 2.45018 17.8101 2.35221 17.2715 2.31846C16.2768 2.25612 15.3201 2.22753 14.3137 2.228H9.73215C8.69809 2.22893 7.71606 2.25284 6.6909 2.32925C4.07856 2.52378 2.53403 4.0219 2.32497 6.64033C2.24763 7.61018 2.22044 8.54205 2.22044 9.51752V14.5374C2.2195 15.4875 2.25138 16.3941 2.31419 17.3367C2.34935 17.8627 2.45013 18.3567 2.60856 18.8588C3.01028 20.1314 3.99887 21.0952 5.27715 21.4758C5.85184 21.6469 6.41575 21.7491 7.0195 21.7673L9.4059 21.8395H14.5462C15.502 21.8395 16.4029 21.8095 17.3718 21.7402H17.3728Z" fill="white"/>
<path d="M11.2767 5.91951C14.6855 5.50279 17.738 7.95248 18.1312 11.3073C18.5273 14.6851 16.1011 17.7578 12.7064 18.1403C9.37314 18.5157 6.33142 16.1307 5.91377 12.7834C5.49705 9.44544 7.86704 6.3367 11.2767 5.91951ZM11.5074 8.07013C9.27423 8.36123 7.76345 10.4111 8.06861 12.5833C8.37236 14.7456 10.3744 16.2695 12.5442 15.9831C14.7178 15.6962 16.2647 13.6923 15.9778 11.5084C15.6952 9.35826 13.7264 7.78091 11.5074 8.0706V8.07013Z" fill="white"/>
<path d="M18.0576 4.24225C18.8587 4.03553 19.6181 4.52303 19.8089 5.28053C19.9996 6.03803 19.5398 6.8335 18.7514 7.02522C18.0173 7.20334 17.2425 6.76928 17.0339 6.01131C16.8295 5.26881 17.2453 4.45178 18.0576 4.24225Z" fill="white"/>
</svg>
