<svg width="24" height="24" viewBox="0 0 24 24" fill="none" xmlns="http://www.w3.org/2000/svg">
<path d="M15.6258 24H8.42109L7.08421 23.9264C6.25125 23.8805 5.46797 23.7816 4.66969 23.5448C2.55516 22.9177 0.977346 21.2592 0.423753 19.1245C0.17391 18.1608 0.202035 17.183 0.0960974 16.1864L0.0506287 15.7575L0.0637536 8.31143L0.110629 7.20471C0.146722 6.3558 0.246566 5.55518 0.479066 4.74424C1.07157 2.67753 2.64375 1.09315 4.70719 0.490341C5.53031 0.249873 6.34218 0.142529 7.20468 0.111123L8.45202 0.0651855H15.5484L16.7451 0.111592C17.6142 0.14581 18.4359 0.237217 19.2698 0.472529C21.3295 1.05472 22.9415 2.61331 23.5415 4.67534C23.7754 5.47924 23.9344 6.28127 23.9344 7.14143V16.718C23.9344 17.6424 23.7886 18.5077 23.5331 19.3725C22.9392 21.3834 21.4031 22.9116 19.409 23.5336C18.585 23.7905 17.7764 23.8805 16.9181 23.9363C16.4751 23.9653 16.0359 23.9194 15.6262 23.9995L15.6258 24ZM17.3728 21.7402C20.0433 21.5494 21.5704 19.9364 21.7425 17.3086C21.8086 16.2994 21.8376 15.3319 21.8376 14.3138V9.73221C21.8376 8.71502 21.8081 7.74799 21.7415 6.74158C21.7069 6.21424 21.607 5.72252 21.45 5.2219C21.0558 3.96331 20.0883 2.99768 18.8278 2.60909C18.3131 2.45018 17.8101 2.35221 17.2715 2.31846C16.2769 2.25612 15.3201 2.22753 14.3137 2.228H9.73218C8.69812 2.22893 7.71609 2.25284 6.69093 2.32925C4.07859 2.52378 2.53406 4.0219 2.325 6.64033C2.24766 7.61018 2.22047 8.54205 2.22047 9.51752V14.5374C2.21953 15.4875 2.25141 16.3941 2.31422 17.3367C2.34938 17.8627 2.45016 18.3567 2.60859 18.8588C3.01031 20.1314 3.99891 21.0952 5.27718 21.4758C5.85187 21.6469 6.41578 21.7491 7.01953 21.7673L9.40593 21.8395H14.5462C15.502 21.8395 16.403 21.8095 17.3719 21.7402H17.3728Z" fill="#814B05"/>
<path d="M11.2767 5.91951C14.6854 5.50279 17.7379 7.95248 18.1312 11.3073C18.5273 14.6851 16.1011 17.7578 12.7064 18.1403C9.37311 18.5157 6.33139 16.1307 5.91373 12.7834C5.49702 9.44544 7.86701 6.3367 11.2767 5.91951ZM11.5073 8.07013C9.2742 8.36123 7.76342 10.4111 8.06858 12.5833C8.37233 14.7456 10.3744 16.2695 12.5442 15.9831C14.7178 15.6962 16.2647 13.6923 15.9778 11.5084C15.6951 9.35826 13.7264 7.78091 11.5073 8.0706V8.07013Z" fill="#814B05"/>
<path d="M18.0576 4.24225C18.8587 4.03553 19.6181 4.52303 19.8089 5.28053C19.9997 6.03803 19.5398 6.8335 18.7514 7.02522C18.0173 7.20334 17.2425 6.76928 17.0339 6.01131C16.8295 5.26881 17.2453 4.45178 18.0576 4.24225Z" fill="#814B05"/>
</svg>
