<svg width="58" height="60" viewBox="0 0 58 60" fill="none" xmlns="http://www.w3.org/2000/svg">
<path d="M2.3255 41.8589V24.0304L9.68948 17.8291L43.0212 20.5422L45.3466 31.3943L41.4709 48.4478L29.8435 57.7496L21.3168 58.5248L12.0149 55.4242L2.3255 41.8589Z" fill="white"/>
<path d="M40.3081 9.68999L36.8199 10.8527L40.3081 16.6664L44.1839 18.2167L47.2845 15.5037L51.9355 12.0155L46.5094 8.91483L44.9591 5.81421H42.6336L40.3081 9.68999Z" fill="white"/>
<path d="M24.8251 59.5135H21.8087C10.2208 59.5135 0.82644 49.5367 0.215025 37.7188C-0.0232644 33.1122 0.0360173 28.3801 0.218512 23.7562C0.563741 15.0185 6.21991 7.41535 13.8149 4.01421C22.3689 0.184144 32.0714 1.85565 38.8609 7.95237C39.0364 8.10929 39.2084 8.21042 39.327 8.18717C39.4258 8.16741 39.6466 7.98608 39.6815 7.88844L42.004 1.30236C42.2794 0.521236 43.0594 0.103939 43.7882 0.121375C44.4694 0.137648 45.204 0.567731 45.4609 1.29538L47.8496 8.06163L54.5403 10.4248C55.34 10.7072 55.8108 11.45 55.7922 12.2323C55.7736 13.0146 55.2459 13.6922 54.4543 13.97L47.8252 16.3006C45.2679 23.4598 46.5489 19.7239 46.5361 25.0639L46.5094 36.5006C46.4815 48.3802 37.3056 58.3093 25.4865 59.4054C25.2331 59.4286 25.0157 59.4368 24.8251 59.5123V59.5135ZM43.7336 16.6877L44.438 14.8511C44.7414 13.9119 45.49 13.2145 46.4013 12.8774L48.2704 12.1846L46.4826 11.5186C45.5225 11.1606 44.7832 10.4759 44.4275 9.51229L43.7406 7.65131C42.9873 9.37513 42.9769 10.7723 41.0636 11.4895L39.2131 12.1823L41.1484 12.9123C41.9644 13.2191 42.6537 13.8654 42.9676 14.6884L43.7336 16.69V16.6877ZM42.8037 26.1019L26.1141 26.0844C23.3744 26.0809 20.8032 25.6927 18.2262 24.9255C16.2408 24.2769 14.488 23.347 12.9989 21.9277C10.5754 24.571 7.32999 25.888 3.82656 26.0728L3.83818 36.4913C3.84981 47.334 12.8362 55.888 23.4872 55.7985C34.1114 55.709 42.8083 47.0585 42.806 36.2588L42.8037 26.1007V26.1019Z" fill="#474A10"/>
<path d="M57.6544 20.5511V21.4461C56.7744 23.5373 54.896 22.5992 54.8751 22.9177C54.8274 23.6175 55.0611 24.6776 54.0289 25.332C53.371 25.7493 52.5573 25.7353 51.918 25.2785C50.7254 24.4242 51.3519 22.8735 51.0962 22.8596C50.3615 22.8212 49.334 23.0247 48.6854 22.025C48.2553 21.3613 48.2797 20.5395 48.7319 19.9013C49.5723 18.718 51.1369 19.3318 51.1531 19.0807C51.1985 18.4088 50.9683 17.322 51.9808 16.6711C52.6445 16.2433 53.4779 16.2584 54.1056 16.7199C55.3168 17.6103 54.6659 19.1028 54.9297 19.1353C55.8736 19.2515 56.807 18.7738 57.652 20.5511H57.6544Z" fill="#474A10"/>
<path d="M29.5084 44.1822C30.3988 43.515 31.5286 43.6208 32.1853 44.4368C32.8421 45.2528 32.6921 46.4698 31.8076 47.1173C26.1107 51.2856 20.5138 51.3239 14.8274 47.1173C13.9696 46.4826 13.7906 45.3225 14.3997 44.4961C15.0088 43.6696 16.213 43.4976 17.0906 44.1636C21.2264 47.3079 25.2959 47.3346 29.5084 44.1811V44.1822Z" fill="#474A10"/>
<path d="M20.7021 34.1063C18.0123 36.1707 15.0366 37.0762 11.8435 35.7057C10.8939 35.2977 10.0709 34.7444 9.25489 34.1284C8.35288 33.4472 8.22153 32.1907 8.92943 31.3828C9.67917 30.5273 10.8567 30.5854 11.725 31.3212C13.8486 33.1194 16.1467 33.0229 18.2634 31.2701C19.1143 30.5657 20.2755 30.5645 20.9985 31.3805C21.7215 32.1965 21.6122 33.4065 20.7009 34.1063H20.7021Z" fill="#474A10"/>
<path d="M37.4067 34.1059C34.717 36.1703 31.7413 37.0758 28.5482 35.7053C27.5985 35.2973 26.7755 34.744 25.9595 34.128C25.0575 33.4456 24.9262 32.1903 25.6341 31.3824C26.3838 30.5269 27.5613 30.585 28.4296 31.3208C30.5533 33.119 32.8513 33.0237 34.968 31.2696C35.8189 30.5652 36.9801 30.5652 37.702 31.3801C38.4238 32.1949 38.3157 33.4061 37.4044 34.1059H37.4067Z" fill="#474A10"/>
</svg>
