<svg width="54" height="60" viewBox="0 0 54 60" fill="none" xmlns="http://www.w3.org/2000/svg">
<path d="M53.0062 27.1054C53.0062 41.6509 42.4466 55.2742 28.0201 59.2601C27.0385 59.5278 25.9677 59.5278 24.9861 59.2601C10.5596 55.2742 1.52588e-05 41.6509 1.52588e-05 27.1054V14.0472C1.52588e-05 11.6081 1.84423 8.8418 4.13461 7.91969L20.7028 1.13776C24.4209 -0.379253 28.615 -0.379253 32.3332 1.13776L48.9013 7.91969C51.162 8.8418 53.0359 11.6081 53.0359 14.0472L53.0062 27.1054Z" fill="#624822"/>
<path d="M26.503 31.2099C28.0808 31.2099 29.5939 30.5831 30.7096 29.4675C31.8253 28.3518 32.452 26.8386 32.452 25.2608C32.452 23.683 31.8253 22.1699 30.7096 21.0542C29.5939 19.9385 28.0808 19.3118 26.503 19.3118C24.9252 19.3118 23.412 19.9385 22.2964 21.0542C21.1807 22.1699 20.5539 23.683 20.5539 25.2608C20.5539 26.8386 21.1807 28.3518 22.2964 29.4675C23.412 30.5831 24.9252 31.2099 26.503 31.2099ZM26.503 31.2099V40.1335" stroke="white" stroke-width="2.59107" stroke-miterlimit="10" stroke-linecap="round" stroke-linejoin="round"/>
</svg>
