<svg width="52" height="59" viewBox="0 0 52 59" fill="none" xmlns="http://www.w3.org/2000/svg">
<path d="M50.3187 58.8768H49.7023C49.1359 58.5522 48.969 58.1237 48.969 57.4154L48.9663 36.7822C48.9663 35.4154 48.3789 34.1393 47.3472 33.2745L40.1532 27.237C39.2779 26.5182 38.2515 26.1094 37.1016 26.1108L32.6622 26.1173L32.6648 37.6325C32.6648 39.5631 31.3375 41.2466 29.3596 41.4384C28.3016 41.541 27.1858 41.1677 26.3119 40.5698L21.8698 37.5247C20.8066 36.7966 19.407 37.0831 18.6697 38.0386C17.897 39.04 17.9942 40.5671 19.0929 41.3793L34.7597 52.9457C36.0161 53.8722 35.8202 56.7412 35.6954 58.1605C35.673 58.4089 35.1618 58.7361 34.9818 58.8768H34.4889C33.9357 58.6271 33.6373 58.2289 33.6452 57.5704L33.6702 55.4427C33.6741 55.1326 33.5322 54.6345 33.2799 54.4492L29.8852 51.96C28.9508 52.4594 28.0651 52.7696 26.9861 52.7696L5.91134 52.7762C2.94121 52.7762 0.461289 50.6958 0.119594 47.7283C0.0959377 47.5272 0.0538828 47.2906 0 47.2065V5.63792C0 3.00029 2.44575 0.220727 5.14121 0.218099L27.4973 0.204957C30.4793 0.203642 32.6595 3.09754 32.6595 5.88236L32.6635 24.0067L37.1003 24.0146C38.7536 24.0172 40.2518 24.5836 41.5042 25.635L48.7114 31.6843C50.1399 32.8842 51.077 34.6873 51.0809 36.6376L51.123 57.5468C51.1243 58.1921 50.7615 58.585 50.3173 58.8754L50.3187 58.8768ZM30.5647 37.6745V5.91916C30.5647 3.82036 28.9351 2.2249 26.8783 2.23016L24.4418 2.23673L23.5021 5.93625C23.3667 6.47113 23.0224 6.90877 22.4047 6.90877H10.2548C9.78433 6.90745 9.37561 6.51187 9.26916 6.0979L8.27561 2.2249L5.75232 2.23805C3.79808 2.24856 2.15794 3.8335 2.15794 5.84162V47.0252C2.15794 49.0464 3.75471 50.6695 5.78123 50.6708L26.9874 50.6761C27.2897 50.6761 27.588 50.5841 27.8561 50.4605L18.0323 43.2271C15.9414 41.6881 15.3934 38.9296 16.8863 36.8584C18.3898 34.7714 21.2259 34.4192 23.3234 35.9477C24.8137 37.0345 26.2751 38.0281 27.8219 39.0216C28.3673 39.3712 29.0678 39.4803 29.6461 39.2003C30.1257 38.969 30.566 38.4854 30.566 37.6745H30.5647ZM21.6241 4.81128L22.2523 2.23148H10.4506L11.1038 4.80865L21.6241 4.81128Z" fill="#4B164C"/>
<path d="M24.0396 31.1887L8.80256 31.2045C6.70507 31.2071 5.65633 29.4171 5.65238 27.5457C5.64844 25.556 6.79181 23.8685 8.93266 23.8685L23.7044 23.8619C25.8703 23.8619 27.0872 25.4784 27.0662 27.5601C27.0491 29.2883 26.1292 31.1874 24.0396 31.1887ZM24.8964 28.145L24.9083 27.0003C24.9135 26.4431 24.4404 25.9647 23.8503 25.9647H8.92347C8.3071 25.9634 7.81821 26.3984 7.8169 27.0016L7.81427 28.0674C7.81427 28.6877 8.2979 29.1201 8.92215 29.1201H23.849C24.3813 29.1188 24.8899 28.7232 24.8964 28.1463V28.145Z" fill="#4B164C"/>
<path d="M21.8489 18.1302C22.4166 18.4561 22.69 19.037 22.4048 19.5956C22.0867 20.2211 21.3941 20.3039 20.7935 19.957L18.5068 18.6362C16.7865 20.4538 14.0963 20.6719 12.1539 19.242C10.1865 17.7951 9.61352 15.072 10.8791 12.943C12.1447 10.814 14.6719 10.0176 16.9284 11.0124C19.11 11.9744 20.2876 14.4386 19.5674 16.8186L21.8489 18.1289V18.1302ZM12.8636 16.9724C13.6153 17.9712 14.8507 18.2787 15.9454 17.8779C17.0401 17.4771 17.7183 16.4835 17.6618 15.2955C17.6092 14.2086 16.8864 13.1822 15.7378 12.8418C14.5891 12.5014 13.4537 12.9417 12.8176 13.8143C12.1486 14.7317 12.1316 15.9986 12.8649 16.9724H12.8636Z" fill="#4B164C"/>
</svg>
