<svg width="55" height="49" viewBox="0 0 55 49" fill="none" xmlns="http://www.w3.org/2000/svg">
<path d="M36.8818 48.3378H34.4155C34.2834 48.2389 34.0309 48.2658 33.7549 48.2422C20.8475 47.1422 9.26363 38.3554 3.56082 26.9069C1.63053 23.0323 0.43282 18.8881 0.0976769 14.5936C0.0783417 14.3476 0.0729709 14.1456 0.0020752 14.0404V11.5751C0.515532 9.27102 2.34593 7.50723 4.8262 7.50615L11.2637 7.50293C11.9383 7.50293 12.5603 7.93797 12.7751 8.57818L15.9944 18.1974C16.1598 18.6926 16.0793 19.2254 15.7989 19.6465L13.0866 23.7155C15.3048 28.2002 20.2449 33.0619 24.7404 35.2575L28.8083 32.5463C29.2702 32.238 29.803 32.194 30.339 32.3733L39.8809 35.5669C40.5265 35.7828 40.9518 36.4037 40.9529 37.0782L40.9637 43.4041C40.968 45.9295 39.2557 47.8093 36.8839 48.3367L36.8818 48.3378ZM25.7544 38.4467C25.213 38.7658 24.6448 38.7389 24.1055 38.5058C18.5671 36.1276 12.2144 29.8898 9.83831 24.346C9.56869 23.7563 9.58695 23.1301 9.95969 22.6037L12.6978 18.5004L10.1015 10.7169L4.82513 10.7212C3.86804 10.7212 3.18056 11.4806 3.21279 12.4441C3.26757 16.7065 4.25044 20.8474 6.06903 24.7274C9.75238 32.5839 16.2286 38.9462 24.1506 42.4889C27.9189 44.1742 31.9062 45.0733 36.0128 45.126C36.972 45.1603 37.7336 44.4707 37.7347 43.5158L37.739 38.2394L29.9544 35.6442L25.7533 38.4467H25.7544Z" fill="#4B164C"/>
<path d="M37.7712 22.614L31.7042 28.6637C31.237 29.1299 30.4904 29.1224 29.963 28.8764C29.4356 28.6304 29.0596 28.0977 29.0585 27.4403L29.0521 22.5066C23.3332 21.63 19.2191 16.7028 19.4146 10.9667C19.6026 5.46582 23.982 0.455863 29.7621 0.215248C34.6357 0.0133023 39.5565 0.00148636 44.4236 0.215248C50.7419 0.491311 55.4167 6.25857 54.8431 12.3739C54.306 18.0981 49.5721 22.585 43.8446 22.6L37.7701 22.6151L37.7712 22.614ZM37.1385 19.4011L43.8467 19.3753C48.1886 19.3582 51.6678 15.7081 51.6678 11.3555C51.6678 7.05346 48.1929 3.36473 43.8414 3.35829L30.5645 3.33788C26.0981 3.33036 22.5931 7.07494 22.6221 11.4103C22.6522 15.7983 26.212 19.3829 30.6698 19.4043C31.5646 19.4086 32.2531 20.1251 32.2628 20.9963L32.2897 23.5303L35.9558 19.8781C36.2362 19.5988 36.6702 19.4033 37.1385 19.4011Z" fill="#4B164C"/>
<path d="M30.237 9.82037C31.1414 9.56364 31.9771 10.1276 32.207 10.9278C32.4519 11.7807 31.9406 12.6616 31.0952 12.9033C30.2499 13.1449 29.4185 12.6745 29.1435 11.8656C28.8653 11.046 29.2971 10.0868 30.237 9.82037Z" fill="#4B164C"/>
<path d="M36.6691 9.82037C37.5736 9.56364 38.4093 10.1276 38.6391 10.9278C38.8841 11.7797 38.3727 12.6616 37.5274 12.9033C36.682 13.1449 35.8506 12.6745 35.5756 11.8656C35.2974 11.046 35.7292 10.0868 36.6691 9.82037Z" fill="#4B164C"/>
<path d="M43.1012 9.82037C44.0057 9.56364 44.8414 10.1276 45.0713 10.9278C45.3162 11.7797 44.8049 12.6616 43.9595 12.9033C43.1141 13.1449 42.2827 12.6745 42.0077 11.8656C41.7327 11.0567 42.1613 10.0868 43.1012 9.82037Z" fill="#4B164C"/>
</svg>
