<svg width="58" height="49" viewBox="0 0 58 49" fill="none" xmlns="http://www.w3.org/2000/svg">
<path d="M57.0243 34.6055V35.8188C56.781 36.687 56.3662 37.3638 55.696 38.0329L47.4212 46.2867C45.0743 48.6281 41.2919 48.5949 38.9495 46.2547L23.7823 31.0985C21.3492 28.6665 20.6679 25.0577 22.1344 21.9179C23.4859 19.0247 26.5428 17.1092 29.874 17.3071C30.3838 17.337 30.6802 17.7816 30.6371 18.2129C30.5962 18.6166 30.2433 18.9727 29.7711 18.9495C27.0792 18.8168 24.6538 20.3662 23.6042 22.6965C22.4817 25.1882 23.0291 28.004 24.9524 29.9262L40.124 45.089C41.8549 46.8187 44.591 46.7866 46.3064 45.0713L52.6358 38.7418C51.8594 38.4753 51.3164 38.1756 50.7723 37.6303L33.9671 20.8285C33.0945 19.9559 31.9908 19.6761 32.5283 18.7604C33.131 17.7351 34.5256 19.0446 35.135 19.654L47.3858 31.8992C51.51 27.461 54.3777 23.2893 54.2727 17.0572C54.2185 13.8488 53.3945 10.7675 51.6648 8.08779C47.3316 1.37458 38.6597 0.368156 32.4818 5.0862C31.1668 6.09042 30.1704 7.29592 29.3674 8.7193C29.1197 9.15837 28.6463 9.41385 28.1763 9.39836C27.7505 9.38509 27.3004 9.12851 27.0725 8.71598C24.8639 4.74004 20.5606 2.42636 16.0837 2.18083C14.1693 2.07577 12.3776 2.42746 10.6291 3.12754C10.1524 3.31887 9.65581 3.07335 9.51203 2.61437C9.39812 2.2494 9.56512 1.77716 10.002 1.59909C12.1365 0.729806 14.3816 0.34493 16.6897 0.557276C21.3127 0.983072 25.6824 3.33214 28.2239 7.37555C30.7045 3.37528 35.1472 0.964271 39.737 0.560594C45.05 0.0938764 50.0855 2.63207 52.9964 7.09685C57.1847 13.5203 56.8916 22.5781 52.0994 28.7848L55.706 32.387C56.3662 33.0461 56.7832 33.7429 57.0243 34.6044V34.6055ZM52.1569 36.6482C52.9621 37.449 54.2317 37.2178 54.8765 36.489C55.5213 35.7602 55.5489 34.5878 54.8024 33.8402L51.1129 30.1507L48.5714 33.0826L52.1558 36.6482H52.1569Z" fill="#4B164C" stroke="#4B164C"/>
<path d="M28.767 48.3968H27.6632C26.6159 48.2011 25.6592 47.8627 24.7479 47.2146C17.746 42.2366 8.40725 34.9516 3.65381 27.8093C1.82233 25.0577 0.791569 21.9919 0.550469 18.6895C0.139049 13.0447 2.23707 6.9519 6.8412 3.42387C7.22939 3.12637 7.75583 3.22922 8.00578 3.56875C8.25573 3.90828 8.23914 4.41371 7.88634 4.69241C5.96638 6.20869 4.50098 8.10653 3.54542 10.4025C1.62878 15.0077 1.69625 20.26 3.83408 24.7756C5.79053 28.9086 10.3161 33.359 13.7192 36.4159C17.5038 39.8168 21.4897 42.8416 25.615 45.8078C27.0925 46.8706 28.9638 47.1051 30.4956 46.0168L33.3092 44.0183C33.7206 43.7263 34.2647 43.8635 34.5003 44.2661C34.7027 44.6133 34.623 45.1121 34.247 45.382L31.4876 47.3594C30.6571 47.9545 29.7148 48.1801 28.7681 48.3968H28.767Z" fill="#4B164C" stroke="#4B164C"/>
<path d="M43.798 42.4053C42.7949 43.4062 41.2278 43.4106 40.249 42.4329L36.2222 38.4094C35.2423 37.4307 35.2412 35.8558 36.22 34.8781L38.976 32.1253C39.9504 31.1521 41.5242 31.1631 42.4963 32.1342L46.4734 36.1024C47.503 37.1298 47.5063 38.7069 46.4767 39.7333L43.7991 42.4042L43.798 42.4053ZM42.6932 41.181L45.3044 38.5609C45.6804 38.1838 45.6738 37.6474 45.2988 37.2725L41.3262 33.3054C41.0121 32.9924 40.4669 32.9758 40.1506 33.291L37.3857 36.0537C37.0693 36.3689 37.0716 36.9186 37.3912 37.2382L41.3594 41.2097C41.742 41.5935 42.2851 41.5891 42.6932 41.1799V41.181Z" fill="#4B164C" stroke="#4B164C"/>
<path d="M38.7295 29.7337C38.421 30.3165 37.7629 30.2833 37.3791 29.9161C36.9954 29.549 36.918 28.9374 37.4256 28.5735C37.7342 28.3523 38.1765 28.4176 38.4387 28.6277C38.7461 28.8732 38.9496 29.3156 38.7284 29.7337H38.7295Z" fill="#4B164C" stroke="#4B164C"/>
<path d="M33.9395 33.2326C34.341 33.5943 34.3587 34.1218 34.0722 34.4525C33.7316 34.8451 33.162 34.8197 32.7937 34.4415C32.4586 34.0975 32.4122 33.5876 32.7384 33.2404C33.0326 32.9274 33.5447 32.8765 33.9406 33.2326H33.9395Z" fill="#4B164C" stroke="#4B164C"/>
<path d="M34.5754 28.0148C34.2215 28.5036 33.642 28.4262 33.308 28.1199C32.922 27.7671 32.8269 27.2141 33.2449 26.8259C33.5723 26.5218 34.0501 26.566 34.383 26.8447C34.6783 27.0924 34.884 27.5901 34.5765 28.0148H34.5754Z" fill="#4B164C" stroke="#4B164C"/>
<path d="M32.1567 29.1727C32.5483 29.5532 32.5328 30.1183 32.1733 30.4391C31.8139 30.7598 31.293 30.6968 30.949 30.3174C30.6316 29.9679 30.6161 29.4901 30.8982 29.1694C31.2222 28.8022 31.7619 28.7879 32.1567 29.1727Z" fill="#4B164C" stroke="#4B164C"/>
<path d="M36.3859 32.1226C36.032 32.5981 35.4635 32.5108 35.145 32.2321C34.7446 31.8826 34.6517 31.3196 35.0432 30.9414C35.3784 30.6174 35.8583 30.6472 36.2078 30.9503C36.4932 31.1969 36.7099 31.6857 36.3859 32.1226Z" fill="#4B164C" stroke="#4B164C"/>
<path d="M52.1569 36.6476L48.5725 33.0819L51.114 30.15L54.8035 33.8395C55.5512 34.5872 55.5423 35.7374 54.8776 36.4883C54.2129 37.2393 52.9632 37.4483 52.1581 36.6476H52.1569Z" stroke="#4B164C"/>
<path d="M42.6933 41.1812C42.2852 41.5904 41.7432 41.5948 41.3595 41.2111L37.3913 37.2395C37.0716 36.9199 37.0694 36.3702 37.3857 36.055L40.1507 33.2923C40.467 32.976 41.0122 32.9926 41.3263 33.3067L45.2989 37.2738C45.6738 37.6476 45.6805 38.1851 45.3045 38.5623L42.6933 41.1823V41.1812Z" stroke="#4B164C"/>
</svg>
