<svg width="45" height="56" viewBox="0 0 45 56" fill="none" xmlns="http://www.w3.org/2000/svg">
<path d="M44.0171 14.6724H14.6726C14.6726 6.57072 21.241 0.0012518 29.343 0H29.3468C33.3965 0 37.0669 1.64237 39.7196 4.29745C42.3747 6.95252 44.0171 10.6203 44.0171 14.6724Z" fill="url(#paint0_linear_0_1)"/>
<path d="M42.8645 8.95915C42.1209 7.20286 41.0481 5.62309 39.7199 4.29492C41.7654 9.2358 38.135 14.6711 32.7859 14.6711H14.6716C10.6194 14.6711 6.95151 16.311 4.29884 18.9686C1.64117 21.6224 0 25.2902 0 29.341C0 37.444 6.56719 44.0134 14.6729 44.0134H18.4234V55.9995L31.4814 40.4821V44.0147H44.0187V14.6699C44.0162 12.6432 43.6056 10.7129 42.8645 8.95915ZM17.7837 31.066C16.8311 32.0186 15.2863 32.0186 14.3336 31.066C13.3835 30.1134 13.3835 28.5687 14.3336 27.6185C15.2863 26.6659 16.8311 26.6659 17.7837 27.6185C18.7376 28.5687 18.7376 30.1134 17.7837 31.066ZM28.0314 31.066C27.0775 32.0186 25.5339 32.0186 24.58 31.066C23.6274 30.1134 23.6274 28.5687 24.58 27.6185C25.5339 26.6659 27.0775 26.6659 28.0314 27.6185C28.9828 28.5687 28.9828 30.1134 28.0314 31.066ZM38.2765 31.066C37.3263 32.0186 35.779 32.0186 34.8289 31.066C33.8762 30.1134 33.8762 28.5687 34.8289 27.6185C35.779 26.6659 37.3263 26.6659 38.2765 27.6185C39.2291 28.5687 39.2291 30.1134 38.2765 31.066Z" fill="url(#paint1_linear_0_1)"/>
<defs>
<linearGradient id="paint0_linear_0_1" x1="14.6722" y1="7.33602" x2="44.0173" y2="7.33602" gradientUnits="userSpaceOnUse">
<stop stop-color="#FFB1CD"/>
<stop offset="1" stop-color="#FA87B2"/>
</linearGradient>
<linearGradient id="paint1_linear_0_1" x1="22.0075" y1="46.139" x2="22.0075" y2="15.5215" gradientUnits="userSpaceOnUse">
<stop offset="0.0419" stop-color="#FFE8F1"/>
<stop offset="1" stop-color="white"/>
</linearGradient>
</defs>
</svg>
