<svg width="85" height="85" viewBox="0 0 85 85" fill="none" xmlns="http://www.w3.org/2000/svg">
<circle opacity="0.2" cx="42.5" cy="42.5" r="42.5" fill="#F9629A"/>
<path d="M20.1594 68.4H19.3024C19.1397 68.2526 18.7686 68.0103 18.7402 67.7221L17.0873 50.983C17.0426 50.5321 17.3712 50.0791 17.8013 50.0354L24.7249 49.3465C25.3002 49.2898 25.6605 49.6729 25.726 50.2046C25.7664 50.5332 25.8111 50.8214 25.8679 51.1478L29.9279 49.066C31.2336 48.3967 32.6779 48.2537 34.0873 48.709L36.8941 49.614C37.5044 49.8105 38.131 49.8607 38.7926 49.7777L47.7369 48.5037C49.7795 48.2133 51.6539 49.2854 52.5251 51.1697L58.6747 45.6948C59.9476 44.5616 61.5469 43.9109 63.2598 44.2679L65.4935 44.733C66.1124 44.8618 66.5852 45.3771 66.7216 45.864C66.9083 46.5299 66.7675 47.1587 66.2544 47.6315L49.0928 63.4393C47.476 64.9284 45.4192 65.5332 43.2424 65.2625L32.5917 63.936C31.3592 63.7821 30.2369 64.0758 29.1976 64.6686L27.2893 65.757L27.3592 66.7788C27.3876 67.1882 27.1048 67.65 26.6507 67.6991L20.1594 68.3978V68.4ZM36.5721 51.3389L33.5939 50.3825C32.6867 50.0834 31.7118 50.1107 30.8461 50.555L26.0066 53.0408L27.0764 63.8422L28.4771 63.09C29.8297 62.3029 31.3308 62.0299 32.9017 62.2242L43.7074 63.555C45.2205 63.7417 46.7347 63.2439 47.8603 62.2057L64.9716 46.4382C63.1048 45.9273 61.5066 45.5157 60.0186 46.8389L53.1114 52.9743C53.1616 54.1751 52.3996 55.1511 51.1987 55.3378L41.7118 56.8116C41.1627 56.8967 40.738 56.4895 40.7052 56.0376C40.6692 55.5474 40.9662 55.162 41.4891 55.0812L50.988 53.6085C51.2369 53.5703 51.4432 53.1991 51.3668 53.0103L50.9203 51.9055C50.4673 50.7854 49.2882 50.0496 48.0393 50.2264L39.0076 51.5081C38.1823 51.6249 37.3461 51.5889 36.5721 51.34V51.3389ZM25.536 66.0114L24.0742 51.1762L21.9028 51.3967L23.4301 66.2701C24.2555 66.2035 24.8777 66.1456 25.536 66.0125V66.0114ZM20.3755 66.5507L21.6921 66.4273L20.1648 51.5583L18.9127 51.7101L20.3745 66.5507H20.3755Z" fill="#F9629A"/>
<path d="M45.4618 43.5492L33.429 31.5142C29.9203 28.0044 30.0087 22.3407 33.4694 18.9138C36.9301 15.487 42.5819 15.44 46.0928 19.0033C49.536 15.2763 55.2194 15.1409 58.8188 18.5754C62.3984 21.9913 62.5196 27.7326 58.9694 31.3057L46.7958 43.4902C46.4279 43.8592 45.8963 43.9837 45.4618 43.5492ZM43.4639 29.5394L45.7609 25.535L44.6856 24.1354C44.5557 23.9662 44.4465 23.571 44.4956 23.3538L45.1288 20.5525C42.512 17.369 37.738 17.0896 34.7576 19.8581C31.7423 22.6583 31.703 27.345 34.6506 30.2872L46.1015 41.7162L57.7325 30.0754C60.6102 27.1944 60.4847 22.5514 57.5873 19.809C54.691 17.0677 50.0731 17.2097 47.3493 20.2097C47.2369 20.333 46.9159 20.5699 46.8788 20.737L46.2882 23.3581L47.5087 24.9466C47.6801 25.1693 47.7292 25.6114 47.5775 25.8767L45.2751 29.9007L48.0284 33.4389C48.346 33.8472 48.2533 34.392 47.9225 34.6627C47.5174 34.9946 46.965 34.9127 46.6474 34.5044L43.548 30.5186C43.3591 30.2752 43.2904 29.8461 43.465 29.5404L43.4639 29.5394Z" fill="#F9629A"/>
</svg>
