<svg width="85" height="85" viewBox="0 0 85 85" fill="none" xmlns="http://www.w3.org/2000/svg">
<circle opacity="0.2" cx="42.5" cy="42.5" r="42.5" fill="#F9629A"/>
<path d="M23 67.4283V58.2847C23 52.8845 27.9205 48.8834 33.2391 48.7216C32.1937 44.7219 33.7661 40.6893 36.9695 38.4481C40.173 36.207 44.6839 36.1726 47.9404 38.5226C51.1968 40.8726 52.5587 44.8422 51.5821 48.7287C57.0739 48.8992 61.708 53.0965 61.7438 58.4824L61.8025 67.2679C61.4474 69.5148 59.7318 71.8132 57.2257 71.8118L27.4622 71.7946C25.0134 71.7932 23.474 69.5062 23.0014 67.4269L23 67.4283ZM41.5435 39.0825C37.4665 39.5795 34.7499 43.2727 35.2726 47.1979C35.791 51.0845 39.3754 53.8769 43.3034 53.3843C47.19 52.896 50.0312 49.3273 49.5514 45.372C49.086 41.5299 45.6076 38.587 41.5435 39.0825ZM51.7768 61.0199C51.7997 60.2953 52.4527 59.9273 53.0327 59.9874C53.5024 60.0361 54.0323 60.4815 54.0323 61.0772L54.0294 64.484C54.0294 65.1442 53.4437 65.5795 52.8322 65.5824L47.8115 65.6053C48.4803 67.023 48.4216 68.2704 47.8043 69.585L56.8147 69.5878C58.3828 69.5019 59.5012 68.2718 59.4984 66.718L59.4855 59.1411C59.4769 54.3065 55.3541 50.6119 50.5653 51.0515C48.8326 53.9514 45.7794 55.7071 42.4686 55.7257C39.1491 55.7443 36.0344 54.0387 34.2616 51.0673C29.5444 50.5661 25.3285 54.2736 25.3228 59.1368L25.3127 66.718C25.3113 68.3262 26.5013 69.5878 28.1467 69.5878H43.9693C45.188 69.5864 46.0444 68.6298 46.0057 67.5071C45.9699 66.4688 45.1264 65.5896 43.9693 65.5896H31.4204C30.7258 65.5896 30.1817 65.1227 30.1817 64.421V61.146C30.1802 60.4328 30.7502 59.9574 31.3517 59.9803C31.9531 60.0032 32.4343 60.4557 32.4486 61.1359L32.4944 63.3012H51.7024L51.7754 61.0185L51.7768 61.0199Z" fill="#F9629A"/>
<path d="M49.7334 29.0728L34.8617 29.0785C31.6167 29.0785 29.1536 26.3104 29.334 23.21C29.5216 19.9679 32.3699 17.5434 35.6493 17.9816C36.5501 15.3195 38.9015 13.5337 41.5121 13.3017C44.3561 13.0497 46.9137 14.4975 48.2326 17.0408C51.8414 16.1973 55.2525 18.6103 55.7351 22.1489C56.2177 25.6874 53.5154 29.0713 49.7348 29.0728H49.7334ZM49.9625 26.7514C52.5302 26.7443 54.0267 24.0277 53.3421 21.8539C52.6247 19.574 50.1401 18.5387 47.9548 19.5569C47.3047 19.8605 46.6531 19.3664 46.4626 18.7692C45.7881 16.6527 43.8119 15.3524 41.641 15.5858C39.6218 15.8035 37.9377 17.3916 37.6298 19.5153C37.5253 20.2414 36.8078 20.7211 36.1047 20.4548C34.1142 19.7001 31.9933 20.8758 31.6453 23.0009C31.3374 24.8726 32.7709 26.7987 34.8631 26.793L49.9611 26.75L49.9625 26.7514Z" fill="#F9629A"/>
</svg>
