<svg width="85" height="85" viewBox="0 0 85 85" fill="none" xmlns="http://www.w3.org/2000/svg">
<circle opacity="0.2" cx="42.5" cy="42.5" r="42.5" fill="#F9629A"/>
<path d="M53.0045 60.2875C48.7947 61.7901 44.4701 62.0753 40.0407 61.8611C38.0269 61.7645 36.0805 61.5176 34.1032 61.093C33.3141 57.2048 33.1072 53.3121 33.4152 49.3802C28.5703 45.174 23.6643 39.1591 23.1303 32.52C23.0675 31.7354 23.0374 30.9308 23.1376 30.1654C23.5586 26.9598 25.8785 24.3665 28.8035 23.5054C32.1067 22.5331 35.4992 23.6411 37.6077 26.3802C39.781 23.5327 43.4723 22.4192 46.8711 23.6566C50.1014 24.8339 52.2682 28.0095 52.1534 31.555C52.096 33.3328 51.7197 35.024 51.1784 36.7079C52.3557 38.4402 52.9353 40.4412 52.6227 42.5926C56.1956 42.0932 59.5689 43.9703 61.0578 47.1168C62.606 50.3871 61.8005 54.2333 59.1151 56.6599C57.3182 58.2828 55.3017 59.4683 53.0045 60.2884V60.2875ZM38.5371 36.1293C41.0776 33.2608 45.1489 32.5765 48.494 34.3552C48.7391 33.403 48.8658 32.5045 48.9159 31.545C49.0608 28.7786 46.9422 26.4768 44.2304 26.3894C41.5314 26.3019 39.2479 28.4478 39.2251 31.227L35.9949 31.2206C35.9539 28.3895 33.6485 26.2882 30.9577 26.3912C28.2668 26.4941 26.2057 28.7321 26.2977 31.4584C26.356 33.1888 26.715 34.778 27.3584 36.3817C28.7799 39.8444 31.2274 42.886 33.9738 45.5112C34.8012 41.921 36.076 38.7955 38.5381 36.1293H38.5371ZM52.2199 57.1265C54.0068 56.454 55.5668 55.5118 56.9628 54.2443C59.0112 52.3836 59.1671 49.27 57.3018 47.279C55.4639 45.3162 52.3493 45.1904 50.3419 47.1578L48.0566 44.8679C50.0494 42.8459 49.8827 39.6913 47.8971 37.8761C45.9116 36.061 42.7688 36.2277 40.9227 38.2953C39.6798 39.6876 38.7513 41.2212 38.0852 42.9899C36.3001 47.7245 36.26 53.3604 36.8988 58.322C41.9387 58.9471 47.4944 58.9061 52.2209 57.1274L52.2199 57.1265Z" fill="#F9629A"/>
</svg>
