<svg width="85" height="85" viewBox="0 0 85 85" fill="none" xmlns="http://www.w3.org/2000/svg">
<circle opacity="0.2" cx="42.5" cy="42.5" r="42.5" fill="#F9629A"/>
<path d="M34.4156 63.9982H33.3205C29.683 63.71 26.4434 62.0175 24.3228 59.025C22.8672 56.9711 22.117 54.5732 22.0786 52.0381C22.0658 51.2202 22.6348 50.5908 23.417 50.5881C24.1389 50.5862 24.7546 51.1553 24.7601 51.9485C24.7957 57.2812 28.9932 61.5134 34.3022 61.2875C39.3623 61.0716 43.1444 57.0379 43.3017 52.0226C43.3987 48.9193 44.3328 45.7511 46.1525 43.2325C49.1578 39.0735 49.4835 33.652 46.6996 29.3301C44.019 25.1675 39.0348 23.0395 34.0744 24.0431C29.3271 25.0028 25.6255 28.7913 24.7043 33.5587C24.5652 34.2805 23.7921 34.6455 23.1444 34.5147C22.5397 34.3921 21.9651 33.7746 22.0996 33.039C22.7556 29.4308 24.7839 26.2662 27.6968 24.055C29.9794 22.3204 32.6526 21.3598 35.5107 21.153C41.3677 20.7285 47.0628 23.9095 49.7168 29.2185C52.2986 34.383 51.617 40.2089 48.3436 44.7622C46.802 46.9066 46.0445 49.5936 45.9631 52.1836C45.7582 58.7084 40.784 63.6487 34.4156 63.9991V63.9982Z" fill="#F9629A"/>
<path d="M40.0182 49.9944C39.9954 52.9961 37.6524 55.4122 34.6891 55.5275C31.1467 55.6647 28.1268 52.847 28.1185 49.3018L28.1057 44.0953C28.1039 43.3049 28.6839 42.6937 29.4863 42.6937H31.488C32.4175 42.6937 33.1137 42.0048 33.1402 41.1265C33.1668 40.2483 32.4623 39.4569 31.5017 39.4578L29.5713 39.4615C29.134 39.4615 28.7159 39.2712 28.4598 38.9748C28.1661 38.6344 28.1807 38.2319 28.1743 37.7873C28.1112 33.1946 31.7661 29.451 36.2865 29.3705C40.8178 29.29 44.5972 32.8836 44.6932 37.4817C44.7097 38.2475 44.2431 38.8906 43.4755 38.962C42.708 39.0333 42.0172 38.4423 42.0136 37.6171C41.9998 34.7014 39.7602 32.3008 36.9214 32.0629C34.0332 31.8205 31.3745 33.8231 30.9226 36.8001C33.5977 36.5065 35.8455 38.5192 35.8126 41.1275C35.7796 43.7083 33.5245 45.6954 30.7982 45.3368L30.7817 49.1253C30.7726 51.2331 32.4797 52.9348 34.6013 52.8488C36.1813 52.7857 37.3294 51.4893 37.3541 49.945C37.366 49.1884 37.9918 48.6504 38.6688 48.6468C39.3577 48.6431 40.0256 49.1564 40.0192 49.9944H40.0182Z" fill="#F9629A"/>
<path d="M63.6321 51.1713C64.3292 51.3698 64.7034 51.9754 64.6265 52.6488C64.5634 53.195 63.9596 53.9653 63.2616 53.7759L57.239 52.1401C56.8117 52.0239 56.508 51.5903 56.4128 51.2509C56.293 50.8245 56.3881 50.3506 56.6836 50.0222L58.1566 48.38L53.6902 47.1028C52.9748 46.8979 52.6061 46.1532 52.8037 45.4478C52.9656 44.8706 53.6508 44.3216 54.3663 44.5229L60.9698 46.3792C61.4684 46.5192 61.8042 46.9199 61.9149 47.3297C62.0539 47.8439 61.8719 48.2958 61.5297 48.6737L60.1638 50.1823L63.633 51.1722L63.6321 51.1713Z" fill="#F9629A"/>
<path d="M54.1376 40.3846C53.456 40.5703 52.8796 39.843 52.7827 39.3819C52.6463 38.735 52.9665 38.0141 53.6225 37.8257L58.1539 36.5238L56.6837 34.8844C56.3891 34.5559 56.293 34.0829 56.411 33.6584C56.5153 33.2815 56.8346 32.8716 57.2939 32.7426L62.9889 31.1398C63.698 30.9404 64.3823 31.4161 64.579 32.0419C64.7757 32.6676 64.4848 33.47 63.7949 33.6703L60.1657 34.7261L61.6139 36.3326C61.9167 36.6684 62.0283 37.1276 61.9121 37.5732C61.8161 37.9437 61.5004 38.3746 61.0339 38.5018L54.1385 40.3836L54.1376 40.3846Z" fill="#F9629A"/>
</svg>
