<svg width="85" height="85" viewBox="0 0 85 85" fill="none" xmlns="http://www.w3.org/2000/svg">
<circle opacity="0.2" cx="42.5" cy="42.5" r="42.5" fill="#F9629A"/>
<path d="M37.6028 65.0007H19V63.0122C19.5424 58.7781 21.8515 54.9894 26.1291 53.5868C26.3899 53.5016 26.3156 53.0978 26.197 52.9248C25.8058 52.3571 25.5088 51.7757 25.2996 51.1192L23.7548 46.2648C22.5913 42.6065 24.7246 38.7608 28.2924 37.6316C31.9189 36.4835 35.8271 38.4493 37.0061 42.1185L38.5192 46.828C39.6375 50.307 37.9415 54.0114 34.5386 55.434C36.9898 57.5855 38.2457 60.6135 38.3454 63.8227C38.3635 64.4185 38.1262 64.7879 37.6028 64.9998V65.0007ZM26.9803 45.7731C26.7494 45.2244 27.04 44.643 27.5987 44.5117C30.0989 43.9268 31.7596 42.0333 33.0481 39.8628C31.1692 38.7273 28.8339 38.9166 27.155 40.2785C25.5459 41.5842 24.8578 43.781 25.5133 45.8301L26.7448 49.6813C28.0759 49.0058 27.4321 46.8452 26.9803 45.7722V45.7731ZM27.3832 51.4253C28.7451 53.8629 31.6391 54.7413 34.0188 53.6701C36.3976 52.5998 37.5974 49.9077 36.7897 47.3831L35.2802 42.6663C35.1009 42.1058 34.812 41.6023 34.4507 41.0998C33.0101 43.2884 31.4472 45.0577 29.0059 45.9968C29.6533 48.1809 29.5546 50.2916 27.3832 51.4253ZM31.3186 56.8167L31.593 55.9438C30.1586 55.8388 28.9742 55.4132 27.8043 54.6018C27.6621 54.9785 27.5082 55.377 27.4194 55.7872C27.1813 56.8846 27.8976 57.9097 28.9425 58.1533C29.9259 58.3824 30.9971 57.8427 31.3186 56.8167ZM36.4818 63.1635C36.2491 60.6362 35.1878 58.3751 33.2854 56.7633L33.0454 57.3528C32.4459 59.2471 30.5217 60.3265 28.6256 59.9389C26.7177 59.5496 25.4038 57.8137 25.5631 55.7863C22.8167 57.0983 21.07 60.207 20.8672 63.1644H36.4818V63.1635Z" fill="#F9629A"/>
<path d="M58.7765 55.6411C58.7421 57.8478 57.2127 59.5728 55.1844 59.9405C53.156 60.3081 51.1385 59.1572 50.3299 57.185C48.7969 58.8104 47.9901 60.7726 47.7872 62.9767L54.4273 62.9866C54.9824 62.9866 55.3537 63.4502 55.322 63.9537C55.2921 64.42 54.8846 64.8148 54.3295 64.8148L47.0175 64.8185C46.707 64.8185 46.3511 64.6908 46.1863 64.5151C45.978 64.2933 45.9237 63.9745 45.9318 63.6422C46.0106 60.5146 47.1986 57.5617 49.5883 55.3731C46.3638 53.9324 44.6397 50.3629 45.7163 46.9754L47.2874 42.0331C48.5171 38.3929 52.4397 36.4669 56.0437 37.6513C59.6096 38.823 61.647 42.6778 60.5006 46.3324L59.7418 48.7321C62.7128 49.9174 63.8963 53.3529 62.3497 56.1246C64.2757 58.2707 65.241 60.9927 65.279 63.8206C65.2871 64.4237 64.8371 64.7841 64.2793 64.8176L61.7466 64.8094C61.2114 64.8076 60.8031 64.4101 60.7777 63.9446C60.7514 63.4548 61.1118 62.9948 61.6515 62.9902L63.4055 62.973C63.1981 60.0528 61.4876 56.9632 58.7765 55.6411ZM54.8059 44.9063C55.7992 46.0037 57.1955 46.49 58.6443 46.1495C59.6377 43.6349 58.5103 40.8097 56.137 39.648C53.722 38.4663 50.7401 39.3301 49.4117 41.7397C50.9085 41.5522 51.2463 40.127 52.2768 40.4412C53.1823 40.7174 52.8255 42.7167 54.8059 44.9063ZM58.0258 48.0737C54.565 48.1706 52.6227 45.6533 51.4917 42.8372C50.597 43.4176 49.687 43.6684 48.6955 43.5851L47.4848 47.3837C46.582 50.1392 48.1331 53.0577 50.8442 53.8953C53.5798 54.741 56.4439 53.1808 57.3005 50.4145L58.0258 48.0737ZM58.2079 53.4307C59.1813 53.7604 60.0886 54.2231 60.9543 54.8307C61.6542 53.1618 60.9063 51.2104 59.1894 50.4752C58.9051 51.3988 58.5474 52.2708 58.0195 53.0296C57.9797 53.0867 57.9534 53.2714 58.0014 53.3148C58.0376 53.3465 58.1481 53.4108 58.207 53.4307H58.2079ZM56.9003 55.7679C56.8822 55.3595 56.6223 54.943 56.5136 54.5735C55.1572 55.5487 53.645 56.0051 51.9263 55.9372C52.0259 57.2457 53.1977 58.2191 54.4799 58.1928C55.7621 58.1666 56.9619 57.1461 56.9003 55.7679Z" fill="#F9629A"/>
<path d="M43.3511 40.9226C41.4151 39.874 40.1863 38.3736 39.1259 36.4276C36.0273 35.9214 33.0246 34.3295 31.411 31.5333C29.9468 28.997 30.0926 25.9336 31.7777 23.5331C32.7403 22.1622 34.0116 21.1082 35.5437 20.3602C38.9811 18.6823 43.0024 18.6524 46.4678 20.2642C47.9963 20.9751 49.2758 21.9919 50.2701 23.3149C52.35 26.083 52.2939 29.7458 50.1659 32.4769C48.747 34.2979 46.7676 35.4986 44.463 36.1261C44.4802 37.4146 44.5654 38.6606 44.6831 39.9673C44.7148 40.3168 44.5925 40.6509 44.3344 40.8393C44.0764 41.0276 43.6698 41.0937 43.3511 40.9208V40.9226ZM42.6873 38.1879L42.633 35.4424C42.6429 34.9797 42.93 34.6157 43.3855 34.5197C45.6492 34.0316 47.789 32.8626 49.0621 30.8931C50.3316 28.9282 50.2837 26.4996 48.939 24.5754C48.1204 23.4036 47.0302 22.5262 45.7081 21.9123C42.8141 20.5676 39.4392 20.5603 36.5398 21.8923C35.1806 22.5162 34.056 23.4199 33.2256 24.6333C31.9579 26.4869 31.8828 28.8014 33.0418 30.7175C34.4544 33.051 37.0967 34.3468 39.7507 34.6664C40.1148 34.7108 40.3855 34.919 40.5512 35.2323C41.128 36.3271 41.7239 37.3567 42.6873 38.1879Z" fill="#F9629A"/>
</svg>
