<svg width="263" height="94" viewBox="0 0 263 94" fill="none" xmlns="http://www.w3.org/2000/svg">
<g filter="url(#filter0_d_1128_3202)">
<rect x="21.7144" y="5.42871" width="219" height="50" rx="25" fill="#4B164C" shape-rendering="crispEdges"/>
<rect x="22.0536" y="5.768" width="218.321" height="49.3214" rx="24.6607" stroke="url(#paint0_linear_1128_3202)" stroke-width="0.678571" shape-rendering="crispEdges"/>
<path d="M84.204 31.3659C84.1696 27.6415 87.3317 25.8296 87.4763 25.7453C85.6854 23.1996 82.9097 22.8518 81.9343 22.824C79.6031 22.5848 77.3417 24.1841 76.1542 24.1841C74.9429 24.1841 73.1142 22.8471 71.1432 22.8864C68.6069 22.9246 66.2342 24.3563 64.9328 26.5796C62.2472 31.1128 64.2502 37.7746 66.8232 41.4389C68.1103 43.2334 69.6143 45.2372 71.5829 45.1667C73.5088 45.0893 74.2283 43.9695 76.5524 43.9695C78.8552 43.9695 79.5308 45.1667 81.5385 45.1216C83.6054 45.0893 84.9068 43.319 86.1488 41.5082C87.6362 39.4513 88.2336 37.4256 88.2573 37.3216C88.2087 37.3055 84.2431 35.8298 84.204 31.3659Z" fill="white"/>
<path d="M80.4114 20.4135C81.4472 19.1505 82.156 17.4322 81.9592 15.6885C80.46 15.7532 78.585 16.6996 77.5053 17.9349C76.55 19.0234 75.6967 20.8076 75.9171 22.4855C77.6013 22.6079 79.3305 21.6569 80.4114 20.4135Z" fill="white"/>
<path d="M104.89 20.3682V13.7764H106.876C107.679 13.7764 108.372 13.9097 108.955 14.1763C109.538 14.4399 109.986 14.8179 110.3 15.3101C110.613 15.8022 110.77 16.3896 110.77 17.0723C110.77 17.752 110.613 18.3394 110.3 18.8345C109.986 19.3267 109.538 19.7061 108.955 19.9727C108.372 20.2363 107.679 20.3682 106.876 20.3682H104.89ZM105.857 19.5156H106.916C107.522 19.5156 108.04 19.4204 108.467 19.23C108.895 19.0366 109.22 18.7583 109.443 18.395C109.668 18.0288 109.781 17.5879 109.781 17.0723C109.781 16.5537 109.668 16.1128 109.443 15.7495C109.22 15.3862 108.895 15.1094 108.467 14.9189C108.04 14.7256 107.522 14.6289 106.916 14.6289H105.857V19.5156ZM114.914 20.5C114.419 20.5 113.96 20.415 113.539 20.2451C113.12 20.0752 112.755 19.8364 112.444 19.5288C112.137 19.2183 111.898 18.855 111.728 18.439C111.558 18.02 111.473 17.5645 111.473 17.0723C111.473 16.5771 111.558 16.1216 111.728 15.7056C111.898 15.2866 112.137 14.9233 112.444 14.6157C112.755 14.3081 113.12 14.0693 113.539 13.8994C113.96 13.7295 114.419 13.6445 114.914 13.6445C115.412 13.6445 115.869 13.7295 116.285 13.8994C116.704 14.0693 117.067 14.3081 117.375 14.6157C117.686 14.9233 117.926 15.2866 118.096 15.7056C118.266 16.1216 118.351 16.5771 118.351 17.0723C118.351 17.5645 118.266 18.02 118.096 18.439C117.926 18.855 117.686 19.2183 117.375 19.5288C117.067 19.8364 116.704 20.0752 116.285 20.2451C115.869 20.415 115.412 20.5 114.914 20.5ZM114.914 19.6475C115.266 19.6475 115.591 19.583 115.89 19.4541C116.188 19.3252 116.448 19.145 116.667 18.9136C116.887 18.6792 117.057 18.4067 117.177 18.0962C117.3 17.7827 117.362 17.4414 117.362 17.0723C117.362 16.7031 117.3 16.3618 117.177 16.0483C117.057 15.7349 116.887 15.4624 116.667 15.231C116.448 14.9966 116.188 14.8164 115.89 14.6904C115.591 14.5615 115.266 14.4971 114.914 14.4971C114.562 14.4971 114.237 14.5615 113.938 14.6904C113.643 14.8164 113.383 14.9966 113.161 15.231C112.941 15.4624 112.77 15.7349 112.646 16.0483C112.523 16.3618 112.462 16.7031 112.462 17.0723C112.462 17.4414 112.523 17.7827 112.646 18.0962C112.77 18.4097 112.941 18.6836 113.161 18.918C113.383 19.1494 113.643 19.3296 113.938 19.4585C114.237 19.5845 114.562 19.6475 114.914 19.6475ZM125.839 20.3682H124.978L123.426 15.4067L121.871 20.3682H121.009L118.865 13.7764H119.875L121.436 18.751L122.996 13.7764H123.853L125.408 18.7422L126.959 13.7764H127.975L125.839 20.3682ZM134.632 20.3682H133.569L129.781 15.2793V20.3682H128.814V13.7764H129.877L133.666 18.8696V13.7764H134.632V20.3682ZM140.029 20.3682H135.898V13.7764H136.865V19.5156H140.029V20.3682ZM143.707 20.5C143.212 20.5 142.753 20.415 142.332 20.2451C141.913 20.0752 141.548 19.8364 141.237 19.5288C140.93 19.2183 140.691 18.855 140.521 18.439C140.351 18.02 140.266 17.5645 140.266 17.0723C140.266 16.5771 140.351 16.1216 140.521 15.7056C140.691 15.2866 140.93 14.9233 141.237 14.6157C141.548 14.3081 141.913 14.0693 142.332 13.8994C142.753 13.7295 143.212 13.6445 143.707 13.6445C144.205 13.6445 144.662 13.7295 145.078 13.8994C145.497 14.0693 145.86 14.3081 146.168 14.6157C146.479 14.9233 146.719 15.2866 146.889 15.7056C147.059 16.1216 147.144 16.5771 147.144 17.0723C147.144 17.5645 147.059 18.02 146.889 18.439C146.719 18.855 146.479 19.2183 146.168 19.5288C145.86 19.8364 145.497 20.0752 145.078 20.2451C144.662 20.415 144.205 20.5 143.707 20.5ZM143.707 19.6475C144.059 19.6475 144.384 19.583 144.683 19.4541C144.981 19.3252 145.241 19.145 145.46 18.9136C145.68 18.6792 145.85 18.4067 145.97 18.0962C146.093 17.7827 146.155 17.4414 146.155 17.0723C146.155 16.7031 146.093 16.3618 145.97 16.0483C145.85 15.7349 145.68 15.4624 145.46 15.231C145.241 14.9966 144.981 14.8164 144.683 14.6904C144.384 14.5615 144.059 14.4971 143.707 14.4971C143.355 14.4971 143.03 14.5615 142.731 14.6904C142.436 14.8164 142.176 14.9966 141.954 15.231C141.734 15.4624 141.562 15.7349 141.439 16.0483C141.316 16.3618 141.255 16.7031 141.255 17.0723C141.255 17.4414 141.316 17.7827 141.439 18.0962C141.562 18.4097 141.734 18.6836 141.954 18.918C142.176 19.1494 142.436 19.3296 142.731 19.4585C143.03 19.5845 143.355 19.6475 143.707 19.6475ZM148.55 20.3682H147.535L150.215 13.7764H151.252L153.929 20.3682H152.914L152.254 18.7114H149.209L148.55 20.3682ZM149.539 17.8589H151.925L150.729 14.8486L149.539 17.8589ZM154.733 20.3682V13.7764H156.719C157.522 13.7764 158.215 13.9097 158.798 14.1763C159.381 14.4399 159.829 14.8179 160.143 15.3101C160.456 15.8022 160.613 16.3896 160.613 17.0723C160.613 17.752 160.456 18.3394 160.143 18.8345C159.829 19.3267 159.381 19.7061 158.798 19.9727C158.215 20.2363 157.522 20.3682 156.719 20.3682H154.733ZM155.7 19.5156H156.759C157.365 19.5156 157.882 19.4204 158.31 19.23C158.738 19.0366 159.063 18.7583 159.286 18.395C159.511 18.0288 159.624 17.5879 159.624 17.0723C159.624 16.5537 159.511 16.1128 159.286 15.7495C159.063 15.3862 158.738 15.1094 158.31 14.9189C157.882 14.7256 157.365 14.6289 156.759 14.6289H155.7V19.5156ZM163.742 20.3682V13.7764H164.708V20.3682H163.742ZM168.501 20.3682H167.534V14.6289H165.473V13.7764H170.562V14.6289H168.501V20.3682ZM176.631 20.5C176.136 20.5 175.677 20.415 175.255 20.2451C174.836 20.0752 174.472 19.8364 174.161 19.5288C173.854 19.2183 173.615 18.855 173.445 18.439C173.275 18.02 173.19 17.5645 173.19 17.0723C173.19 16.5771 173.275 16.1216 173.445 15.7056C173.615 15.2866 173.854 14.9233 174.161 14.6157C174.472 14.3081 174.836 14.0693 175.255 13.8994C175.677 13.7295 176.136 13.6445 176.631 13.6445C177.129 13.6445 177.586 13.7295 178.002 13.8994C178.421 14.0693 178.784 14.3081 179.092 14.6157C179.402 14.9233 179.643 15.2866 179.812 15.7056C179.982 16.1216 180.067 16.5771 180.067 17.0723C180.067 17.5645 179.982 18.02 179.812 18.439C179.643 18.855 179.402 19.2183 179.092 19.5288C178.784 19.8364 178.421 20.0752 178.002 20.2451C177.586 20.415 177.129 20.5 176.631 20.5ZM176.631 19.6475C176.982 19.6475 177.308 19.583 177.606 19.4541C177.905 19.3252 178.165 19.145 178.384 18.9136C178.604 18.6792 178.774 18.4067 178.894 18.0962C179.017 17.7827 179.079 17.4414 179.079 17.0723C179.079 16.7031 179.017 16.3618 178.894 16.0483C178.774 15.7349 178.604 15.4624 178.384 15.231C178.165 14.9966 177.905 14.8164 177.606 14.6904C177.308 14.5615 176.982 14.4971 176.631 14.4971C176.279 14.4971 175.954 14.5615 175.655 14.6904C175.359 14.8164 175.1 14.9966 174.877 15.231C174.658 15.4624 174.486 15.7349 174.363 16.0483C174.24 16.3618 174.179 16.7031 174.179 17.0723C174.179 17.4414 174.24 17.7827 174.363 18.0962C174.486 18.4097 174.658 18.6836 174.877 18.918C175.1 19.1494 175.359 19.3296 175.655 19.4585C175.954 19.5845 176.279 19.6475 176.631 19.6475ZM186.875 20.3682H185.811L182.023 15.2793V20.3682H181.056V13.7764H182.12L185.908 18.8696V13.7764H186.875V20.3682Z" fill="white"/>
<path d="M117.573 42.9719H114.881L113.407 38.4548H108.282L106.878 42.9719H104.257L109.335 27.5938H112.471L117.573 42.9719ZM112.963 36.5597L111.629 32.5442C111.488 32.1339 111.224 31.1679 110.834 29.6472H110.787C110.631 30.3012 110.381 31.2673 110.037 32.5442L108.728 36.5597H112.963Z" fill="white"/>
<path d="M130.63 37.2909C130.63 39.1768 130.107 40.6675 129.062 41.7618C128.126 42.7359 126.963 43.2224 125.575 43.2224C124.077 43.2224 123.001 42.6978 122.346 41.6485H122.298V47.4899H119.771V35.5333C119.771 34.3477 119.739 33.1309 119.678 31.8829H121.9L122.041 33.6405H122.088C122.931 32.3163 124.21 31.6553 125.926 31.6553C127.268 31.6553 128.388 32.1718 129.284 33.206C130.182 34.2414 130.63 35.6027 130.63 37.2909ZM128.056 37.3811C128.056 36.3018 127.807 35.412 127.307 34.7117C126.76 33.9814 126.027 33.6163 125.107 33.6163C124.484 33.6163 123.917 33.8196 123.411 34.2206C122.904 34.6251 122.572 35.1531 122.417 35.8072C122.338 36.1123 122.299 36.3619 122.299 36.5583V38.4072C122.299 39.2138 122.553 39.8944 123.06 40.4502C123.568 41.006 124.226 41.2834 125.037 41.2834C125.989 41.2834 126.73 40.9251 127.259 40.211C127.79 39.4957 128.056 38.5528 128.056 37.3811Z" fill="white"/>
<path d="M143.711 37.2909C143.711 39.1768 143.188 40.6675 142.142 41.7618C141.207 42.7359 140.044 43.2224 138.656 43.2224C137.158 43.2224 136.082 42.6978 135.428 41.6485H135.38V47.4899H132.853V35.5333C132.853 34.3477 132.821 33.1309 132.76 31.8829H134.982L135.123 33.6405H135.17C136.012 32.3163 137.291 31.6553 139.008 31.6553C140.349 31.6553 141.469 32.1718 142.367 33.206C143.262 34.2414 143.711 35.6027 143.711 37.2909ZM141.137 37.3811C141.137 36.3018 140.887 35.412 140.386 34.7117C139.84 33.9814 139.109 33.6163 138.188 33.6163C137.563 33.6163 136.998 33.8196 136.491 34.2206C135.983 34.6251 135.653 35.1531 135.498 35.8072C135.421 36.1123 135.38 36.3619 135.38 36.5583V38.4072C135.38 39.2138 135.634 39.8944 136.139 40.4502C136.646 41.0049 137.305 41.2834 138.118 41.2834C139.07 41.2834 139.81 40.9251 140.34 40.211C140.871 39.4957 141.137 38.5528 141.137 37.3811Z" fill="white"/>
<path d="M158.336 38.6591C158.336 39.9672 157.87 41.0315 156.935 41.8531C155.908 42.7509 154.477 43.1993 152.639 43.1993C150.942 43.1993 149.581 42.8803 148.551 42.2413L149.137 40.1879C150.246 40.8419 151.463 41.1701 152.789 41.1701C153.741 41.1701 154.482 40.9598 155.014 40.5415C155.544 40.1232 155.808 39.5616 155.808 38.8613C155.808 38.2373 155.59 37.7115 155.153 37.2851C154.718 36.8587 153.991 36.4624 152.977 36.0961C150.215 35.0919 148.836 33.6209 148.836 31.6865C148.836 30.4223 149.319 29.3858 150.288 28.5792C151.252 27.7715 152.539 27.3682 154.149 27.3682C155.584 27.3682 156.776 27.612 157.728 28.0985L157.096 30.1068C156.208 29.6354 155.203 29.3996 154.078 29.3996C153.189 29.3996 152.494 29.6134 151.997 30.0387C151.576 30.4188 151.365 30.8822 151.365 31.4311C151.365 32.0389 151.605 32.5416 152.089 32.9368C152.51 33.3019 153.274 33.6971 154.384 34.1235C155.741 34.6563 156.737 35.2791 157.379 35.9932C158.017 36.7051 158.336 37.596 158.336 38.6591Z" fill="white"/>
<path d="M166.691 33.7319H163.905V39.1157C163.905 40.485 164.396 41.1691 165.38 41.1691C165.831 41.1691 166.206 41.131 166.502 41.0547L166.572 42.9255C166.074 43.107 165.419 43.1983 164.607 43.1983C163.609 43.1983 162.829 42.9013 162.266 42.3085C161.706 41.7145 161.424 40.7184 161.424 39.3191V33.7296H159.764V31.8807H161.424V29.8504L163.905 29.1201V31.8807H166.691V33.7319Z" fill="white"/>
<path d="M179.257 37.3358C179.257 39.0402 178.757 40.4396 177.759 41.5339C176.712 42.6606 175.323 43.2222 173.592 43.2222C171.923 43.2222 170.594 42.6826 169.604 41.6033C168.613 40.524 168.117 39.1616 168.117 37.5195C168.117 35.8012 168.627 34.3938 169.65 33.2995C170.67 32.204 172.048 31.6562 173.779 31.6562C175.448 31.6562 176.791 32.1959 177.804 33.2763C178.773 34.3244 179.257 35.6776 179.257 37.3358ZM176.635 37.4155C176.635 36.3929 176.411 35.5158 175.957 34.7843C175.428 33.8992 174.67 33.4578 173.689 33.4578C172.673 33.4578 171.902 33.9003 171.372 34.7843C170.918 35.517 170.694 36.4079 170.694 37.4618C170.694 38.4844 170.918 39.3615 171.372 40.0918C171.918 40.977 172.682 41.4184 173.666 41.4184C174.631 41.4184 175.389 40.9677 175.935 40.0687C176.401 39.3234 176.635 38.437 176.635 37.4155Z" fill="white"/>
<path d="M187.47 34.0496C187.22 34.0045 186.954 33.9814 186.674 33.9814C185.785 33.9814 185.098 34.3084 184.614 34.9636C184.193 35.5414 183.982 36.2717 183.982 37.1534V42.9716H181.457L181.48 35.375C181.48 34.097 181.448 32.9333 181.385 31.8841H183.586L183.679 34.0057H183.749C184.015 33.2765 184.436 32.6895 185.012 32.2492C185.575 31.8529 186.183 31.6553 186.839 31.6553C187.072 31.6553 187.283 31.6715 187.47 31.7003V34.0496Z" fill="white"/>
<path d="M198.771 36.9029C198.771 37.3444 198.741 37.7165 198.679 38.0204H191.098C191.128 39.1158 191.494 39.9536 192.198 40.5314C192.837 41.0479 193.663 41.3068 194.677 41.3068C195.8 41.3068 196.824 41.1323 197.745 40.7821L198.141 42.4924C197.064 42.95 195.794 43.1776 194.328 43.1776C192.564 43.1776 191.18 42.6715 190.173 41.6604C189.168 40.6493 188.664 39.2915 188.664 37.5882C188.664 35.9161 189.132 34.5237 190.069 33.4132C191.051 32.2276 192.377 31.6348 194.046 31.6348C195.685 31.6348 196.926 32.2276 197.768 33.4132C198.436 34.3549 198.771 35.5197 198.771 36.9029ZM196.362 36.2639C196.378 35.5336 196.213 34.9027 195.871 34.37C195.434 33.6847 194.762 33.3427 193.857 33.3427C193.031 33.3427 192.359 33.6766 191.846 34.3469C191.425 34.8796 191.175 35.5186 191.098 36.2628H196.362V36.2639Z" fill="white"/>
</g>
<defs>
<filter id="filter0_d_1128_3202" x="7.05719e-05" y="0.000139236" width="262.429" height="93.4286" filterUnits="userSpaceOnUse" color-interpolation-filters="sRGB">
<feFlood flood-opacity="0" result="BackgroundImageFix"/>
<feColorMatrix in="SourceAlpha" type="matrix" values="0 0 0 0 0 0 0 0 0 0 0 0 0 0 0 0 0 0 127 0" result="hardAlpha"/>
<feOffset dy="16.2857"/>
<feGaussianBlur stdDeviation="10.8571"/>
<feComposite in2="hardAlpha" operator="out"/>
<feColorMatrix type="matrix" values="0 0 0 0 0.294118 0 0 0 0 0.0862745 0 0 0 0 0.298039 0 0 0 0.36 0"/>
<feBlend mode="normal" in2="BackgroundImageFix" result="effect1_dropShadow_1128_3202"/>
<feBlend mode="normal" in="SourceGraphic" in2="effect1_dropShadow_1128_3202" result="shape"/>
</filter>
<linearGradient id="paint0_linear_1128_3202" x1="47.8307" y1="1.49515" x2="71.9821" y2="100.287" gradientUnits="userSpaceOnUse">
<stop stop-color="white" stop-opacity="0.3"/>
<stop offset="1" stop-color="white" stop-opacity="0.2"/>
</linearGradient>
</defs>
</svg>
