<svg width="83" height="79" viewBox="0 0 83 79" fill="none" xmlns="http://www.w3.org/2000/svg">
<path d="M35.6069 23.8274L34.1136 23.6859L35.6069 23.8274ZM60.5452 38.1009L59.8787 36.7571L60.5452 38.1009ZM4.74918 0.00030865L7.68967e-05 16.657L16.7998 12.4415L4.74918 0.00030865ZM82.0366 77.3994L82.2209 75.9108C81.3639 75.8047 80.462 75.6678 79.5226 75.4982L79.2561 76.9743L78.9896 78.4505C79.9814 78.6295 80.9382 78.7749 81.8523 78.888L82.0366 77.3994ZM73.754 75.7051L74.1576 74.2604C72.4586 73.7858 70.7001 73.2171 68.9138 72.5469L68.3869 73.9513L67.86 75.3557C69.7295 76.0571 71.5704 76.6525 73.3504 77.1498L73.754 75.7051ZM63.1893 71.7384L63.8373 70.3856C62.2106 69.6064 60.5871 68.7404 58.9894 67.7824L58.218 69.0689L57.4467 70.3554C59.129 71.364 60.8352 72.274 62.5413 73.0912L63.1893 71.7384ZM53.5283 65.9267L54.4267 64.7255C52.9769 63.6413 51.5711 62.4703 50.2281 61.2082L49.2008 62.3012L48.1736 63.3943C49.6031 64.7377 51.0956 65.9804 52.63 67.128L53.5283 65.9267ZM45.331 58.1972L46.484 57.2378C45.3365 55.8588 44.2629 54.3927 43.2795 52.8355L42.0112 53.6364L40.7429 54.4374C41.799 56.1095 42.9502 57.6812 44.178 59.1567L45.331 58.1972ZM39.3263 48.6747L40.6907 48.0515C39.9545 46.4396 39.3085 44.7441 38.7663 42.9614L37.3312 43.3979L35.8961 43.8344C36.4774 45.7455 37.1707 47.5657 37.9619 49.2979L39.3263 48.6747ZM36.0377 37.9084L37.5163 37.6559C37.2196 35.9191 37.0151 34.1088 36.9128 32.2223L35.415 32.3035L33.9172 32.3847C34.0256 34.3837 34.2427 36.3085 34.5591 38.1609L36.0377 37.9084ZM35.4042 26.655L36.9024 26.7272C36.9459 25.8236 37.0116 24.9042 37.1002 23.9689L35.6069 23.8274L34.1136 23.6859C34.0206 24.6665 33.9517 25.6322 33.9059 26.5829L35.4042 26.655ZM35.6069 23.8274L37.1002 23.9689C37.1934 22.9863 37.301 22.0499 37.4223 21.1582L35.9359 20.9562L34.4496 20.7541C34.3226 21.6885 34.2103 22.6653 34.1136 23.6859L35.6069 23.8274ZM36.9855 15.4163L38.4392 15.7861C38.9537 13.7637 39.5589 12.1075 40.2235 10.7704L38.8803 10.1028L37.5371 9.43513C36.7588 11.0009 36.0869 12.8646 35.5318 15.0465L36.9855 15.4163ZM42.3514 5.72041L43.2228 6.94133C44.5206 6.01506 45.9375 5.75516 47.4656 6.02595L47.7274 4.54897L47.9891 3.07198C45.7451 2.67432 43.4953 3.06112 41.48 4.4995L42.3514 5.72041ZM52.8358 6.88695L51.9608 8.10522C53.2872 9.05802 54.6059 10.2854 55.8578 11.714L56.9859 10.7254L58.1141 9.73676C56.7409 8.16983 55.2561 6.77853 53.7109 5.66866L52.8358 6.88695ZM60.3484 15.2829L59.0748 16.0754C60.0364 17.6207 60.8853 19.2481 61.5817 20.8904L62.9627 20.3049L64.3436 19.7193C63.5843 17.9286 62.6628 16.1631 61.622 14.4905L60.3484 15.2829ZM64.684 25.6871L63.2158 25.9944C63.6062 27.8593 63.7223 29.6027 63.5378 31.1348L65.0271 31.3142L66.5163 31.4935C66.7492 29.5601 66.5916 27.479 66.1522 25.3798L64.684 25.6871ZM62.8218 36.4254L61.7259 35.4013C61.2338 35.9279 60.626 36.3865 59.8787 36.7571L60.5452 38.1009L61.2116 39.4448C62.2691 38.9204 63.1709 38.2488 63.9178 37.4495L62.8218 36.4254ZM60.5452 38.1009L59.8787 36.7571C59.0607 37.1628 58.1954 37.4835 57.2867 37.7229L57.6689 39.1734L58.0511 40.6239C59.1451 40.3356 60.202 39.9455 61.2116 39.4448L60.5452 38.1009ZM51.564 39.7279L51.6464 38.2301C49.8135 38.1293 47.8842 37.8036 45.8903 37.2742L45.5054 38.724L45.1204 40.1738C47.2799 40.7471 49.4134 41.1119 51.4817 41.2256L51.564 39.7279ZM39.6966 36.7077L40.2823 35.3268C38.4966 34.5694 36.6962 33.6813 34.9039 32.6814L34.173 33.9913L33.4422 35.3012C35.3202 36.349 37.2175 37.2855 39.1109 38.0886L39.6966 36.7077ZM28.944 30.7508L29.7892 29.5116C28.1397 28.3865 26.5202 27.1808 24.9499 25.9112L24.0068 27.0777L23.0638 28.2441C24.6957 29.5636 26.3805 30.818 28.0988 31.99L28.944 30.7508ZM19.3803 23.0223L20.4134 21.9349C18.9364 20.5316 17.5322 19.0817 16.2208 17.6034L15.0987 18.5989L13.9766 19.5943C15.3469 21.139 16.8107 22.6501 18.3471 24.1098L19.3803 23.0223ZM11.2431 13.8074L12.4585 12.9284C11.2434 11.2483 10.1708 9.5617 9.26516 7.8934L7.94689 8.60906L6.62862 9.32472C7.60277 11.1191 8.74614 12.9146 10.0277 14.6865L11.2431 13.8074Z" fill="#FF4766"/>
</svg>
