<svg width="1440" height="570" viewBox="0 0 1440 570" fill="none" xmlns="http://www.w3.org/2000/svg">
<mask id="mask0_1141_1020" style="mask-type:alpha" maskUnits="userSpaceOnUse" x="0" y="0" width="1440" height="570">
<rect width="1440" height="570" fill="#FFF4FD"/>
</mask>
<g mask="url(#mask0_1141_1020)">
<g filter="url(#filter0_f_1141_1020)">
<ellipse opacity="0.3" cx="1296.67" cy="142.599" rx="522.328" ry="400.599" fill="#3840FF"/>
<ellipse cx="143.328" cy="309.599" rx="522.328" ry="400.599" fill="#A661FF"/>
<ellipse opacity="0.2" cx="42.2175" cy="253.391" rx="406.576" ry="311.637" fill="black"/>
<ellipse cx="594.93" cy="246.842" rx="406.576" ry="311.637" fill="#EAAFFF"/>
<ellipse cx="495.404" cy="543.197" rx="370.404" ry="283.803" fill="#FFD873"/>
<ellipse cx="972.473" cy="426.402" rx="370.404" ry="283.803" fill="#FFD873"/>
<ellipse cx="1500.27" cy="278.497" rx="450.707" ry="345.475" fill="#8960FF" fill-opacity="0.94"/>
<ellipse cx="1449" cy="374" rx="299" ry="260" fill="#AF7EFF" fill-opacity="0.94"/>
<ellipse cx="87.0709" cy="278.497" rx="134.561" ry="69.3134" fill="#0029FF"/>
<ellipse cx="117" cy="245.5" rx="164" ry="102.5" fill="#711AFF"/>
</g>
<g opacity="0.2">
<path d="M865.607 461.12C848.898 449.019 840.041 434.605 846.516 413.474C868.501 342.171 942.518 283.459 927.218 204.796C919.307 164.407 885.22 128.598 836.71 100.882C607.243 -29.8268 391.627 21.5168 326.645 57.929C260.046 95.2278 295.974 170.036 331.199 218.678C374.569 278.622 429.481 338.54 435.944 403.965C442.755 473.046 476.214 630.608 520.556 699.458C551.841 748.033 629.356 816.243 707.295 825.3C785.235 834.356 861.678 786.478 920.536 757.267C979.393 728.057 1226.2 872.015 1253.79 826.471C1290.89 765.229 1208.06 687.608 1148.67 637.819C1088.44 587.346 1018.7 541.825 942.946 501.174C914.87 486.188 884.979 475.193 865.607 461.12Z" stroke="#1D0FBF" stroke-opacity="0.2" stroke-width="3"/>
<path d="M316.671 46.6411C245.696 86.3656 284.103 166.157 321.553 217.992C367.671 281.874 426.392 345.756 433.128 415.516C440.34 489.143 460.787 640.905 508.113 714.308C541.462 766.155 623.737 832.578 706.927 842.244C781.272 850.883 854.039 808.729 911.792 782.612C971.302 755.722 1194.89 879.405 1226.13 836.529C1269.25 777.154 1205.65 701.274 1158.52 649.096C1111.26 596.708 1051.36 548.713 982.89 505.388C957.513 489.347 930.052 476.972 911.387 462.004C895.353 449.296 886.068 434.636 889.448 414.023C894.609 382.967 906.214 354.028 915.977 325.266C924.352 300.739 931.207 276.23 930.643 250.176C930.393 237.543 927.766 224.439 922.806 210.478C909.152 172.546 873.274 137.796 823.049 109.097C748.407 66.6191 675.211 39.648 607.031 24.7886C479.279 -3.14843 366.909 18.4785 316.671 46.6411Z" stroke="#1D0FBF" stroke-opacity="0.2" stroke-width="3"/>
<path d="M306.547 35.3315C231.197 77.482 271.934 162.24 311.758 217.285C360.775 285.124 423.006 352.935 430.314 427.066C437.928 505.239 445.351 651.298 495.511 729.236C530.934 784.258 618.11 849.008 706.25 859.25C777.152 867.489 846.252 830.963 902.739 808.019C963.052 783.468 1163.56 886.986 1198.01 846.63C1247.3 789.139 1202.63 715.063 1167.91 660.513C1133.31 606.27 1083.71 555.756 1022.52 509.757C999.98 492.775 974.951 479.021 956.854 463.043C941.506 449.632 931.653 434.612 931.927 414.614C932.355 383.788 936.196 355.019 937.863 326.681C939.341 302.719 939.406 279.179 933.411 254.153C930.494 242.284 925.221 229.751 917.925 216.298C898.966 180.972 860.708 147.116 809.068 117.469C736.596 75.9243 665.285 45.6533 597.034 25.9971C478.493 -8.2966 363.755 3.28632 306.547 35.3315Z" stroke="#1D0FBF" stroke-opacity="0.2" stroke-width="3"/>
<path d="M296.425 24.0145C216.687 68.6876 259.764 158.315 301.803 216.651C353.719 288.446 419.6 360.301 427.192 438.672C435.356 521.409 429.615 661.648 482.609 744.122C520.107 802.321 612.034 865.379 705.425 876.231C772.732 884.052 838.454 853.287 893.687 833.42C954.792 811.304 1132.24 894.462 1170.04 856.739C1225.64 801.151 1199.74 728.959 1177.46 671.844C1155.67 615.764 1116.22 562.713 1062.33 513.944C1042.47 496.002 1020.03 480.886 1002.49 463.995C987.825 449.881 977.393 434.598 974.711 415.232C970.405 384.635 966.482 356.037 960.063 328.028C954.633 304.728 948.067 282.076 936.492 258.061C931.067 246.877 923.126 235.108 913.517 221.972C889.402 189.269 848.763 156.307 795.559 125.695C725.084 85.2596 655.788 51.8987 587.358 27.042C477.611 -12.583 360.601 -11.9137 296.425 24.0145Z" stroke="#1D0FBF" stroke-opacity="0.2" stroke-width="3"/>
<path d="M286.304 12.694C202.189 59.793 247.597 154.387 292.01 215.933C346.665 291.764 416.216 367.469 424.381 450.211C432.946 537.494 414.179 672.025 470.167 758.956C509.73 820.427 606.568 881.713 705.049 893.255C768.761 900.659 831.243 875.769 884.944 858.752C946.979 839.186 1101.35 902.076 1142.38 866.681C1204.6 813.031 1197.01 742.767 1187.32 683.105C1178.01 625.346 1148.88 569.68 1102.27 518.237C1085.26 499.354 1065.24 482.859 1048.26 465.054C1034.27 450.334 1023.28 434.691 1017.5 415.844C1008.17 385.345 996.908 357.164 982.252 329.467C970.224 306.766 956.728 284.969 939.399 262.141C931.467 251.642 920.869 240.541 908.774 227.898C879.814 197.757 836.334 165.733 781.715 134.174C713.249 94.7514 645.913 58.7828 577.338 28.4358C476.515 -16.3103 357.61 -27.1963 286.304 12.694Z" stroke="#1D0FBF" stroke-opacity="0.2" stroke-width="3"/>
<path d="M276.179 1.36643C187.689 50.8909 235.426 150.45 282.214 215.206C339.767 294.992 412.978 374.643 421.426 461.623C430.392 553.452 398.46 682.158 457.421 773.737C499.058 838.383 600.646 897.976 704.376 910.128C764.493 917.114 823.734 898.101 875.89 884.031C939.006 867.032 1070.3 909.555 1114.25 876.647C1183.23 825.051 1193.51 756.568 1196.7 694.395C1199.74 634.94 1181.08 576.677 1141.77 522.367C1127.44 502.623 1110.01 484.669 1093.75 465.872C1080.44 450.546 1068.72 434.526 1060.13 416.329C1045.77 386.026 1027.36 357.989 1004.29 330.78C985.656 308.776 965.529 287.869 942.318 266.018C932.028 256.222 918.934 245.71 904.203 233.542C870.708 205.902 824.216 174.993 767.894 142.356C701.438 103.947 635.571 65.705 567.206 29.4202C474.899 -19.5169 354.454 -42.4065 276.179 1.36643Z" stroke="#1D0FBF" stroke-opacity="0.2" stroke-width="3"/>
<path d="M266.192 -9.85159C173.328 42.0968 223.404 146.521 272.416 214.468C332.866 298.208 409.585 381.785 418.605 473.132C428.122 569.521 383.025 692.398 444.818 788.51C488.528 856.329 595.003 914.34 703.692 926.971C760.361 933.556 816.199 920.5 866.82 909.28C931.003 894.946 1039.38 917.117 1086.25 886.601C1162.12 837.173 1190.14 770.263 1206.22 705.58C1221.46 644.318 1213.42 583.477 1181.55 526.513C1169.9 505.81 1154.91 486.478 1139.36 466.786C1126.73 450.758 1114.29 434.457 1102.89 416.911C1083.35 386.788 1058.07 359.028 1026.47 332.097C1001.23 310.694 974.333 290.564 945.37 269.901C932.573 260.791 916.982 250.868 899.605 239.272C861.748 213.959 811.933 184.227 754.21 150.547C689.765 113.154 624.886 72.8763 557.353 30.5313C472.645 -22.5072 351.295 -57.62 266.192 -9.85159Z" stroke="#1D0FBF" stroke-opacity="0.2" stroke-width="3"/>
<path d="M256.064 -21.1837C158.817 33.2844 211.37 142.687 262.755 213.841C326.101 301.532 406.477 389.052 415.77 484.73C425.688 585.659 367.564 702.82 432.339 803.479C477.962 874.55 589.343 930.785 703.279 944.025C756.349 950.193 809.062 943.321 858.169 934.76C923.547 923.301 1008.86 925.006 1058.66 896.785C1141.4 849.72 1187.04 784.173 1216 717.078C1243.29 653.992 1245.85 590.671 1221.43 530.957C1212.47 509.296 1199.92 488.585 1185.07 467.999C1172.97 451.348 1159.81 434.671 1145.62 417.679C1120.87 387.928 1088.61 360.042 1048.59 333.697C1016.92 312.817 983.244 293.56 948.367 274.165C933.214 265.758 915.137 256.328 894.964 245.287C852.756 222.205 799.609 193.747 740.474 159.122C678.064 122.551 613.54 80.4588 547.473 31.8345C469.915 -25.3567 348.133 -72.8329 256.064 -21.1837Z" stroke="#1D0FBF" stroke-opacity="0.2" stroke-width="3"/>
<path d="M951.411 277.94C862.467 238.287 697.704 170.572 537.6 33.0381C466.421 -28.1993 345.118 -88.03 245.933 -32.518C144.315 24.3726 199.195 138.734 252.802 213.077C318.895 304.701 402.927 396.163 412.792 496.205C423.26 601.692 351.972 713.021 419.578 818.209C467.273 892.451 583.55 947.007 702.581 960.839C821.612 974.672 940.588 951.167 1030.49 906.597C1120.41 861.93 1183.23 797.599 1225.36 728.128C1310.77 587.071 1273.07 442.848 1070.62 334.791C1032.51 314.434 992.051 296.051 951.411 277.94Z" stroke="#1D0FBF" stroke-opacity="0.2" stroke-width="3"/>
</g>
</g>
<defs>
<filter id="filter0_f_1141_1020" x="-662.591" y="-541.591" width="2897.16" height="1652.18" filterUnits="userSpaceOnUse" color-interpolation-filters="sRGB">
<feFlood flood-opacity="0" result="BackgroundImageFix"/>
<feBlend mode="normal" in="SourceGraphic" in2="BackgroundImageFix" result="shape"/>
<feGaussianBlur stdDeviation="141.795" result="effect1_foregroundBlur_1141_1020"/>
</filter>
</defs>
</svg>
