<svg width="1440" height="490" viewBox="0 0 1440 490" fill="none" xmlns="http://www.w3.org/2000/svg">
<path fill-rule="evenodd" clip-rule="evenodd" d="M1391.18 234.876C1355.94 199.617 1283.96 152.018 1240.98 142.401C1175.53 127.755 1117.62 149.079 1061.46 192.163C956.077 273.003 949.611 400.001 993.614 444.004C1034.71 485.104 1073.92 496.585 1141.1 484.96C1208.28 473.335 1255.65 465.639 1306.96 480.739C1357.52 495.616 1395.49 487.052 1419.79 462.752C1446.07 436.47 1461.62 400.555 1456.49 357.915C1451.26 314.413 1426.42 270.126 1391.18 234.876Z" fill="#E2E8F0"/>
<path fill-rule="evenodd" clip-rule="evenodd" d="M88.496 420.17C56.6841 411.652 5.23876 387.842 -15.063 368.684C-45.9776 339.51 -54.3403 304.69 -50.0388 265.034C-41.9675 190.626 26.1339 153.996 65.8405 164.635C102.928 174.573 122.948 191.338 139.911 228.286C156.875 265.233 169.115 291.155 195.358 313.078C221.211 334.676 229.697 356.085 224.701 374.73C219.298 394.895 204.819 412.177 179.41 420.793C153.487 429.582 120.3 428.687 88.496 420.17Z" fill="#ECE9FF"/>
<path d="M1262.43 203.481L1258.66 205.459L1259.38 201.269L1256.34 198.301L1260.55 197.69L1262.43 193.877L1264.31 197.69L1268.52 198.301L1265.47 201.269L1266.19 205.459L1262.43 203.481Z" fill="#94A3B8"/>
<path d="M1280.71 8.80178L1277.76 10.356L1278.32 7.06365L1275.93 4.73211L1279.24 4.25171L1280.71 1.25586L1282.19 4.25171L1285.5 4.73211L1283.11 7.06365L1283.67 10.356L1280.71 8.80178Z" fill="#94A3B8"/>
<g clip-path="url(#clip0_0_1)">
<path d="M1368.81 335.9C1367.68 335.9 1366.76 334.982 1366.76 333.849C1366.76 332.717 1367.68 331.799 1368.81 331.799C1369.94 331.799 1370.86 332.717 1370.86 333.849C1370.86 334.982 1369.94 335.9 1368.81 335.9Z" fill="#94A3B8"/>
</g>
<g clip-path="url(#clip1_0_1)">
<path d="M1309.45 297.146C1307.53 297.146 1305.97 295.587 1305.97 293.663C1305.97 291.739 1307.53 290.18 1309.45 290.18C1311.38 290.18 1312.94 291.739 1312.94 293.663C1312.94 295.587 1311.38 297.146 1309.45 297.146Z" fill="#94A3B8"/>
</g>
<g clip-path="url(#clip2_0_1)">
<path d="M1282.67 160.369C1281.54 160.369 1280.62 159.451 1280.62 158.318C1280.62 157.186 1281.54 156.268 1282.67 156.268C1283.8 156.268 1284.72 157.186 1284.72 158.318C1284.72 159.451 1283.8 160.369 1282.67 160.369Z" fill="#94A3B8"/>
</g>
<g clip-path="url(#clip3_0_1)">
<path d="M1321.23 214.806C1318.58 214.806 1316.44 212.661 1316.44 210.016C1316.44 207.371 1318.58 205.227 1321.23 205.227C1323.87 205.227 1326.01 207.371 1326.01 210.016C1326.01 212.661 1323.87 214.806 1321.23 214.806Z" fill="#94A3B8"/>
</g>
<g clip-path="url(#clip4_0_1)">
<path d="M1290.87 107.52C1289.91 107.52 1289.13 106.741 1289.13 105.779C1289.13 104.817 1289.91 104.037 1290.87 104.037C1291.83 104.037 1292.61 104.817 1292.61 105.779C1292.61 106.741 1291.83 107.52 1290.87 107.52Z" fill="#94A3B8"/>
</g>
<g clip-path="url(#clip5_0_1)">
<path d="M1325.71 141.242C1324.03 141.242 1322.66 139.878 1322.66 138.194C1322.66 136.511 1324.03 135.146 1325.71 135.146C1327.4 135.146 1328.76 136.511 1328.76 138.194C1328.76 139.878 1327.4 141.242 1325.71 141.242Z" fill="#94A3B8"/>
</g>
<g clip-path="url(#clip6_0_1)">
<path d="M1212.27 198.041C1210.82 198.041 1209.66 196.872 1209.66 195.429C1209.66 193.986 1210.82 192.816 1212.27 192.816C1213.71 192.816 1214.88 193.986 1214.88 195.429C1214.88 196.872 1213.71 198.041 1212.27 198.041Z" fill="#94A3B8"/>
</g>
<path d="M1339.81 91.1101V87.8445C1339.81 87.6713 1339.75 87.5052 1339.62 87.3827C1339.5 87.2602 1339.33 87.1914 1339.16 87.1914C1338.99 87.1914 1338.82 87.2602 1338.7 87.3827C1338.58 87.5052 1338.51 87.6713 1338.51 87.8445V91.1101H1335.24C1335.07 91.1101 1334.9 91.1789 1334.78 91.3014C1334.66 91.4239 1334.59 91.59 1334.59 91.7632C1334.59 91.9365 1334.66 92.1026 1334.78 92.2251C1334.9 92.3475 1335.07 92.4164 1335.24 92.4164H1338.51V95.6819C1338.51 95.8552 1338.58 96.0213 1338.7 96.1438C1338.82 96.2663 1338.99 96.3351 1339.16 96.3351C1339.33 96.3351 1339.5 96.2663 1339.62 96.1438C1339.75 96.0213 1339.81 95.8552 1339.81 95.6819V92.4164H1343.08C1343.25 92.4164 1343.42 92.3475 1343.54 92.2251C1343.66 92.1026 1343.73 91.9365 1343.73 91.7632C1343.73 91.59 1343.66 91.4239 1343.54 91.3014C1343.42 91.1789 1343.25 91.1101 1343.08 91.1101H1339.81Z" fill="#94A3B8"/>
<path d="M1309.94 46.8146V45.0729C1309.94 44.9806 1309.9 44.892 1309.84 44.8266C1309.77 44.7613 1309.68 44.7246 1309.59 44.7246C1309.5 44.7246 1309.41 44.7613 1309.34 44.8266C1309.28 44.892 1309.24 44.9806 1309.24 45.0729V46.8146H1307.5C1307.41 46.8146 1307.32 46.8513 1307.25 46.9166C1307.19 46.9819 1307.15 47.0705 1307.15 47.1629C1307.15 47.2553 1307.19 47.3439 1307.25 47.4092C1307.32 47.4746 1307.41 47.5112 1307.5 47.5112H1309.24V49.2529C1309.24 49.3453 1309.28 49.4339 1309.34 49.4992C1309.41 49.5645 1309.5 49.6012 1309.59 49.6012C1309.68 49.6012 1309.77 49.5645 1309.84 49.4992C1309.9 49.4339 1309.94 49.3453 1309.94 49.2529V47.5112H1311.68C1311.77 47.5112 1311.86 47.4746 1311.93 47.4092C1311.99 47.3439 1312.03 47.2553 1312.03 47.1629C1312.03 47.0705 1311.99 46.9819 1311.93 46.9166C1311.86 46.8513 1311.77 46.8146 1311.68 46.8146H1309.94Z" fill="#94A3B8"/>
<g clip-path="url(#clip7_0_1)">
<path d="M1374.4 75.4828C1372.96 75.4828 1371.79 74.3132 1371.79 72.8703C1371.79 71.4274 1372.96 70.2578 1374.4 70.2578C1375.85 70.2578 1377.02 71.4274 1377.02 72.8703C1377.02 74.3132 1375.85 75.4828 1374.4 75.4828Z" fill="#94A3B8"/>
</g>
<path d="M1327.54 409.166V407.425C1327.54 407.332 1327.51 407.244 1327.44 407.178C1327.38 407.113 1327.29 407.076 1327.19 407.076C1327.1 407.076 1327.01 407.113 1326.95 407.178C1326.88 407.244 1326.85 407.332 1326.85 407.425V409.166H1325.1C1325.01 409.166 1324.92 409.203 1324.86 409.268C1324.79 409.333 1324.76 409.422 1324.76 409.514C1324.76 409.607 1324.79 409.695 1324.86 409.761C1324.92 409.826 1325.01 409.863 1325.1 409.863H1326.85V411.604C1326.85 411.697 1326.88 411.785 1326.95 411.851C1327.01 411.916 1327.1 411.953 1327.19 411.953C1327.29 411.953 1327.38 411.916 1327.44 411.851C1327.51 411.785 1327.54 411.697 1327.54 411.604V409.863H1329.28C1329.38 409.863 1329.47 409.826 1329.53 409.761C1329.6 409.695 1329.63 409.607 1329.63 409.514C1329.63 409.422 1329.6 409.333 1329.53 409.268C1329.47 409.203 1329.38 409.166 1329.28 409.166H1327.54Z" fill="#94A3B8"/>
<path d="M1398.77 153.515L1399.54 152.745C1399.56 152.725 1399.58 152.701 1399.59 152.675C1399.6 152.648 1399.61 152.62 1399.61 152.591C1399.61 152.562 1399.61 152.533 1399.59 152.506C1399.58 152.48 1399.57 152.455 1399.55 152.435C1399.53 152.414 1399.5 152.398 1399.47 152.387C1399.45 152.376 1399.42 152.371 1399.39 152.371C1399.36 152.371 1399.33 152.377 1399.31 152.389C1399.28 152.4 1399.26 152.417 1399.24 152.438L1398.47 153.207L1397.7 152.438C1397.68 152.417 1397.65 152.4 1397.63 152.389C1397.6 152.377 1397.57 152.371 1397.54 152.371C1397.51 152.371 1397.48 152.376 1397.46 152.387C1397.43 152.398 1397.41 152.414 1397.39 152.435C1397.37 152.455 1397.35 152.48 1397.34 152.506C1397.33 152.533 1397.32 152.562 1397.32 152.591C1397.32 152.62 1397.33 152.648 1397.34 152.675C1397.35 152.701 1397.37 152.725 1397.39 152.745L1398.16 153.515L1397.39 154.285C1397.37 154.305 1397.35 154.329 1397.34 154.355C1397.33 154.382 1397.32 154.411 1397.32 154.439C1397.32 154.468 1397.33 154.497 1397.34 154.524C1397.35 154.551 1397.37 154.575 1397.39 154.595C1397.41 154.616 1397.43 154.632 1397.46 154.643C1397.48 154.654 1397.51 154.659 1397.54 154.659C1397.57 154.659 1397.6 154.653 1397.63 154.641C1397.65 154.63 1397.68 154.613 1397.7 154.593L1398.47 153.823L1399.24 154.593C1399.26 154.613 1399.28 154.63 1399.31 154.641C1399.33 154.653 1399.36 154.659 1399.39 154.659C1399.42 154.659 1399.45 154.654 1399.47 154.643C1399.5 154.632 1399.53 154.616 1399.55 154.595C1399.57 154.575 1399.58 154.551 1399.59 154.524C1399.61 154.497 1399.61 154.468 1399.61 154.439C1399.61 154.411 1399.6 154.382 1399.59 154.355C1399.58 154.329 1399.56 154.305 1399.54 154.285L1398.77 153.515V153.515Z" fill="#94A3B8"/>
<path d="M1352.06 34.8386L1354.37 32.5291C1354.43 32.4689 1354.48 32.3968 1354.52 32.3171C1354.55 32.2375 1354.57 32.1518 1354.57 32.065C1354.57 31.9783 1354.55 31.8923 1354.52 31.8121C1354.49 31.7318 1354.44 31.6589 1354.38 31.5975C1354.32 31.5362 1354.24 31.4877 1354.16 31.4549C1354.08 31.422 1354 31.4055 1353.91 31.4063C1353.82 31.407 1353.74 31.425 1353.66 31.4593C1353.58 31.4935 1353.51 31.5433 1353.45 31.6056L1351.14 33.9144L1348.83 31.6056C1348.77 31.5433 1348.7 31.4935 1348.62 31.4593C1348.54 31.425 1348.45 31.407 1348.36 31.4063C1348.28 31.4055 1348.19 31.422 1348.11 31.4549C1348.03 31.4877 1347.96 31.5362 1347.9 31.5975C1347.84 31.6589 1347.79 31.7318 1347.75 31.8121C1347.72 31.8923 1347.7 31.9783 1347.71 32.065C1347.71 32.1518 1347.72 32.2375 1347.76 32.3171C1347.79 32.3968 1347.84 32.4689 1347.9 32.5291L1350.21 34.8379L1347.9 37.1474C1347.84 37.2076 1347.79 37.2797 1347.76 37.3594C1347.72 37.439 1347.71 37.5247 1347.71 37.6115C1347.7 37.6982 1347.72 37.7842 1347.75 37.8644C1347.79 37.9447 1347.84 38.0176 1347.9 38.079C1347.96 38.1403 1348.03 38.1888 1348.11 38.2216C1348.19 38.2545 1348.28 38.271 1348.36 38.2702C1348.45 38.2695 1348.54 38.2515 1348.62 38.2172C1348.7 38.183 1348.77 38.1332 1348.83 38.0709L1351.14 35.7621L1353.45 38.0709C1353.51 38.1332 1353.58 38.183 1353.66 38.2172C1353.74 38.2515 1353.82 38.2695 1353.91 38.2702C1354 38.271 1354.08 38.2545 1354.16 38.2216C1354.24 38.1888 1354.32 38.1403 1354.38 38.079C1354.44 38.0176 1354.49 37.9447 1354.52 37.8644C1354.55 37.7842 1354.57 37.6982 1354.57 37.6115C1354.57 37.5247 1354.55 37.439 1354.52 37.3594C1354.48 37.2797 1354.43 37.2076 1354.37 37.1474L1352.06 34.8379V34.8386Z" fill="#94A3B8"/>
<path d="M1363.48 260.936V258.323C1363.48 258.185 1363.42 258.052 1363.33 257.954C1363.23 257.856 1363.09 257.801 1362.96 257.801C1362.82 257.801 1362.68 257.856 1362.59 257.954C1362.49 258.052 1362.43 258.185 1362.43 258.323V260.936H1359.82C1359.68 260.936 1359.55 260.991 1359.45 261.089C1359.35 261.187 1359.3 261.32 1359.3 261.458C1359.3 261.597 1359.35 261.73 1359.45 261.828C1359.55 261.926 1359.68 261.981 1359.82 261.981H1362.43V264.593C1362.43 264.732 1362.49 264.865 1362.59 264.963C1362.68 265.061 1362.82 265.116 1362.96 265.116C1363.09 265.116 1363.23 265.061 1363.33 264.963C1363.42 264.865 1363.48 264.732 1363.48 264.593V261.981H1366.09C1366.23 261.981 1366.36 261.926 1366.46 261.828C1366.56 261.73 1366.61 261.597 1366.61 261.458C1366.61 261.32 1366.56 261.187 1366.46 261.089C1366.36 260.991 1366.23 260.936 1366.09 260.936H1363.48Z" fill="#94A3B8"/>
<path d="M1131.85 218.226V216.049C1131.85 215.933 1131.81 215.822 1131.72 215.741C1131.64 215.659 1131.53 215.613 1131.42 215.613C1131.3 215.613 1131.19 215.659 1131.11 215.741C1131.03 215.822 1130.98 215.933 1130.98 216.049V218.226H1128.8C1128.69 218.226 1128.58 218.272 1128.5 218.353C1128.41 218.435 1128.37 218.546 1128.37 218.661C1128.37 218.777 1128.41 218.887 1128.5 218.969C1128.58 219.051 1128.69 219.097 1128.8 219.097H1130.98V221.274C1130.98 221.389 1131.03 221.5 1131.11 221.582C1131.19 221.663 1131.3 221.709 1131.42 221.709C1131.53 221.709 1131.64 221.663 1131.72 221.582C1131.81 221.5 1131.85 221.389 1131.85 221.274V219.097H1134.03C1134.14 219.097 1134.25 219.051 1134.34 218.969C1134.42 218.887 1134.46 218.777 1134.46 218.661C1134.46 218.546 1134.42 218.435 1134.34 218.353C1134.25 218.272 1134.14 218.226 1134.03 218.226H1131.85Z" fill="#94A3B8"/>
<path d="M1365.24 175.575L1366.47 174.343C1366.51 174.311 1366.53 174.272 1366.55 174.23C1366.57 174.187 1366.58 174.142 1366.58 174.095C1366.58 174.049 1366.57 174.003 1366.56 173.961C1366.54 173.918 1366.51 173.879 1366.48 173.846C1366.45 173.813 1366.41 173.788 1366.36 173.77C1366.32 173.753 1366.28 173.744 1366.23 173.744C1366.18 173.745 1366.14 173.754 1366.1 173.772C1366.05 173.791 1366.01 173.817 1365.98 173.85L1364.75 175.082L1363.52 173.85C1363.49 173.817 1363.45 173.791 1363.41 173.772C1363.36 173.754 1363.32 173.745 1363.27 173.744C1363.23 173.744 1363.18 173.753 1363.14 173.77C1363.09 173.788 1363.05 173.813 1363.02 173.846C1362.99 173.879 1362.96 173.918 1362.95 173.961C1362.93 174.003 1362.92 174.049 1362.92 174.095C1362.92 174.142 1362.93 174.187 1362.95 174.23C1362.97 174.272 1362.99 174.311 1363.03 174.343L1364.26 175.574L1363.03 176.806C1362.99 176.838 1362.97 176.877 1362.95 176.919C1362.93 176.962 1362.92 177.007 1362.92 177.054C1362.92 177.1 1362.93 177.146 1362.95 177.189C1362.96 177.231 1362.99 177.27 1363.02 177.303C1363.05 177.336 1363.09 177.361 1363.14 177.379C1363.18 177.397 1363.23 177.405 1363.27 177.405C1363.32 177.405 1363.36 177.395 1363.41 177.377C1363.45 177.358 1363.49 177.332 1363.52 177.299L1364.75 176.067L1365.98 177.299C1366.01 177.332 1366.05 177.358 1366.1 177.377C1366.14 177.395 1366.18 177.405 1366.23 177.405C1366.28 177.405 1366.32 177.397 1366.36 177.379C1366.41 177.361 1366.45 177.336 1366.48 177.303C1366.51 177.27 1366.54 177.231 1366.56 177.189C1366.57 177.146 1366.58 177.1 1366.58 177.054C1366.58 177.007 1366.57 176.962 1366.55 176.919C1366.53 176.877 1366.51 176.838 1366.47 176.806L1365.24 175.574V175.575Z" fill="#94A3B8"/>
<defs>
<clipPath id="clip0_0_1">
<rect width="4.92142" height="4.92142" fill="white" transform="translate(1366.35 331.375)"/>
</clipPath>
<clipPath id="clip1_0_1">
<rect width="8.35992" height="8.35992" fill="white" transform="translate(1305.27 289.461)"/>
</clipPath>
<clipPath id="clip2_0_1">
<rect width="4.92142" height="4.92142" fill="white" transform="translate(1280.21 155.844)"/>
</clipPath>
<clipPath id="clip3_0_1">
<rect width="11.4949" height="11.4949" fill="white" transform="translate(1315.48 204.238)"/>
</clipPath>
<clipPath id="clip4_0_1">
<rect width="4.17996" height="4.17996" fill="white" transform="translate(1288.78 103.678)"/>
</clipPath>
<clipPath id="clip5_0_1">
<rect width="7.31493" height="7.31493" fill="white" transform="translate(1322.05 134.518)"/>
</clipPath>
<clipPath id="clip6_0_1">
<rect width="6.26994" height="6.26994" fill="white" transform="translate(1209.13 192.277)"/>
</clipPath>
<clipPath id="clip7_0_1">
<rect width="6.26994" height="6.26994" fill="white" transform="translate(1371.27 69.7188)"/>
</clipPath>
</defs>
</svg>
