<svg width="78" height="83" viewBox="0 0 78 83" fill="none" xmlns="http://www.w3.org/2000/svg">
<g filter="url(#filter0_d_1134_248)">
<path d="M53.7685 35.3134C53.7685 45.6775 46.2445 55.3846 35.9652 58.2246C35.2657 58.4154 34.5027 58.4154 33.8033 58.2246C23.524 55.3846 16 45.6775 16 35.3134V26.0091C16 24.2711 17.3141 22.3 18.946 21.643L30.7513 16.8107C33.4006 15.7298 36.389 15.7298 39.0384 16.8107L50.8437 21.643C52.4544 22.3 53.7897 24.2711 53.7897 26.0091L53.7685 35.3134Z" fill="#4B164C"/>
</g>
<path d="M34.8842 38.2375C36.0084 38.2375 37.0865 37.7909 37.8815 36.996C38.6764 36.2011 39.123 35.1229 39.123 33.9987C39.123 32.8744 38.6764 31.7963 37.8815 31.0013C37.0865 30.2064 36.0084 29.7598 34.8842 29.7598C33.7599 29.7598 32.6818 30.2064 31.8868 31.0013C31.0919 31.7963 30.6453 32.8744 30.6453 33.9987C30.6453 35.1229 31.0919 36.2011 31.8868 36.996C32.6818 37.7909 33.7599 38.2375 34.8842 38.2375ZM34.8842 38.2375V44.5959" stroke="white" stroke-width="4" stroke-miterlimit="10" stroke-linecap="round" stroke-linejoin="round"/>
<defs>
<filter id="filter0_d_1134_248" x="0" y="0" width="77.7898" height="82.3672" filterUnits="userSpaceOnUse" color-interpolation-filters="sRGB">
<feFlood flood-opacity="0" result="BackgroundImageFix"/>
<feColorMatrix in="SourceAlpha" type="matrix" values="0 0 0 0 0 0 0 0 0 0 0 0 0 0 0 0 0 0 127 0" result="hardAlpha"/>
<feOffset dx="4" dy="4"/>
<feGaussianBlur stdDeviation="10"/>
<feComposite in2="hardAlpha" operator="out"/>
<feColorMatrix type="matrix" values="0 0 0 0 0.0313726 0 0 0 0 0.388235 0 0 0 0 0.458824 0 0 0 0.3 0"/>
<feBlend mode="normal" in2="BackgroundImageFix" result="effect1_dropShadow_1134_248"/>
<feBlend mode="normal" in="SourceGraphic" in2="effect1_dropShadow_1134_248" result="shape"/>
</filter>
</defs>
</svg>
