<svg width="185" height="56" viewBox="0 0 185 56" fill="none" xmlns="http://www.w3.org/2000/svg">
<path d="M71.5363 20.6775C70.9817 19.7862 70.2269 19.0965 69.273 18.6045C68.319 18.1138 67.2412 17.8672 66.0407 17.8672H61.1022V20.5949H65.8754C66.5302 20.5949 67.1073 20.7276 67.608 20.9917C68.1087 21.2546 68.5043 21.6264 68.7948 22.1096C69.0864 22.5902 69.2329 23.1598 69.2329 23.8145C69.2329 24.4692 69.0864 25.0375 68.7948 25.5195C68.5043 26.0002 68.1087 26.3732 67.608 26.6373C67.1073 26.9015 66.5302 27.0329 65.8754 27.0329H61.1022V29.7593H66.0394C67.24 29.7593 68.3178 29.5152 69.2717 29.0233C70.2256 28.5326 70.9817 27.8416 71.535 26.9503C72.0896 26.059 72.3675 25.0125 72.3675 23.8133C72.3688 22.614 72.0909 21.5688 71.5363 20.6775ZM58.949 17.8672V36.9597H62.0849V17.8672H58.949Z" fill="white"/>
<path d="M85.7194 26.7642C85.1836 25.7828 84.4475 25.0091 83.5111 24.4458C82.5748 23.8825 81.4969 23.5996 80.2789 23.5996C79.0245 23.5996 77.8841 23.8988 76.8563 24.5009C75.8286 25.1005 75.0136 25.9142 74.414 26.9407C73.8143 27.9672 73.5151 29.1276 73.5151 30.4182C73.5151 31.7101 73.8181 32.873 74.4277 33.9095C75.0374 34.946 75.8649 35.7596 76.9101 36.3517C77.9567 36.9413 79.1334 37.238 80.4429 37.238C81.4619 37.238 82.4245 37.0465 83.3359 36.6647C84.2447 36.2841 85.0159 35.7196 85.653 34.9748L83.744 33.037C83.3434 33.4926 82.8577 33.8369 82.2843 34.0735C81.7122 34.3101 81.0888 34.4277 80.4166 34.4277C79.6354 34.4277 78.9431 34.2587 78.3435 33.9232C77.7439 33.5865 77.2807 33.1083 76.9527 32.4912C76.7975 32.1958 76.6773 31.879 76.5959 31.5373H86.3616C86.4167 31.2632 86.4567 31.014 86.4843 30.7875C86.5118 30.5584 86.5243 30.3368 86.5243 30.1178C86.5243 28.8647 86.2552 27.7468 85.7194 26.7642ZM76.6009 29.0825C76.6786 28.7733 76.7862 28.4866 76.9239 28.2225C77.2319 27.6329 77.6688 27.1723 78.2333 26.8455C78.7954 26.5188 79.4602 26.3548 80.225 26.3548C80.9511 26.3548 81.5645 26.5 82.0653 26.7917C82.5647 27.0821 82.9516 27.5002 83.2245 28.046C83.3784 28.3527 83.4936 28.697 83.57 29.0825H76.6009Z" fill="white"/>
<path d="M112.532 34.0032C111.996 34.2298 111.409 34.3437 110.772 34.3437C110.027 34.3437 109.369 34.1772 108.795 33.8392C108.223 33.5025 107.776 33.0393 107.458 32.4472C107.14 31.8576 106.981 31.1804 106.981 30.4155C106.981 29.6344 107.14 28.9522 107.458 28.3701C107.776 27.788 108.223 27.3298 108.795 26.9931C109.369 26.6564 110.027 26.4874 110.772 26.4874C111.409 26.4874 111.995 26.6025 112.532 26.8291C113.068 27.0557 113.528 27.3974 113.909 27.8518L115.873 25.8602C115.256 25.1342 114.505 24.5734 113.624 24.1828C112.741 23.7922 111.791 23.5957 110.772 23.5957C109.482 23.5957 108.313 23.8949 107.267 24.497C106.221 25.0966 105.399 25.9103 104.799 26.9368C104.2 27.9645 103.898 29.1237 103.898 30.4143C103.898 31.6874 104.2 32.8428 104.799 33.878C105.399 34.9145 106.223 35.7332 107.267 36.3328C108.313 36.9337 109.481 37.2341 110.772 37.2341C111.791 37.2341 112.741 37.0376 113.624 36.647C114.505 36.2565 115.255 35.6969 115.873 34.9696L113.909 32.978C113.528 33.4349 113.068 33.7766 112.532 34.0032Z" fill="white"/>
<path d="M129.118 26.7642C128.582 25.7828 127.845 25.0091 126.907 24.4458C125.971 23.8825 124.893 23.5996 123.676 23.5996C122.421 23.5996 121.28 23.8988 120.252 24.5009C119.225 25.1005 118.412 25.9142 117.812 26.9407C117.212 27.9684 116.911 29.1276 116.911 30.4182C116.911 31.7101 117.215 32.873 117.825 33.9095C118.435 34.946 119.261 35.7596 120.307 36.3517C121.353 36.9413 122.531 37.238 123.84 37.238C124.858 37.238 125.822 37.0465 126.731 36.6647C127.639 36.2841 128.413 35.7196 129.049 34.9748L127.14 33.037C126.739 33.4926 126.252 33.8369 125.68 34.0735C125.108 34.3101 124.485 34.4277 123.813 34.4277C123.03 34.4277 122.339 34.2587 121.74 33.9232C121.139 33.5865 120.675 33.1083 120.347 32.4912C120.192 32.1958 120.072 31.879 119.991 31.5373H129.759C129.813 31.2632 129.853 31.014 129.88 30.7875C129.908 30.5584 129.923 30.3368 129.923 30.1178C129.923 28.8647 129.655 27.7468 129.118 26.7642ZM119.998 29.0825C120.075 28.7733 120.181 28.4866 120.321 28.2225C120.63 27.6329 121.066 27.1723 121.631 26.8455C122.194 26.5188 122.859 26.3548 123.622 26.3548C124.35 26.3548 124.964 26.5 125.462 26.7917C125.963 27.0821 126.349 27.5002 126.623 28.046C126.776 28.3527 126.891 28.697 126.968 29.0825H119.998Z" fill="white"/>
<path d="M140.11 34.0032C139.571 34.2298 138.987 34.3437 138.35 34.3437C137.605 34.3437 136.945 34.1772 136.373 33.8392C135.8 33.5025 135.354 33.0393 135.036 32.4472C134.717 31.8576 134.558 31.1804 134.558 30.4155C134.558 29.6344 134.717 28.9522 135.036 28.3701C135.354 27.788 135.8 27.3298 136.373 26.9931C136.945 26.6564 137.605 26.4874 138.35 26.4874C138.987 26.4874 139.571 26.6025 140.11 26.8291C140.646 27.0557 141.105 27.3974 141.487 27.8518L143.452 25.8602C142.834 25.1342 142.083 24.5734 141.201 24.1828C140.319 23.7922 139.369 23.5957 138.351 23.5957C137.059 23.5957 135.891 23.8949 134.846 24.497C133.799 25.0966 132.978 25.9103 132.376 26.9368C131.776 27.9645 131.477 29.1237 131.477 30.4143C131.477 31.6874 131.776 32.8428 132.376 33.878C132.977 34.9145 133.798 35.7332 134.846 36.3328C135.891 36.9337 137.059 37.2341 138.351 37.2341C139.369 37.2341 140.318 37.0376 141.201 36.647C142.083 36.2565 142.833 35.6969 143.452 34.9696L141.488 32.978C141.105 33.4349 140.647 33.7766 140.11 34.0032Z" fill="#F9629A"/>
<path d="M156.925 26.0681C156.49 25.2957 155.89 24.6886 155.125 24.253C154.362 23.8173 153.489 23.5983 152.506 23.5983C151.542 23.5983 150.675 23.8223 149.903 24.268C149.398 24.5584 148.967 24.9177 148.606 25.347C148.413 25.5761 148.239 25.8252 148.087 26.0944C147.652 26.8667 147.433 27.7555 147.433 28.7544L148.606 29.4091C148.606 28.8271 148.733 28.3088 148.987 27.8531C149.242 27.4 149.597 27.0445 150.05 26.7904C150.506 26.5362 151.024 26.4086 151.606 26.4086C152.48 26.4086 153.192 26.6902 153.747 27.2548C154.302 27.8181 154.579 28.5366 154.579 29.4104V36.965H157.579V28.7557C157.58 27.7355 157.362 26.8404 156.925 26.0681ZM145.606 17.3242V36.9625H148.606V17.3242H145.606Z" fill="#F9629A"/>
<path d="M170.128 23.8713V25.3334C169.754 24.8965 169.303 24.531 168.776 24.2418C168.004 23.8137 167.118 23.5996 166.116 23.5996C164.934 23.5996 163.869 23.9038 162.914 24.5134C161.956 25.1231 161.202 25.9405 160.65 26.967C160.094 27.9959 159.815 29.1564 159.815 30.447C159.815 31.7188 160.094 32.8692 160.65 33.8957C161.202 34.9247 161.956 35.7384 162.914 36.3392C163.867 36.9376 164.934 37.2368 166.116 37.2368C167.118 37.2368 168.009 37.0227 168.792 36.5983C169.313 36.3117 169.76 35.9537 170.128 35.5256V36.9639H173.127V23.8713H170.128ZM169.294 33.2823C168.612 34.0296 167.716 34.4002 166.608 34.4002C165.971 34.4002 165.402 34.2725 164.896 34.0134C163.657 34.9372 162.101 34.9647 161.568 34.9435C161.504 34.9397 161.481 34.8571 161.535 34.822C162.428 34.1949 163.065 33.3637 163.482 32.6777C163.444 32.6164 163.41 32.5563 163.375 32.4912C163.057 31.8903 162.897 31.1993 162.897 30.4169C162.897 29.6358 163.057 28.9436 163.375 28.344C163.695 27.7431 164.13 27.2762 164.686 26.9394C165.238 26.6039 165.88 26.4375 166.608 26.4375C167.353 26.4375 168.004 26.6039 168.558 26.9394C169.113 27.2762 169.545 27.7431 169.851 28.344C170.163 28.9436 170.318 29.6358 170.318 30.4169C170.318 31.5824 169.975 32.5362 169.294 33.2823Z" fill="#F9629A"/>
<path d="M178.446 18.416V36.9628H181.447V18.416H178.446ZM175.31 23.8701V26.5991H184.584V23.8701H175.31Z" fill="#F9629A"/>
<path d="M94.408 37.2329C93.2262 37.2329 92.1584 36.9324 91.2032 36.3328C90.2481 35.7332 89.4945 34.9195 88.9399 33.8918C88.3853 32.8653 88.1074 31.7149 88.1074 30.4418C88.1074 29.1512 88.3841 27.992 88.9399 26.9643C89.4945 25.9378 90.2493 25.1191 91.2032 24.5095C92.1584 23.9011 93.2262 23.5957 94.408 23.5957C95.4082 23.5957 96.2945 23.8098 97.0669 24.2366C97.8393 24.6635 98.4527 25.2506 98.9084 25.9954C99.3628 26.7415 99.5906 27.5865 99.5906 28.5316V32.2957C99.5906 33.2409 99.3678 34.0871 98.9221 34.8319C98.4765 35.578 97.8631 36.1638 97.0807 36.5907C96.2995 37.0188 95.4082 37.2329 94.408 37.2329ZM94.8987 34.3963C96.0078 34.3963 96.9029 34.0232 97.5852 33.2784C98.2674 32.5336 98.6079 31.5785 98.6079 30.4143C98.6079 29.6332 98.4527 28.9409 98.1447 28.3413C97.8355 27.7417 97.4036 27.2735 96.8491 26.9368C96.2945 26.6 95.6448 26.4323 94.8987 26.4323C94.1714 26.4323 93.5304 26.6 92.9759 26.9368C92.4213 27.2735 91.9844 27.7417 91.6664 28.3413C91.3485 28.9409 91.1895 29.6332 91.1895 30.4143C91.1895 31.1967 91.3485 31.8877 91.6664 32.4873C91.9844 33.0869 92.42 33.5551 92.9759 33.8918C93.5304 34.2285 94.1714 34.3963 94.8987 34.3963ZM98.4176 36.96V33.4411L98.9359 30.2503L98.4176 27.087V23.8686H101.418V36.96H98.4176Z" fill="white"/>
<path d="M44.0171 14.6724H14.6726C14.6726 6.57072 21.241 0.0012518 29.343 0H29.3468C33.3965 0 37.0669 1.64237 39.7196 4.29745C42.3747 6.95252 44.0171 10.6203 44.0171 14.6724Z" fill="url(#paint0_linear_1141_1251)"/>
<path d="M42.8645 8.95915C42.1209 7.20286 41.0481 5.62309 39.7199 4.29492C41.7654 9.2358 38.135 14.6711 32.7859 14.6711H14.6716C10.6194 14.6711 6.95151 16.311 4.29884 18.9686C1.64117 21.6224 0 25.2902 0 29.341C0 37.444 6.56719 44.0134 14.6729 44.0134H18.4234V55.9995L31.4814 40.4821V44.0147H44.0187V14.6699C44.0162 12.6432 43.6056 10.7129 42.8645 8.95915ZM17.7837 31.066C16.8311 32.0186 15.2863 32.0186 14.3336 31.066C13.3835 30.1134 13.3835 28.5687 14.3336 27.6185C15.2863 26.6659 16.8311 26.6659 17.7837 27.6185C18.7376 28.5687 18.7376 30.1134 17.7837 31.066ZM28.0314 31.066C27.0775 32.0186 25.5339 32.0186 24.58 31.066C23.6274 30.1134 23.6274 28.5687 24.58 27.6185C25.5339 26.6659 27.0775 26.6659 28.0314 27.6185C28.9828 28.5687 28.9828 30.1134 28.0314 31.066ZM38.2765 31.066C37.3263 32.0186 35.779 32.0186 34.8289 31.066C33.8762 30.1134 33.8762 28.5687 34.8289 27.6185C35.779 26.6659 37.3263 26.6659 38.2765 27.6185C39.2291 28.5687 39.2291 30.1134 38.2765 31.066Z" fill="url(#paint1_linear_1141_1251)"/>
<defs>
<linearGradient id="paint0_linear_1141_1251" x1="14.6722" y1="7.33602" x2="44.0173" y2="7.33602" gradientUnits="userSpaceOnUse">
<stop stop-color="#FFB1CD"/>
<stop offset="1" stop-color="#FA87B2"/>
</linearGradient>
<linearGradient id="paint1_linear_1141_1251" x1="22.0075" y1="46.139" x2="22.0075" y2="15.5215" gradientUnits="userSpaceOnUse">
<stop offset="0.0419" stop-color="#FFE8F1"/>
<stop offset="1" stop-color="white"/>
</linearGradient>
</defs>
</svg>
