<svg width="208" height="63" viewBox="0 0 208 63" fill="none" xmlns="http://www.w3.org/2000/svg">
<path d="M80.4785 23.2642C79.8546 22.2615 79.0053 21.4855 77.9322 20.932C76.859 20.38 75.6465 20.1025 74.2959 20.1025H68.74V23.1712H74.11C74.8465 23.1712 75.4958 23.3205 76.0591 23.6177C76.6224 23.9134 77.0675 24.3317 77.3942 24.8753C77.7223 25.4161 77.8871 26.0568 77.8871 26.7934C77.8871 27.5299 77.7223 28.1693 77.3942 28.7115C77.0675 29.2523 76.6224 29.6719 76.0591 29.9691C75.4958 30.2662 74.8465 30.4141 74.11 30.4141H68.74V33.4814H74.2945C75.645 33.4814 76.8576 33.2068 77.9308 32.6533C79.0039 32.1013 79.8546 31.3239 80.4771 30.3212C81.101 29.3184 81.4136 28.1411 81.4136 26.792C81.415 25.4428 81.1024 24.2669 80.4785 23.2642ZM66.3176 20.1025V41.5819H69.8455V20.1025H66.3176Z" fill="black"/>
<path d="M96.4345 30.109C95.8317 29.0049 95.0036 28.1346 93.9502 27.5008C92.8967 26.8671 91.6842 26.5488 90.3138 26.5488C88.9027 26.5488 87.6197 26.8854 86.4634 27.5628C85.3072 28.2374 84.3904 29.1528 83.7158 30.3076C83.0412 31.4624 82.7046 32.7679 82.7046 34.2198C82.7046 35.6732 83.0454 36.9815 83.7313 38.1476C84.4171 39.3137 85.348 40.229 86.524 40.8952C87.7014 41.5585 89.0252 41.8923 90.4983 41.8923C91.6447 41.8923 92.7277 41.6768 93.753 41.2472C94.7755 40.8191 95.643 40.184 96.3598 39.346L94.2121 37.166C93.7615 37.6786 93.215 38.0659 92.57 38.3321C91.9264 38.5982 91.225 38.7306 90.4688 38.7306C89.59 38.7306 88.8111 38.5405 88.1365 38.1631C87.462 37.7842 86.9409 37.2463 86.5719 36.552C86.3973 36.2196 86.2621 35.8633 86.1705 35.4789H97.157C97.2189 35.1704 97.264 34.8902 97.295 34.6353C97.326 34.3776 97.34 34.1283 97.34 33.8818C97.34 32.4721 97.0372 31.2145 96.4345 30.109ZM86.1761 32.7172C86.2635 32.3693 86.3846 32.0468 86.5395 31.7497C86.8859 31.0864 87.3775 30.5681 88.0126 30.2005C88.645 29.833 89.3928 29.6485 90.2533 29.6485C91.0701 29.6485 91.7602 29.8119 92.3235 30.14C92.8855 30.4667 93.3206 30.9371 93.6277 31.5511C93.8009 31.8961 93.9305 32.2834 94.0164 32.7172H86.1761Z" fill="black"/>
<path d="M126.599 38.2555C125.996 38.5104 125.336 38.6385 124.619 38.6385C123.781 38.6385 123.04 38.4512 122.395 38.071C121.751 37.6922 121.249 37.1711 120.891 36.505C120.533 35.8417 120.354 35.0798 120.354 34.2193C120.354 33.3405 120.533 32.573 120.891 31.9181C121.249 31.2633 121.751 30.7478 122.395 30.369C123.04 29.9902 123.781 29.8 124.619 29.8C125.336 29.8 125.995 29.9296 126.599 30.1845C127.202 30.4394 127.72 30.8239 128.148 31.3351L130.358 29.0945C129.663 28.2777 128.818 27.6468 127.827 27.2074C126.834 26.768 125.765 26.5469 124.619 26.5469C123.168 26.5469 121.853 26.8835 120.675 27.5608C119.499 28.2354 118.574 29.1508 117.899 30.3056C117.225 31.4618 116.885 32.7659 116.885 34.2179C116.885 35.6501 117.225 36.95 117.899 38.1146C118.574 39.2807 119.501 40.2017 120.675 40.8763C121.853 41.5523 123.167 41.8903 124.619 41.8903C125.765 41.8903 126.834 41.6692 127.827 41.2298C128.818 40.7904 129.662 40.1609 130.358 39.3427L128.148 37.1021C127.72 37.6161 127.202 38.0006 126.599 38.2555Z" fill="black"/>
<path d="M145.258 30.109C144.656 29.0049 143.826 28.1346 142.771 27.5008C141.718 26.8671 140.505 26.5488 139.136 26.5488C137.724 26.5488 136.441 26.8854 135.284 27.5628C134.128 28.2374 133.214 29.1528 132.54 30.3076C131.864 31.4638 131.526 32.7679 131.526 34.2198C131.526 35.6732 131.868 36.9815 132.554 38.1476C133.24 39.3137 134.169 40.229 135.346 40.8952C136.522 41.5585 137.848 41.8923 139.321 41.8923C140.466 41.8923 141.55 41.6768 142.573 41.2473C143.595 40.8191 144.465 40.184 145.181 39.346L143.033 37.166C142.582 37.6786 142.035 38.0659 141.391 38.3321C140.747 38.5982 140.046 38.7306 139.29 38.7306C138.41 38.7306 137.632 38.5405 136.958 38.1631C136.282 37.7842 135.761 37.2463 135.392 36.552C135.217 36.2196 135.082 35.8633 134.99 35.4789H145.979C146.04 35.1704 146.085 34.8902 146.116 34.6353C146.147 34.3776 146.164 34.1283 146.164 33.8818C146.164 32.4721 145.863 31.2145 145.258 30.109ZM134.999 32.7172C135.085 32.3693 135.204 32.0468 135.362 31.7497C135.71 31.0864 136.2 30.5681 136.835 30.2005C137.469 29.833 138.217 29.6485 139.076 29.6485C139.894 29.6485 140.585 29.8119 141.146 30.14C141.709 30.4667 142.143 30.9371 142.452 31.5511C142.623 31.8961 142.753 32.2834 142.84 32.7172H134.999Z" fill="black"/>
<path d="M157.624 38.2555C157.019 38.5104 156.361 38.6385 155.644 38.6385C154.806 38.6385 154.064 38.4512 153.42 38.071C152.775 37.6922 152.274 37.1711 151.916 36.505C151.557 35.8417 151.378 35.0798 151.378 34.2193C151.378 33.3405 151.557 32.573 151.916 31.9181C152.274 31.2633 152.775 30.7478 153.42 30.369C154.064 29.9902 154.806 29.8 155.644 29.8C156.361 29.8 157.019 29.9296 157.624 30.1845C158.227 30.4394 158.744 30.8239 159.173 31.3351L161.385 29.0945C160.689 28.2777 159.844 27.6468 158.852 27.2074C157.859 26.768 156.791 26.5469 155.646 26.5469C154.192 26.5469 152.878 26.8835 151.702 27.5608C150.525 28.2354 149.601 29.1508 148.924 30.3056C148.249 31.4618 147.912 32.7659 147.912 34.2179C147.912 35.6501 148.249 36.95 148.924 38.1146C149.6 39.2807 150.523 40.2017 151.702 40.8763C152.878 41.5523 154.192 41.8903 155.646 41.8903C156.791 41.8903 157.858 41.6692 158.852 41.2298C159.844 40.7904 160.687 40.1609 161.385 39.3427L159.175 37.1021C158.744 37.6161 158.228 38.0006 157.624 38.2555Z" fill="#F9629A"/>
<path d="M176.542 29.3272C176.052 28.4583 175.377 27.7753 174.517 27.2852C173.658 26.7951 172.676 26.5486 171.57 26.5486C170.486 26.5486 169.51 26.8007 168.641 27.3021C168.073 27.6288 167.589 28.033 167.182 28.516C166.965 28.7738 166.769 29.054 166.599 29.3568C166.109 30.2257 165.862 31.2256 165.862 32.3494L167.182 33.086C167.182 32.4311 167.326 31.8481 167.612 31.3354C167.897 30.8256 168.297 30.4257 168.807 30.1398C169.32 29.8539 169.903 29.7103 170.558 29.7103C171.541 29.7103 172.342 30.0271 172.966 30.6623C173.59 31.296 173.903 32.1044 173.903 33.0874V41.5865H177.277V32.3508C177.278 31.2031 177.033 30.1961 176.542 29.3272ZM163.808 19.4902V41.5836H167.182V19.4902H163.808Z" fill="#F9629A"/>
<path d="M191.395 26.8544V28.4993C190.974 28.0078 190.467 27.5966 189.874 27.2713C189.005 26.7896 188.009 26.5488 186.881 26.5488C185.552 26.5488 184.353 26.891 183.279 27.5769C182.201 28.2627 181.353 29.1824 180.732 30.3372C180.107 31.4948 179.793 32.8003 179.793 34.2522C179.793 35.6831 180.107 36.9773 180.732 38.1321C181.353 39.2897 182.201 40.2051 183.279 40.8811C184.352 41.5543 185.552 41.8908 186.881 41.8908C188.009 41.8908 189.011 41.65 189.892 41.1726C190.478 40.8501 190.981 40.4473 191.395 39.9657V41.5838H194.769V26.8544H191.395ZM190.457 37.442C189.689 38.2828 188.681 38.6996 187.435 38.6996C186.718 38.6996 186.078 38.556 185.509 38.2645C184.115 39.3038 182.365 39.3348 181.765 39.3108C181.693 39.3066 181.667 39.2137 181.728 39.1742C182.732 38.4687 183.449 37.5336 183.918 36.7618C183.876 36.6928 183.838 36.6252 183.798 36.552C183.441 35.876 183.26 35.0986 183.26 34.2184C183.26 33.3397 183.441 32.5609 183.798 31.8863C184.157 31.2103 184.648 30.685 185.273 30.3062C185.894 29.9287 186.616 29.7414 187.435 29.7414C188.273 29.7414 189.005 29.9287 189.629 30.3062C190.253 30.685 190.739 31.2103 191.084 31.8863C191.434 32.5609 191.609 33.3397 191.609 34.2184C191.609 35.5296 191.223 36.6027 190.457 37.442Z" fill="#F9629A"/>
<path d="M200.753 20.7197V41.5851H204.129V20.7197H200.753ZM197.225 26.8557V29.9258H207.658V26.8557H197.225Z" fill="#F9629A"/>
<path d="M106.209 41.8879C104.88 41.8879 103.678 41.5499 102.604 40.8753C101.529 40.2008 100.682 39.2854 100.058 38.1292C99.4337 36.9744 99.1211 35.6801 99.1211 34.2479C99.1211 32.7959 99.4323 31.4918 100.058 30.3356C100.682 29.1808 101.531 28.2598 102.604 27.574C103.678 26.8895 104.88 26.5459 106.209 26.5459C107.335 26.5459 108.332 26.7867 109.201 27.2669C110.07 27.7472 110.76 28.4077 111.272 29.2456C111.783 30.085 112.04 31.0356 112.04 32.0988V36.3336C112.04 37.3968 111.789 38.3489 111.288 39.1868C110.786 40.0261 110.096 40.6852 109.216 41.1655C108.337 41.6471 107.335 41.8879 106.209 41.8879ZM106.761 38.6967C108.009 38.6967 109.016 38.277 109.784 37.4391C110.551 36.6012 110.934 35.5266 110.934 34.2169C110.934 33.3381 110.76 32.5593 110.413 31.8848C110.065 31.2102 109.579 30.6835 108.956 30.3046C108.332 29.9258 107.601 29.7371 106.761 29.7371C105.943 29.7371 105.222 29.9258 104.598 30.3046C103.974 30.6835 103.483 31.2102 103.125 31.8848C102.767 32.5593 102.588 33.3381 102.588 34.2169C102.588 35.0971 102.767 35.8745 103.125 36.5491C103.483 37.2236 103.973 37.7503 104.598 38.1292C105.222 38.508 105.943 38.6967 106.761 38.6967ZM110.72 41.5809V37.6222L111.303 34.0324L110.72 30.4736V26.8529H114.096V41.5809H110.72Z" fill="black"/>
<path d="M49.5197 16.5067H16.5068C16.5068 7.39217 23.8964 0.0014083 33.0112 0H33.0154C37.5713 0 41.7006 1.84769 44.6849 4.83469C47.672 7.8217 49.5197 11.948 49.5197 16.5067Z" fill="url(#paint0_linear_1128_2325)"/>
<path d="M48.2229 10.0784C47.3863 8.10254 46.1794 6.32526 44.6852 4.83105C46.9864 10.3896 42.9022 16.5045 36.8844 16.5045H16.5057C11.9469 16.5045 7.8205 18.3493 4.83623 21.3391C1.84633 24.3247 0 28.4511 0 33.0083C0 42.1242 7.38814 49.515 16.5071 49.515H20.7265V62.9995L35.4169 45.5422V49.5164H49.5214V16.503C49.5186 14.223 49.0566 12.0514 48.2229 10.0784ZM20.0069 34.949C18.9351 36.0207 17.1972 36.0207 16.1255 34.949C15.0565 33.8772 15.0565 32.1394 16.1255 31.0705C17.1972 29.9988 18.9351 29.9988 20.0069 31.0705C21.08 32.1394 21.08 33.8772 20.0069 34.949ZM31.5355 34.949C30.4624 36.0207 28.7259 36.0207 27.6527 34.949C26.581 33.8772 26.581 32.1394 27.6527 31.0705C28.7259 29.9988 30.4624 29.9988 31.5355 31.0705C32.6058 32.1394 32.6058 33.8772 31.5355 34.949ZM43.0613 34.949C41.9924 36.0207 40.2517 36.0207 39.1828 34.949C38.111 33.8772 38.111 32.1394 39.1828 31.0705C40.2517 29.9988 41.9924 29.9988 43.0613 31.0705C44.1331 32.1394 44.1331 33.8772 43.0613 34.949Z" fill="url(#paint1_linear_1128_2325)"/>
<defs>
<linearGradient id="paint0_linear_1128_2325" x1="16.5063" y1="8.25314" x2="49.5198" y2="8.25314" gradientUnits="userSpaceOnUse">
<stop stop-color="#FFB1CD"/>
<stop offset="1" stop-color="#FA87B2"/>
</linearGradient>
<linearGradient id="paint1_linear_1128_2325" x1="24.7586" y1="51.9063" x2="24.7586" y2="17.4611" gradientUnits="userSpaceOnUse">
<stop offset="0.0419" stop-color="#FFE8F1"/>
<stop offset="1" stop-color="white"/>
</linearGradient>
</defs>
</svg>
