<svg width="263" height="94" viewBox="0 0 263 94" fill="none" xmlns="http://www.w3.org/2000/svg">
<g filter="url(#filter0_d_1128_3187)">
<rect x="21.7144" y="5.42871" width="219" height="50" rx="25" fill="#4B164C" shape-rendering="crispEdges"/>
<rect x="22.0536" y="5.768" width="218.321" height="49.3214" rx="24.6607" stroke="url(#paint0_linear_1128_3187)" stroke-width="0.678571" shape-rendering="crispEdges"/>
<path d="M58.951 16.0261C58.6028 16.3814 58.4014 16.9346 58.4014 17.6511V43.2062C58.4014 43.9226 58.6028 44.4758 58.951 44.8312L59.0369 44.9092L73.7243 30.5947V30.2567L59.0369 15.9423L58.951 16.0261Z" fill="white"/>
<path d="M80.3923 35.3682L75.502 30.5943V30.2563L80.3982 25.4824L80.5079 25.5445L86.3064 28.7613C87.9612 29.6742 87.9612 31.1764 86.3064 32.0951L80.5079 35.3061L80.3923 35.3682Z" fill="white"/>
<path d="M79.6191 36.1951L74.6132 31.3143L59.8398 45.7198C60.3895 46.2831 61.2858 46.351 62.305 45.7876L79.6191 36.1951Z" fill="white"/>
<path d="M79.6191 24.6554L62.305 15.0628C61.2858 14.5052 60.3895 14.5731 59.8398 15.1365L74.6132 29.5361L79.6191 24.6554Z" fill="white"/>
<path d="M104.18 20.5889V13.9971H106.167C106.969 13.9971 107.662 14.1304 108.245 14.397C108.828 14.6606 109.276 15.0386 109.59 15.5308C109.903 16.0229 110.06 16.6104 110.06 17.293C110.06 17.9727 109.903 18.5601 109.59 19.0552C109.276 19.5474 108.828 19.9268 108.245 20.1934C107.662 20.457 106.969 20.5889 106.167 20.5889H104.18ZM105.147 19.7363H106.206C106.812 19.7363 107.33 19.6411 107.757 19.4507C108.185 19.2573 108.51 18.979 108.733 18.6157C108.958 18.2495 109.071 17.8086 109.071 17.293C109.071 16.7744 108.958 16.3335 108.733 15.9702C108.51 15.6069 108.185 15.3301 107.757 15.1396C107.33 14.9463 106.812 14.8496 106.206 14.8496H105.147V19.7363ZM114.204 20.7207C113.709 20.7207 113.25 20.6357 112.829 20.4658C112.41 20.2959 112.045 20.0571 111.734 19.7495C111.427 19.439 111.188 19.0757 111.018 18.6597C110.848 18.2407 110.763 17.7852 110.763 17.293C110.763 16.7979 110.848 16.3423 111.018 15.9263C111.188 15.5073 111.427 15.144 111.734 14.8364C112.045 14.5288 112.41 14.29 112.829 14.1201C113.25 13.9502 113.709 13.8652 114.204 13.8652C114.702 13.8652 115.159 13.9502 115.575 14.1201C115.994 14.29 116.357 14.5288 116.665 14.8364C116.976 15.144 117.216 15.5073 117.386 15.9263C117.556 16.3423 117.641 16.7979 117.641 17.293C117.641 17.7852 117.556 18.2407 117.386 18.6597C117.216 19.0757 116.976 19.439 116.665 19.7495C116.357 20.0571 115.994 20.2959 115.575 20.4658C115.159 20.6357 114.702 20.7207 114.204 20.7207ZM114.204 19.8682C114.556 19.8682 114.881 19.8037 115.18 19.6748C115.479 19.5459 115.738 19.3657 115.958 19.1343C116.177 18.8999 116.347 18.6274 116.467 18.3169C116.59 18.0034 116.652 17.6621 116.652 17.293C116.652 16.9238 116.59 16.5825 116.467 16.269C116.347 15.9556 116.177 15.6831 115.958 15.4517C115.738 15.2173 115.479 15.0371 115.18 14.9111C114.881 14.7822 114.556 14.7178 114.204 14.7178C113.853 14.7178 113.527 14.7822 113.229 14.9111C112.933 15.0371 112.673 15.2173 112.451 15.4517C112.231 15.6831 112.06 15.9556 111.937 16.269C111.813 16.5825 111.752 16.9238 111.752 17.293C111.752 17.6621 111.813 18.0034 111.937 18.3169C112.06 18.6304 112.231 18.9043 112.451 19.1387C112.673 19.3701 112.933 19.5503 113.229 19.6792C113.527 19.8052 113.853 19.8682 114.204 19.8682ZM125.129 20.5889H124.268L122.716 15.6274L121.161 20.5889H120.299L118.155 13.9971H119.166L120.726 18.9717L122.286 13.9971H123.143L124.698 18.9629L126.25 13.9971H127.265L125.129 20.5889ZM133.922 20.5889H132.859L129.071 15.5V20.5889H128.104V13.9971H129.167L132.956 19.0903V13.9971H133.922V20.5889ZM139.319 20.5889H135.188V13.9971H136.155V19.7363H139.319V20.5889ZM142.997 20.7207C142.502 20.7207 142.043 20.6357 141.622 20.4658C141.203 20.2959 140.838 20.0571 140.527 19.7495C140.22 19.439 139.981 19.0757 139.811 18.6597C139.641 18.2407 139.556 17.7852 139.556 17.293C139.556 16.7979 139.641 16.3423 139.811 15.9263C139.981 15.5073 140.22 15.144 140.527 14.8364C140.838 14.5288 141.203 14.29 141.622 14.1201C142.043 13.9502 142.502 13.8652 142.997 13.8652C143.495 13.8652 143.952 13.9502 144.368 14.1201C144.787 14.29 145.15 14.5288 145.458 14.8364C145.769 15.144 146.009 15.5073 146.179 15.9263C146.349 16.3423 146.434 16.7979 146.434 17.293C146.434 17.7852 146.349 18.2407 146.179 18.6597C146.009 19.0757 145.769 19.439 145.458 19.7495C145.15 20.0571 144.787 20.2959 144.368 20.4658C143.952 20.6357 143.495 20.7207 142.997 20.7207ZM142.997 19.8682C143.349 19.8682 143.674 19.8037 143.973 19.6748C144.271 19.5459 144.531 19.3657 144.75 19.1343C144.97 18.8999 145.14 18.6274 145.26 18.3169C145.383 18.0034 145.445 17.6621 145.445 17.293C145.445 16.9238 145.383 16.5825 145.26 16.269C145.14 15.9556 144.97 15.6831 144.75 15.4517C144.531 15.2173 144.271 15.0371 143.973 14.9111C143.674 14.7822 143.349 14.7178 142.997 14.7178C142.646 14.7178 142.32 14.7822 142.021 14.9111C141.726 15.0371 141.466 15.2173 141.244 15.4517C141.024 15.6831 140.853 15.9556 140.729 16.269C140.606 16.5825 140.545 16.9238 140.545 17.293C140.545 17.6621 140.606 18.0034 140.729 18.3169C140.853 18.6304 141.024 18.9043 141.244 19.1387C141.466 19.3701 141.726 19.5503 142.021 19.6792C142.32 19.8052 142.646 19.8682 142.997 19.8682ZM147.84 20.5889H146.825L149.505 13.9971H150.542L153.219 20.5889H152.204L151.544 18.9321H148.499L147.84 20.5889ZM148.829 18.0796H151.215L150.02 15.0693L148.829 18.0796ZM154.023 20.5889V13.9971H156.009C156.812 13.9971 157.505 14.1304 158.088 14.397C158.671 14.6606 159.119 15.0386 159.433 15.5308C159.746 16.0229 159.903 16.6104 159.903 17.293C159.903 17.9727 159.746 18.5601 159.433 19.0552C159.119 19.5474 158.671 19.9268 158.088 20.1934C157.505 20.457 156.812 20.5889 156.009 20.5889H154.023ZM154.99 19.7363H156.049C156.655 19.7363 157.172 19.6411 157.6 19.4507C158.028 19.2573 158.353 18.979 158.576 18.6157C158.801 18.2495 158.914 17.8086 158.914 17.293C158.914 16.7744 158.801 16.3335 158.576 15.9702C158.353 15.6069 158.028 15.3301 157.6 15.1396C157.172 14.9463 156.655 14.8496 156.049 14.8496H154.99V19.7363ZM163.032 20.5889V13.9971H163.999V20.5889H163.032ZM167.791 20.5889H166.824V14.8496H164.763V13.9971H169.852V14.8496H167.791V20.5889ZM175.921 20.7207C175.426 20.7207 174.967 20.6357 174.545 20.4658C174.126 20.2959 173.762 20.0571 173.451 19.7495C173.144 19.439 172.905 19.0757 172.735 18.6597C172.565 18.2407 172.48 17.7852 172.48 17.293C172.48 16.7979 172.565 16.3423 172.735 15.9263C172.905 15.5073 173.144 15.144 173.451 14.8364C173.762 14.5288 174.126 14.29 174.545 14.1201C174.967 13.9502 175.426 13.8652 175.921 13.8652C176.419 13.8652 176.876 13.9502 177.292 14.1201C177.711 14.29 178.074 14.5288 178.382 14.8364C178.692 15.144 178.933 15.5073 179.103 15.9263C179.272 16.3423 179.357 16.7979 179.357 17.293C179.357 17.7852 179.272 18.2407 179.103 18.6597C178.933 19.0757 178.692 19.439 178.382 19.7495C178.074 20.0571 177.711 20.2959 177.292 20.4658C176.876 20.6357 176.419 20.7207 175.921 20.7207ZM175.921 19.8682C176.272 19.8682 176.598 19.8037 176.896 19.6748C177.195 19.5459 177.455 19.3657 177.674 19.1343C177.894 18.8999 178.064 18.6274 178.184 18.3169C178.307 18.0034 178.369 17.6621 178.369 17.293C178.369 16.9238 178.307 16.5825 178.184 16.269C178.064 15.9556 177.894 15.6831 177.674 15.4517C177.455 15.2173 177.195 15.0371 176.896 14.9111C176.598 14.7822 176.272 14.7178 175.921 14.7178C175.569 14.7178 175.244 14.7822 174.945 14.9111C174.649 15.0371 174.39 15.2173 174.167 15.4517C173.948 15.6831 173.776 15.9556 173.653 16.269C173.53 16.5825 173.469 16.9238 173.469 17.293C173.469 17.6621 173.53 18.0034 173.653 18.3169C173.776 18.6304 173.948 18.9043 174.167 19.1387C174.39 19.3701 174.649 19.5503 174.945 19.6792C175.244 19.8052 175.569 19.8682 175.921 19.8682ZM186.165 20.5889H185.101L181.313 15.5V20.5889H180.346V13.9971H181.41L185.198 19.0903V13.9971H186.165V20.5889Z" fill="white"/>
<path d="M135.66 33.0273C132.876 33.0273 130.602 35.0929 130.602 37.9428C130.602 40.7695 132.876 42.8568 135.66 42.8568C138.45 42.8568 140.724 40.7695 140.724 37.9428C140.724 35.0929 138.45 33.0273 135.66 33.0273ZM135.66 40.9212C134.133 40.9212 132.818 39.692 132.818 37.9428C132.818 36.1704 134.133 34.9629 135.66 34.9629C137.187 34.9629 138.507 36.1704 138.507 37.9428C138.507 39.692 137.187 40.9212 135.66 40.9212ZM124.624 33.0273C121.835 33.0273 119.567 35.0929 119.567 37.9428C119.567 40.7695 121.835 42.8568 124.624 42.8568C127.413 42.8568 129.682 40.7695 129.682 37.9428C129.682 35.0929 127.413 33.0273 124.624 33.0273ZM124.624 40.9212C123.096 40.9212 121.777 39.692 121.777 37.9428C121.777 36.1704 123.096 34.9629 124.624 34.9629C126.152 34.9629 127.466 36.1704 127.466 37.9428C127.466 39.692 126.152 40.9212 124.624 40.9212ZM111.493 34.5339V36.6225H116.608C116.458 37.7896 116.058 38.6476 115.445 39.2456C114.698 39.9679 113.536 40.7695 111.493 40.7695C108.344 40.7695 105.879 38.2923 105.879 35.2229C105.879 32.1534 108.344 29.6762 111.493 29.6762C113.195 29.6762 114.433 30.3248 115.347 31.1654L116.857 29.6935C115.578 28.5033 113.878 27.589 111.493 27.589C107.176 27.589 103.547 31.0138 103.547 35.2229C103.547 39.432 107.176 42.8568 111.493 42.8568C113.826 42.8568 115.578 42.1114 116.956 40.7132C118.368 39.3366 118.808 37.4011 118.808 35.8382C118.808 35.3529 118.767 34.9065 118.693 34.5339H111.493ZM165.19 36.1531C164.774 35.0539 163.49 33.0273 160.873 33.0273C158.281 33.0273 156.122 35.0192 156.122 37.9428C156.122 40.6959 158.258 42.8568 161.122 42.8568C163.438 42.8568 164.774 41.4802 165.324 40.6785L163.605 39.562C163.032 40.3795 162.251 40.9212 161.122 40.9212C160.001 40.9212 159.196 40.42 158.681 39.432L165.423 36.7121L165.19 36.1531ZM158.316 37.7896C158.258 35.8945 159.826 34.9239 160.949 34.9239C161.829 34.9239 162.575 35.3529 162.824 35.9668L158.316 37.7896ZM152.836 42.5578H155.053V28.1133H152.836V42.5578ZM149.207 34.1222H149.133C148.635 33.5473 147.685 33.0273 146.482 33.0273C143.958 33.0273 141.65 35.1882 141.65 37.9586C141.65 40.7132 143.958 42.8568 146.482 42.8568C147.685 42.8568 148.635 42.3324 149.133 41.7402H149.207V42.4451C149.207 44.3243 148.177 45.334 146.516 45.334C145.162 45.334 144.322 44.3806 143.975 43.579L142.048 44.3633C142.604 45.6662 144.075 47.2695 146.516 47.2695C149.115 47.2695 151.307 45.7789 151.307 42.1519V33.3263H149.207V34.1222ZM146.672 40.9212C145.144 40.9212 143.866 39.6746 143.866 37.9586C143.866 36.2268 145.144 34.9629 146.672 34.9629C148.177 34.9629 149.364 36.2268 149.364 37.9586C149.364 39.6746 148.177 40.9212 146.672 40.9212ZM175.567 28.1133H170.266V42.5578H172.476V37.0848H175.567C178.021 37.0848 180.429 35.3529 180.429 32.5983C180.429 29.8452 178.015 28.1133 175.567 28.1133ZM175.624 35.0755H172.476V30.1225H175.624C177.275 30.1225 178.217 31.4586 178.217 32.5983C178.217 33.7163 177.275 35.0755 175.624 35.0755ZM189.288 32.9999C187.691 32.9999 186.03 33.6874 185.347 35.2113L187.309 36.013C187.731 35.2113 188.507 34.9513 189.328 34.9513C190.475 34.9513 191.638 35.623 191.655 36.8089V36.9605C191.255 36.7352 190.399 36.4015 189.346 36.4015C187.233 36.4015 185.081 37.5354 185.081 39.6515C185.081 41.5871 186.811 42.8336 188.756 42.8336C190.244 42.8336 191.064 42.1793 191.58 41.4181H191.655V42.5346H193.79V36.9938C193.79 34.4328 191.829 32.9999 189.288 32.9999ZM189.021 40.9154C188.298 40.9154 187.291 40.5659 187.291 39.692C187.291 38.574 188.547 38.145 189.635 38.145C190.608 38.145 191.064 38.3544 191.655 38.6303C191.482 39.9679 190.301 40.9154 189.021 40.9154ZM201.568 33.3162L199.027 39.5779H198.952L196.325 33.3162H193.941L197.888 42.0666L195.636 46.9359H197.946L204.027 33.3162H201.568ZM181.644 42.5578H183.86V28.1133H181.644V42.5578Z" fill="white"/>
</g>
<defs>
<filter id="filter0_d_1128_3187" x="7.05719e-05" y="0.000139236" width="262.429" height="93.4286" filterUnits="userSpaceOnUse" color-interpolation-filters="sRGB">
<feFlood flood-opacity="0" result="BackgroundImageFix"/>
<feColorMatrix in="SourceAlpha" type="matrix" values="0 0 0 0 0 0 0 0 0 0 0 0 0 0 0 0 0 0 127 0" result="hardAlpha"/>
<feOffset dy="16.2857"/>
<feGaussianBlur stdDeviation="10.8571"/>
<feComposite in2="hardAlpha" operator="out"/>
<feColorMatrix type="matrix" values="0 0 0 0 0.294118 0 0 0 0 0.0862745 0 0 0 0 0.298039 0 0 0 0.36 0"/>
<feBlend mode="normal" in2="BackgroundImageFix" result="effect1_dropShadow_1128_3187"/>
<feBlend mode="normal" in="SourceGraphic" in2="effect1_dropShadow_1128_3187" result="shape"/>
</filter>
<linearGradient id="paint0_linear_1128_3187" x1="47.8307" y1="1.49515" x2="71.9821" y2="100.287" gradientUnits="userSpaceOnUse">
<stop stop-color="white" stop-opacity="0.3"/>
<stop offset="1" stop-color="white" stop-opacity="0.2"/>
</linearGradient>
</defs>
</svg>
