<svg width="132" height="134" viewBox="0 0 132 134" fill="none" xmlns="http://www.w3.org/2000/svg">
<path d="M57.3933 88.8234C57.5523 90.6213 54.2231 91.6058 52.4974 88.8234C50.6322 86.3655 52.0036 80.6579 57.3933 79.0101C62.4696 77.0593 70.5021 80.804 72.0808 88.8234C74.0923 96.5343 68.0183 106.937 57.3933 108.451C47.0984 110.535 34.3411 102.095 32.914 88.8234C30.7509 75.8755 41.5497 60.7472 57.3933 59.3822C72.9296 57.1486 90.3714 70.3113 91.6643 88.8234C93.9649 107.012 78.4783 126.864 57.3933 128.078C36.6196 130.462 14.4778 112.573 13.3308 88.8234C10.8875 65.3828 31.0709 40.8328 57.3933 39.7549C83.3835 37.2376 110.253 59.8213 111.248 88.8234C113.84 117.502 88.9416 146.778 57.3933 147.706C26.1623 150.373 -5.39474 123.066 -6.25267 88.8234C-8.97884 54.9056 20.6049 20.9094 57.3933 20.1275C93.8529 17.3111 130.123 49.3443 130.831 88.8234C133.709 127.994 99.4076 166.688 57.3933 167.333C15.7087 170.287 -25.2766 133.555 -25.8361 88.8234C-28.8513 44.4156 10.1445 0.995343 57.3933 0.5" stroke="#005DE9" stroke-linecap="round"/>
</svg>
