<svg width="251" height="433" viewBox="0 0 251 433" fill="none" xmlns="http://www.w3.org/2000/svg">
<path d="M251 10H106C52.9807 10 10 52.9807 10 106V251H155C208.019 251 251 208.019 251 155V10Z" fill="#E7C9E7"/>
<path d="M96 1C43.533 1 1 43.533 1 96V240H145C197.467 240 240 197.467 240 145V1H96Z" stroke="#4B164C" stroke-width="2"/>
<rect x="119" y="241" width="2" height="192" fill="#4B164C"/>
<path d="M80.0625 124.469L82.3438 120.797C83.0625 121.38 83.7552 121.859 84.4219 122.234C85.099 122.599 85.7656 122.87 86.4219 123.047C87.0781 123.214 87.75 123.297 88.4375 123.297C89.25 123.297 89.9531 123.182 90.5469 122.953C91.1406 122.724 91.599 122.396 91.9219 121.969C92.2552 121.542 92.4219 121.047 92.4219 120.484C92.4219 119.828 92.2135 119.276 91.7969 118.828C91.3802 118.38 90.8333 117.99 90.1562 117.656C89.4896 117.312 88.7656 116.984 87.9844 116.672C87.224 116.359 86.4583 116.021 85.6875 115.656C84.9271 115.281 84.224 114.839 83.5781 114.328C82.9427 113.818 82.4271 113.198 82.0312 112.469C81.6458 111.729 81.4531 110.833 81.4531 109.781C81.4531 108.406 81.7969 107.219 82.4844 106.219C83.1823 105.219 84.1354 104.448 85.3438 103.906C86.5521 103.365 87.9323 103.094 89.4844 103.094C90.5781 103.094 91.7135 103.24 92.8906 103.531C94.0781 103.823 95.2604 104.266 96.4375 104.859L94.5469 108.75C93.8073 108.302 93.0104 107.948 92.1562 107.688C91.3021 107.427 90.5 107.297 89.75 107.297C89.0729 107.297 88.4792 107.401 87.9688 107.609C87.4688 107.818 87.0781 108.109 86.7969 108.484C86.5156 108.849 86.375 109.281 86.375 109.781C86.375 110.375 86.5781 110.891 86.9844 111.328C87.3906 111.755 87.9167 112.135 88.5625 112.469C89.2188 112.802 89.9219 113.135 90.6719 113.469C91.4427 113.802 92.2188 114.167 93 114.562C93.7917 114.958 94.5104 115.427 95.1562 115.969C95.8125 116.5 96.3385 117.141 96.7344 117.891C97.1406 118.63 97.3438 119.521 97.3438 120.562C97.3438 121.938 96.9792 123.146 96.25 124.188C95.5208 125.219 94.5052 126.026 93.2031 126.609C91.901 127.182 90.3854 127.469 88.6562 127.469C87.0729 127.469 85.5573 127.214 84.1094 126.703C82.6615 126.193 81.3125 125.448 80.0625 124.469ZM110.359 126.594C109.161 127.073 108 127.312 106.875 127.312C105.708 127.312 104.677 127.068 103.781 126.578C102.896 126.078 102.203 125.385 101.703 124.5C101.203 123.604 100.953 122.573 100.953 121.406V115.375H98.2188V111.375H101.188V107.469H105.438V111.375H109.766V115.375H105.438V120.594C105.438 121.448 105.672 122.115 106.141 122.594C106.609 123.062 107.193 123.297 107.891 123.297C108.526 123.297 109.146 123.099 109.75 122.703L110.359 126.594ZM127.359 125.25C125.422 126.625 123.302 127.312 121 127.312C119.292 127.312 117.755 126.948 116.391 126.219C115.036 125.479 113.964 124.479 113.172 123.219C112.391 121.958 112 120.536 112 118.953C112 117.443 112.354 116.094 113.062 114.906C113.781 113.719 114.755 112.781 115.984 112.094C117.214 111.406 118.609 111.062 120.172 111.062C121.786 111.062 123.208 111.443 124.438 112.203C125.667 112.953 126.625 114.005 127.312 115.359C128 116.703 128.344 118.26 128.344 120.031V120.531H116.828C117.016 121.146 117.318 121.688 117.734 122.156C118.161 122.615 118.693 122.979 119.328 123.25C119.974 123.521 120.708 123.656 121.531 123.656C123.125 123.656 124.609 123.141 125.984 122.109L127.359 125.25ZM116.625 118.25H124.203C124.12 117.573 123.906 116.979 123.562 116.469C123.229 115.948 122.786 115.542 122.234 115.25C121.693 114.958 121.083 114.812 120.406 114.812C119.719 114.812 119.104 114.964 118.562 115.266C118.031 115.568 117.599 115.974 117.266 116.484C116.932 116.995 116.719 117.583 116.625 118.25ZM135.688 134.812H131.188V111.375H135.125L135.359 113.5C136.026 112.74 136.823 112.146 137.75 111.719C138.688 111.281 139.708 111.062 140.812 111.062C142.25 111.062 143.526 111.417 144.641 112.125C145.755 112.823 146.635 113.786 147.281 115.016C147.927 116.234 148.25 117.625 148.25 119.188C148.25 120.74 147.927 122.13 147.281 123.359C146.635 124.589 145.755 125.557 144.641 126.266C143.526 126.964 142.25 127.312 140.812 127.312C139.792 127.312 138.844 127.13 137.969 126.766C137.104 126.391 136.344 125.875 135.688 125.219V134.812ZM139.672 123.281C140.453 123.281 141.141 123.109 141.734 122.766C142.328 122.411 142.792 121.927 143.125 121.312C143.469 120.688 143.641 119.979 143.641 119.188C143.641 118.385 143.469 117.677 143.125 117.062C142.792 116.448 142.328 115.964 141.734 115.609C141.141 115.255 140.458 115.078 139.688 115.078C138.958 115.078 138.302 115.24 137.719 115.562C137.135 115.875 136.661 116.312 136.297 116.875C135.943 117.438 135.74 118.083 135.688 118.812V119.594C135.74 120.302 135.943 120.938 136.297 121.5C136.651 122.052 137.12 122.49 137.703 122.812C138.286 123.125 138.943 123.281 139.672 123.281ZM157.812 124.969L159.656 121.406C160.49 122.021 161.307 122.484 162.109 122.797C162.922 123.109 163.708 123.266 164.469 123.266C165.208 123.266 165.859 123.125 166.422 122.844C166.995 122.562 167.443 122.172 167.766 121.672C168.089 121.172 168.25 120.599 168.25 119.953C168.25 118.88 167.807 118.047 166.922 117.453C166.036 116.849 164.802 116.547 163.219 116.547H162.219V113.203H163.219C164.073 113.203 164.833 113.068 165.5 112.797C166.177 112.516 166.708 112.135 167.094 111.656C167.479 111.167 167.672 110.609 167.672 109.984C167.672 109.464 167.531 109 167.25 108.594C166.979 108.188 166.604 107.87 166.125 107.641C165.656 107.411 165.115 107.297 164.5 107.297C163.865 107.297 163.198 107.432 162.5 107.703C161.812 107.974 161.089 108.385 160.328 108.938L158.219 105.594C159.135 104.792 160.172 104.177 161.328 103.75C162.484 103.312 163.693 103.094 164.953 103.094C166.359 103.094 167.604 103.349 168.688 103.859C169.781 104.37 170.641 105.073 171.266 105.969C171.901 106.865 172.219 107.896 172.219 109.062C172.219 110.333 171.849 111.469 171.109 112.469C170.37 113.469 169.396 114.234 168.188 114.766C169.76 115.203 170.995 115.932 171.891 116.953C172.797 117.974 173.25 119.214 173.25 120.672C173.25 121.974 172.885 123.141 172.156 124.172C171.438 125.193 170.453 126 169.203 126.594C167.953 127.177 166.531 127.469 164.938 127.469C163.625 127.469 162.359 127.255 161.141 126.828C159.922 126.391 158.812 125.771 157.812 124.969Z" fill="#4B164C"/>
<path d="M150.626 69.209V70.4223C150.382 71.2905 149.968 71.9673 149.297 72.6364L141.023 80.8902C138.676 83.2316 134.893 83.1984 132.551 80.8582L117.384 65.702C114.95 63.27 114.269 59.6612 115.736 56.5214C117.087 53.6282 120.144 51.7127 123.475 51.9106C123.985 51.9405 124.282 52.3851 124.238 52.8164C124.197 53.2201 123.845 53.5762 123.372 53.553C120.681 53.4203 118.255 54.9697 117.206 57.3C116.083 59.7917 116.63 62.6075 118.554 64.5297L133.725 79.6925C135.456 81.4222 138.192 81.3901 139.908 79.6748L146.237 73.3453C145.461 73.0788 144.918 72.7791 144.374 72.2339L127.568 55.432C126.696 54.5594 125.592 54.2796 126.13 53.3639C126.732 52.3386 128.127 53.6481 128.736 54.2575L140.987 66.5027C145.111 62.0645 147.979 57.8928 147.874 51.6607C147.82 48.4523 146.996 45.3711 145.266 42.6913C140.933 35.9781 132.261 34.9717 126.083 39.6897C124.768 40.6939 123.772 41.8994 122.969 43.3228C122.721 43.7619 122.248 44.0174 121.778 44.0019C121.352 43.9886 120.902 43.732 120.674 43.3195C118.465 39.3436 114.162 37.0299 109.685 36.7843C107.771 36.6793 105.979 37.031 104.23 37.7311C103.754 37.9224 103.257 37.6769 103.113 37.2179C102.999 36.8529 103.166 36.3807 103.603 36.2026C105.738 35.3333 107.983 34.9484 110.291 35.1608C114.914 35.5866 119.284 37.9357 121.825 41.9791C124.306 37.9788 128.749 35.5678 133.338 35.1641C138.651 34.6974 143.687 37.2356 146.598 41.7004C150.786 48.1238 150.493 57.1817 145.701 63.3883L149.307 66.9905C149.968 67.6496 150.385 68.3464 150.626 69.2079V69.209ZM145.758 71.2518C146.563 72.0525 147.833 71.8213 148.478 71.0925C149.123 70.3637 149.15 69.1913 148.404 68.4437L144.714 64.7542L142.173 67.6861L145.757 71.2518H145.758Z" fill="#4B164C" stroke="#4B164C"/>
<path d="M122.368 82.9999H121.264C120.217 82.8041 119.26 82.4657 118.349 81.8176C111.347 76.8396 102.008 69.5546 97.255 62.4123C95.4235 59.6607 94.3928 56.5949 94.1517 53.2925C93.7402 47.6477 95.8383 41.5549 100.442 38.0269C100.831 37.7294 101.357 37.8322 101.607 38.1718C101.857 38.5113 101.84 39.0167 101.488 39.2954C99.5676 40.8117 98.1022 42.7096 97.1466 45.0055C95.23 49.6108 95.2974 54.863 97.4353 59.3787C99.3917 63.5117 103.917 67.9621 107.32 71.0189C111.105 74.4198 115.091 77.4446 119.216 80.4108C120.694 81.4736 122.565 81.7081 124.097 80.6198L126.91 78.6213C127.322 78.3294 127.866 78.4665 128.101 78.8691C128.304 79.2164 128.224 79.7151 127.848 79.985L125.089 81.9625C124.258 82.5575 123.316 82.7831 122.369 82.9999H122.368Z" fill="#4B164C" stroke="#4B164C"/>
<path d="M137.399 77.0086C136.396 78.0095 134.829 78.0139 133.85 77.0362L129.823 73.0127C128.844 72.0339 128.843 70.459 129.821 69.4814L132.577 66.7286C133.552 65.7554 135.125 65.7664 136.098 66.7375L140.075 70.7057C141.104 71.7331 141.108 73.3102 140.078 74.3365L137.4 77.0075L137.399 77.0086ZM136.294 75.7843L138.906 73.1642C139.282 72.7871 139.275 72.2507 138.9 71.8758L134.928 67.9087C134.613 67.5957 134.068 67.5791 133.752 67.8943L130.987 70.657C130.671 70.9722 130.673 71.5219 130.993 71.8415L134.961 75.813C135.343 76.1968 135.886 76.1924 136.294 75.7831V75.7843Z" fill="#4B164C" stroke="#4B164C"/>
<path d="M132.331 64.3369C132.022 64.9198 131.364 64.8866 130.98 64.5194C130.597 64.1522 130.519 63.5406 131.027 63.1768C131.335 62.9556 131.778 63.0208 132.04 63.231C132.347 63.4765 132.551 63.9189 132.33 64.3369H132.331Z" fill="#4B164C" stroke="#4B164C"/>
<path d="M127.541 67.8354C127.942 68.1971 127.96 68.7246 127.673 69.0553C127.333 69.4479 126.763 69.4225 126.395 69.0442C126.06 68.7003 126.013 68.1904 126.34 67.8432C126.634 67.5302 127.146 67.4793 127.542 67.8354H127.541Z" fill="#4B164C" stroke="#4B164C"/>
<path d="M128.177 62.6175C127.823 63.1063 127.243 63.0289 126.909 62.7225C126.523 62.3697 126.428 61.8167 126.846 61.4286C127.173 61.1244 127.651 61.1687 127.984 61.4474C128.279 61.6951 128.485 62.1928 128.178 62.6175H128.177Z" fill="#4B164C" stroke="#4B164C"/>
<path d="M125.758 63.7759C126.149 64.1563 126.134 64.7215 125.775 65.0422C125.415 65.3629 124.894 65.2999 124.55 64.9206C124.233 64.5711 124.217 64.0933 124.499 63.7726C124.823 63.4054 125.363 63.391 125.758 63.7759Z" fill="#4B164C" stroke="#4B164C"/>
<path d="M129.987 66.7246C129.633 67.2002 129.065 67.1128 128.746 66.8341C128.346 66.4846 128.253 65.9217 128.645 65.5435C128.98 65.2194 129.46 65.2493 129.809 65.5523C130.094 65.7989 130.311 66.2878 129.987 66.7246Z" fill="#4B164C" stroke="#4B164C"/>
<path d="M145.758 71.2495L142.174 67.6839L144.715 64.752L148.405 68.4415C149.152 69.1891 149.144 70.3393 148.479 71.0902C147.814 71.8412 146.565 72.0502 145.759 71.2495H145.758Z" stroke="#4B164C"/>
<path d="M136.294 75.7842C135.886 76.1934 135.344 76.1979 134.961 75.8141L130.992 71.8426C130.673 71.5229 130.671 70.9733 130.987 70.6581L133.752 67.8954C134.068 67.5791 134.613 67.5957 134.927 67.9097L138.9 71.8768C139.275 72.2507 139.282 72.7882 138.906 73.1653L136.294 75.7853V75.7842Z" stroke="#4B164C"/>
<path d="M47.3203 164H45.9453V153.5H42.1797V152.281H51.0859V153.5H47.3203V164ZM57.9375 164H56.8359L56.75 162.969C56.4635 163.339 56.099 163.63 55.6562 163.844C55.2135 164.052 54.7188 164.156 54.1719 164.156C53.6094 164.156 53.1068 164.047 52.6641 163.828C52.2214 163.604 51.8724 163.299 51.6172 162.914C51.3672 162.529 51.2422 162.091 51.2422 161.602C51.2422 161.086 51.3776 160.633 51.6484 160.242C51.9245 159.846 52.2969 159.536 52.7656 159.312C53.2396 159.089 53.776 158.977 54.375 158.977C54.7656 158.977 55.1641 159.026 55.5703 159.125C55.9766 159.219 56.3385 159.349 56.6562 159.516V159.188C56.6562 158.771 56.5521 158.417 56.3438 158.125C56.1354 157.828 55.8568 157.602 55.5078 157.445C55.1589 157.284 54.7734 157.203 54.3516 157.203C53.987 157.203 53.6146 157.271 53.2344 157.406C52.8542 157.536 52.4896 157.74 52.1406 158.016L51.7188 156.914C52.1719 156.622 52.6484 156.404 53.1484 156.258C53.6484 156.107 54.1432 156.031 54.6328 156.031C55.3099 156.031 55.8932 156.169 56.3828 156.445C56.8776 156.716 57.2604 157.104 57.5312 157.609C57.8021 158.109 57.9375 158.703 57.9375 159.391V164ZM54.3984 162.984C54.7995 162.984 55.1667 162.901 55.5 162.734C55.8333 162.568 56.1042 162.328 56.3125 162.016C56.5208 161.698 56.6354 161.323 56.6562 160.891V160.758C56.3698 160.534 56.0469 160.362 55.6875 160.242C55.3333 160.117 54.9714 160.055 54.6016 160.055C54.0234 160.055 53.5391 160.195 53.1484 160.477C52.763 160.758 52.5703 161.115 52.5703 161.547C52.5703 161.818 52.6484 162.062 52.8047 162.281C52.9661 162.5 53.1849 162.672 53.4609 162.797C53.737 162.922 54.0495 162.984 54.3984 162.984ZM61.5703 164H60.2109V152.281H61.5703V164ZM65.2734 164H63.9922V152.281H65.2734V160.531L65.8828 159.789L69.2812 156.188H70.8906L67.7031 159.578L71.3828 164H69.7188L66.8125 160.516L65.2734 162.156V164ZM78.7188 164H77.4375V157.336H76.0703V156.188H77.4375V154.508C77.4375 154.023 77.5391 153.596 77.7422 153.227C77.9505 152.857 78.237 152.568 78.6016 152.359C78.9714 152.151 79.3958 152.047 79.875 152.047C80.1719 152.047 80.4688 152.089 80.7656 152.172C81.0677 152.25 81.362 152.372 81.6484 152.539L81.1562 153.547C80.9792 153.432 80.7995 153.346 80.6172 153.289C80.4349 153.227 80.2526 153.195 80.0703 153.195C79.6693 153.195 79.3438 153.341 79.0938 153.633C78.8438 153.919 78.7188 154.294 78.7188 154.758V156.188H81.1328V157.336H78.7188V164ZM84.0234 164H82.7422V156.188H83.8672L83.9219 157.734C84.1927 157.198 84.5729 156.781 85.0625 156.484C85.5573 156.182 86.125 156.031 86.7656 156.031C86.9062 156.031 87.0495 156.039 87.1953 156.055C87.3411 156.07 87.487 156.094 87.6328 156.125L87.4766 157.281C87.1901 157.214 86.9062 157.18 86.625 157.18C86.1146 157.18 85.6615 157.305 85.2656 157.555C84.875 157.805 84.5703 158.148 84.3516 158.586C84.1328 159.023 84.0234 159.526 84.0234 160.094V164ZM95.8125 163.039C94.8438 163.784 93.776 164.156 92.6094 164.156C91.7969 164.156 91.0677 163.974 90.4219 163.609C89.776 163.245 89.2656 162.75 88.8906 162.125C88.5208 161.495 88.3359 160.784 88.3359 159.992C88.3359 159.232 88.5078 158.555 88.8516 157.961C89.1953 157.362 89.6667 156.891 90.2656 156.547C90.8646 156.203 91.5443 156.031 92.3047 156.031C93.0859 156.031 93.7734 156.219 94.3672 156.594C94.9661 156.969 95.4323 157.49 95.7656 158.156C96.099 158.823 96.2656 159.594 96.2656 160.469V160.719H89.7266C89.8203 161.177 90.0078 161.576 90.2891 161.914C90.5703 162.253 90.9219 162.516 91.3438 162.703C91.7708 162.891 92.2448 162.984 92.7656 162.984C93.6615 162.984 94.4792 162.69 95.2188 162.102L95.8125 163.039ZM89.6797 159.625H95.0547C94.9974 159.141 94.8464 158.719 94.6016 158.359C94.362 157.995 94.0495 157.711 93.6641 157.508C93.2839 157.305 92.8542 157.203 92.375 157.203C91.8906 157.203 91.4531 157.305 91.0625 157.508C90.6771 157.711 90.362 157.995 90.1172 158.359C89.8776 158.719 89.7318 159.141 89.6797 159.625ZM104.922 163.039C103.953 163.784 102.885 164.156 101.719 164.156C100.906 164.156 100.177 163.974 99.5312 163.609C98.8854 163.245 98.375 162.75 98 162.125C97.6302 161.495 97.4453 160.784 97.4453 159.992C97.4453 159.232 97.6172 158.555 97.9609 157.961C98.3047 157.362 98.776 156.891 99.375 156.547C99.974 156.203 100.654 156.031 101.414 156.031C102.195 156.031 102.883 156.219 103.477 156.594C104.076 156.969 104.542 157.49 104.875 158.156C105.208 158.823 105.375 159.594 105.375 160.469V160.719H98.8359C98.9297 161.177 99.1172 161.576 99.3984 161.914C99.6797 162.253 100.031 162.516 100.453 162.703C100.88 162.891 101.354 162.984 101.875 162.984C102.771 162.984 103.589 162.69 104.328 162.102L104.922 163.039ZM98.7891 159.625H104.164C104.107 159.141 103.956 158.719 103.711 158.359C103.471 157.995 103.159 157.711 102.773 157.508C102.393 157.305 101.964 157.203 101.484 157.203C101 157.203 100.562 157.305 100.172 157.508C99.7865 157.711 99.4714 157.995 99.2266 158.359C98.987 158.719 98.8411 159.141 98.7891 159.625ZM108.539 164H107.18V152.281H108.539V164ZM113.438 167.906H112.039L113.68 163.938L109.945 156.188H111.359L114.297 162.461L116.891 156.188H118.281L113.438 167.906ZM120.055 164.156C119.826 164.156 119.638 164.086 119.492 163.945C119.352 163.799 119.281 163.612 119.281 163.383C119.281 163.148 119.352 162.958 119.492 162.812C119.638 162.667 119.826 162.594 120.055 162.594C120.284 162.594 120.471 162.667 120.617 162.812C120.768 162.958 120.844 163.148 120.844 163.383C120.844 163.612 120.768 163.799 120.617 163.945C120.471 164.086 120.284 164.156 120.055 164.156ZM126.992 164V152.281H134.055V153.5H128.367V157.438H133.734V158.656H128.367V164H126.992ZM143.25 163.039C142.281 163.784 141.214 164.156 140.047 164.156C139.234 164.156 138.505 163.974 137.859 163.609C137.214 163.245 136.703 162.75 136.328 162.125C135.958 161.495 135.773 160.784 135.773 159.992C135.773 159.232 135.945 158.555 136.289 157.961C136.633 157.362 137.104 156.891 137.703 156.547C138.302 156.203 138.982 156.031 139.742 156.031C140.523 156.031 141.211 156.219 141.805 156.594C142.404 156.969 142.87 157.49 143.203 158.156C143.536 158.823 143.703 159.594 143.703 160.469V160.719H137.164C137.258 161.177 137.445 161.576 137.727 161.914C138.008 162.253 138.359 162.516 138.781 162.703C139.208 162.891 139.682 162.984 140.203 162.984C141.099 162.984 141.917 162.69 142.656 162.102L143.25 163.039ZM137.117 159.625H142.492C142.435 159.141 142.284 158.719 142.039 158.359C141.799 157.995 141.487 157.711 141.102 157.508C140.721 157.305 140.292 157.203 139.812 157.203C139.328 157.203 138.891 157.305 138.5 157.508C138.115 157.711 137.799 157.995 137.555 158.359C137.315 158.719 137.169 159.141 137.117 159.625ZM152.359 163.039C151.391 163.784 150.323 164.156 149.156 164.156C148.344 164.156 147.615 163.974 146.969 163.609C146.323 163.245 145.812 162.75 145.438 162.125C145.068 161.495 144.883 160.784 144.883 159.992C144.883 159.232 145.055 158.555 145.398 157.961C145.742 157.362 146.214 156.891 146.812 156.547C147.411 156.203 148.091 156.031 148.852 156.031C149.633 156.031 150.32 156.219 150.914 156.594C151.513 156.969 151.979 157.49 152.312 158.156C152.646 158.823 152.812 159.594 152.812 160.469V160.719H146.273C146.367 161.177 146.555 161.576 146.836 161.914C147.117 162.253 147.469 162.516 147.891 162.703C148.318 162.891 148.792 162.984 149.312 162.984C150.208 162.984 151.026 162.69 151.766 162.102L152.359 163.039ZM146.227 159.625H151.602C151.544 159.141 151.393 158.719 151.148 158.359C150.909 157.995 150.596 157.711 150.211 157.508C149.831 157.305 149.401 157.203 148.922 157.203C148.438 157.203 148 157.305 147.609 157.508C147.224 157.711 146.909 157.995 146.664 158.359C146.424 158.719 146.279 159.141 146.227 159.625ZM155.977 164H154.617V152.281H155.977V164ZM163.664 164H162.305V152.281H163.664V164ZM166.758 153.719C166.539 153.719 166.354 153.643 166.203 153.492C166.057 153.336 165.984 153.148 165.984 152.93C165.984 152.716 166.057 152.534 166.203 152.383C166.354 152.232 166.539 152.156 166.758 152.156C166.982 152.156 167.169 152.232 167.32 152.383C167.471 152.534 167.547 152.716 167.547 152.93C167.547 153.148 167.471 153.336 167.32 153.492C167.169 153.643 166.982 153.719 166.758 153.719ZM167.398 164H166.117V156.188H167.398V164ZM173.188 164C172.438 164 171.763 163.826 171.164 163.477C170.57 163.128 170.102 162.654 169.758 162.055C169.414 161.451 169.242 160.771 169.242 160.016C169.242 159.255 169.414 158.576 169.758 157.977C170.102 157.378 170.57 156.904 171.164 156.555C171.763 156.206 172.44 156.031 173.195 156.031C173.799 156.031 174.354 156.146 174.859 156.375C175.365 156.599 175.794 156.911 176.148 157.312L176.211 156.188H177.344V163.797C177.344 164.672 177.172 165.427 176.828 166.062C176.484 166.703 175.995 167.195 175.359 167.539C174.724 167.888 173.969 168.062 173.094 168.062C171.854 168.062 170.776 167.651 169.859 166.828L170.422 165.797C171.135 166.536 172.008 166.906 173.039 166.906C173.659 166.906 174.193 166.776 174.641 166.516C175.094 166.26 175.443 165.898 175.688 165.43C175.938 164.961 176.062 164.406 176.062 163.766V162.805C175.708 163.174 175.284 163.466 174.789 163.68C174.299 163.893 173.766 164 173.188 164ZM173.297 162.867C173.807 162.867 174.271 162.753 174.688 162.523C175.104 162.289 175.438 161.971 175.688 161.57C175.938 161.164 176.062 160.706 176.062 160.195V159.836C176.062 159.32 175.938 158.862 175.688 158.461C175.438 158.06 175.104 157.745 174.688 157.516C174.271 157.281 173.807 157.164 173.297 157.164C172.771 157.164 172.299 157.289 171.883 157.539C171.466 157.789 171.135 158.13 170.891 158.562C170.651 158.99 170.531 159.474 170.531 160.016C170.531 160.557 170.651 161.044 170.891 161.477C171.135 161.909 171.466 162.25 171.883 162.5C172.299 162.745 172.771 162.867 173.297 162.867ZM179.695 164V152.281H180.977V157.359C181.565 156.474 182.477 156.031 183.711 156.031C184.747 156.031 185.555 156.341 186.133 156.961C186.716 157.576 187.008 158.435 187.008 159.539V164H185.727V159.836C185.727 158.997 185.518 158.346 185.102 157.883C184.69 157.414 184.115 157.18 183.375 157.18C182.63 157.18 182.044 157.417 181.617 157.891C181.19 158.365 180.977 159.013 180.977 159.836V164H179.695ZM193.57 163.812C193.055 164.042 192.552 164.156 192.062 164.156C191.594 164.156 191.182 164.055 190.828 163.852C190.474 163.643 190.198 163.354 190 162.984C189.802 162.609 189.703 162.174 189.703 161.68V157.336H188.336V156.188H189.766V154.234H190.984V156.188H193.32V157.336H190.984V161.445C190.984 161.914 191.109 162.292 191.359 162.578C191.615 162.865 191.948 163.008 192.359 163.008C192.693 163.008 193.026 162.909 193.359 162.711L193.57 163.812ZM202.141 163.039C201.172 163.784 200.104 164.156 198.938 164.156C198.125 164.156 197.396 163.974 196.75 163.609C196.104 163.245 195.594 162.75 195.219 162.125C194.849 161.495 194.664 160.784 194.664 159.992C194.664 159.232 194.836 158.555 195.18 157.961C195.523 157.362 195.995 156.891 196.594 156.547C197.193 156.203 197.872 156.031 198.633 156.031C199.414 156.031 200.102 156.219 200.695 156.594C201.294 156.969 201.76 157.49 202.094 158.156C202.427 158.823 202.594 159.594 202.594 160.469V160.719H196.055C196.148 161.177 196.336 161.576 196.617 161.914C196.898 162.253 197.25 162.516 197.672 162.703C198.099 162.891 198.573 162.984 199.094 162.984C199.99 162.984 200.807 162.69 201.547 162.102L202.141 163.039ZM196.008 159.625H201.383C201.326 159.141 201.174 158.719 200.93 158.359C200.69 157.995 200.378 157.711 199.992 157.508C199.612 157.305 199.182 157.203 198.703 157.203C198.219 157.203 197.781 157.305 197.391 157.508C197.005 157.711 196.69 157.995 196.445 158.359C196.206 158.719 196.06 159.141 196.008 159.625ZM205.68 164H204.398V156.188H205.523L205.578 157.734C205.849 157.198 206.229 156.781 206.719 156.484C207.214 156.182 207.781 156.031 208.422 156.031C208.562 156.031 208.706 156.039 208.852 156.055C208.997 156.07 209.143 156.094 209.289 156.125L209.133 157.281C208.846 157.214 208.562 157.18 208.281 157.18C207.771 157.18 207.318 157.305 206.922 157.555C206.531 157.805 206.227 158.148 206.008 158.586C205.789 159.023 205.68 159.526 205.68 160.094V164ZM210.273 164.156C210.044 164.156 209.857 164.086 209.711 163.945C209.57 163.799 209.5 163.612 209.5 163.383C209.5 163.148 209.57 162.958 209.711 162.812C209.857 162.667 210.044 162.594 210.273 162.594C210.503 162.594 210.69 162.667 210.836 162.812C210.987 162.958 211.062 163.148 211.062 163.383C211.062 163.612 210.987 163.799 210.836 163.945C210.69 164.086 210.503 164.156 210.273 164.156ZM88.1562 186H86.7812V174.281H88.1562V179.609H94.6953V174.281H96.0703V186H94.6953V180.828H88.1562V186ZM105.352 185.039C104.383 185.784 103.315 186.156 102.148 186.156C101.336 186.156 100.607 185.974 99.9609 185.609C99.3151 185.245 98.8047 184.75 98.4297 184.125C98.0599 183.495 97.875 182.784 97.875 181.992C97.875 181.232 98.0469 180.555 98.3906 179.961C98.7344 179.362 99.2057 178.891 99.8047 178.547C100.404 178.203 101.083 178.031 101.844 178.031C102.625 178.031 103.312 178.219 103.906 178.594C104.505 178.969 104.971 179.49 105.305 180.156C105.638 180.823 105.805 181.594 105.805 182.469V182.719H99.2656C99.3594 183.177 99.5469 183.576 99.8281 183.914C100.109 184.253 100.461 184.516 100.883 184.703C101.31 184.891 101.784 184.984 102.305 184.984C103.201 184.984 104.018 184.69 104.758 184.102L105.352 185.039ZM99.2188 181.625H104.594C104.536 181.141 104.385 180.719 104.141 180.359C103.901 179.995 103.589 179.711 103.203 179.508C102.823 179.305 102.393 179.203 101.914 179.203C101.43 179.203 100.992 179.305 100.602 179.508C100.216 179.711 99.901 179.995 99.6562 180.359C99.4167 180.719 99.2708 181.141 99.2188 181.625ZM113.914 186H112.812L112.727 184.969C112.44 185.339 112.076 185.63 111.633 185.844C111.19 186.052 110.695 186.156 110.148 186.156C109.586 186.156 109.083 186.047 108.641 185.828C108.198 185.604 107.849 185.299 107.594 184.914C107.344 184.529 107.219 184.091 107.219 183.602C107.219 183.086 107.354 182.633 107.625 182.242C107.901 181.846 108.273 181.536 108.742 181.312C109.216 181.089 109.753 180.977 110.352 180.977C110.742 180.977 111.141 181.026 111.547 181.125C111.953 181.219 112.315 181.349 112.633 181.516V181.188C112.633 180.771 112.529 180.417 112.32 180.125C112.112 179.828 111.833 179.602 111.484 179.445C111.135 179.284 110.75 179.203 110.328 179.203C109.964 179.203 109.591 179.271 109.211 179.406C108.831 179.536 108.466 179.74 108.117 180.016L107.695 178.914C108.148 178.622 108.625 178.404 109.125 178.258C109.625 178.107 110.12 178.031 110.609 178.031C111.286 178.031 111.87 178.169 112.359 178.445C112.854 178.716 113.237 179.104 113.508 179.609C113.779 180.109 113.914 180.703 113.914 181.391V186ZM110.375 184.984C110.776 184.984 111.143 184.901 111.477 184.734C111.81 184.568 112.081 184.328 112.289 184.016C112.497 183.698 112.612 183.323 112.633 182.891V182.758C112.346 182.534 112.023 182.362 111.664 182.242C111.31 182.117 110.948 182.055 110.578 182.055C110 182.055 109.516 182.195 109.125 182.477C108.74 182.758 108.547 183.115 108.547 183.547C108.547 183.818 108.625 184.062 108.781 184.281C108.943 184.5 109.161 184.672 109.438 184.797C109.714 184.922 110.026 184.984 110.375 184.984ZM117.547 186H116.188V174.281H117.547V186ZM125.742 186H124.461V179.336H123.094V178.188H124.461V176.508C124.461 176.023 124.562 175.596 124.766 175.227C124.974 174.857 125.26 174.568 125.625 174.359C125.995 174.151 126.419 174.047 126.898 174.047C127.195 174.047 127.492 174.089 127.789 174.172C128.091 174.25 128.385 174.372 128.672 174.539L128.18 175.547C128.003 175.432 127.823 175.346 127.641 175.289C127.458 175.227 127.276 175.195 127.094 175.195C126.693 175.195 126.367 175.341 126.117 175.633C125.867 175.919 125.742 176.294 125.742 176.758V178.188H128.156V179.336H125.742V186ZM136.383 186H135.281L135.195 184.969C134.909 185.339 134.544 185.63 134.102 185.844C133.659 186.052 133.164 186.156 132.617 186.156C132.055 186.156 131.552 186.047 131.109 185.828C130.667 185.604 130.318 185.299 130.062 184.914C129.812 184.529 129.688 184.091 129.688 183.602C129.688 183.086 129.823 182.633 130.094 182.242C130.37 181.846 130.742 181.536 131.211 181.312C131.685 181.089 132.221 180.977 132.82 180.977C133.211 180.977 133.609 181.026 134.016 181.125C134.422 181.219 134.784 181.349 135.102 181.516V181.188C135.102 180.771 134.997 180.417 134.789 180.125C134.581 179.828 134.302 179.602 133.953 179.445C133.604 179.284 133.219 179.203 132.797 179.203C132.432 179.203 132.06 179.271 131.68 179.406C131.299 179.536 130.935 179.74 130.586 180.016L130.164 178.914C130.617 178.622 131.094 178.404 131.594 178.258C132.094 178.107 132.589 178.031 133.078 178.031C133.755 178.031 134.339 178.169 134.828 178.445C135.323 178.716 135.706 179.104 135.977 179.609C136.247 180.109 136.383 180.703 136.383 181.391V186ZM132.844 184.984C133.245 184.984 133.612 184.901 133.945 184.734C134.279 184.568 134.549 184.328 134.758 184.016C134.966 183.698 135.081 183.323 135.102 182.891V182.758C134.815 182.534 134.492 182.362 134.133 182.242C133.779 182.117 133.417 182.055 133.047 182.055C132.469 182.055 131.984 182.195 131.594 182.477C131.208 182.758 131.016 183.115 131.016 183.547C131.016 183.818 131.094 184.062 131.25 184.281C131.411 184.5 131.63 184.672 131.906 184.797C132.182 184.922 132.495 184.984 132.844 184.984ZM138.109 185.32L138.445 184.117C138.633 184.294 138.846 184.448 139.086 184.578C139.326 184.708 139.578 184.81 139.844 184.883C140.109 184.951 140.378 184.984 140.648 184.984C141.133 184.984 141.523 184.878 141.82 184.664C142.117 184.451 142.266 184.172 142.266 183.828C142.266 183.578 142.188 183.372 142.031 183.211C141.88 183.044 141.68 182.901 141.43 182.781C141.18 182.661 140.911 182.547 140.625 182.438C140.276 182.302 139.93 182.148 139.586 181.977C139.242 181.805 138.956 181.578 138.727 181.297C138.503 181.016 138.391 180.646 138.391 180.188C138.391 179.75 138.5 179.37 138.719 179.047C138.938 178.724 139.242 178.474 139.633 178.297C140.029 178.12 140.482 178.031 140.992 178.031C141.763 178.031 142.521 178.224 143.266 178.609L142.883 179.766C142.716 179.656 142.523 179.56 142.305 179.477C142.086 179.388 141.862 179.32 141.633 179.273C141.404 179.227 141.188 179.203 140.984 179.203C140.604 179.203 140.297 179.292 140.062 179.469C139.828 179.641 139.711 179.872 139.711 180.164C139.711 180.331 139.758 180.484 139.852 180.625C139.951 180.76 140.115 180.896 140.344 181.031C140.573 181.167 140.891 181.318 141.297 181.484C141.656 181.63 142.01 181.797 142.359 181.984C142.708 182.167 142.997 182.404 143.227 182.695C143.461 182.982 143.578 183.357 143.578 183.82C143.578 184.279 143.456 184.685 143.211 185.039C142.971 185.388 142.635 185.661 142.203 185.859C141.776 186.057 141.281 186.156 140.719 186.156C139.786 186.156 138.917 185.878 138.109 185.32ZM149.906 185.812C149.391 186.042 148.888 186.156 148.398 186.156C147.93 186.156 147.518 186.055 147.164 185.852C146.81 185.643 146.534 185.354 146.336 184.984C146.138 184.609 146.039 184.174 146.039 183.68V179.336H144.672V178.188H146.102V176.234H147.32V178.188H149.656V179.336H147.32V183.445C147.32 183.914 147.445 184.292 147.695 184.578C147.951 184.865 148.284 185.008 148.695 185.008C149.029 185.008 149.362 184.909 149.695 184.711L149.906 185.812ZM158.477 185.039C157.508 185.784 156.44 186.156 155.273 186.156C154.461 186.156 153.732 185.974 153.086 185.609C152.44 185.245 151.93 184.75 151.555 184.125C151.185 183.495 151 182.784 151 181.992C151 181.232 151.172 180.555 151.516 179.961C151.859 179.362 152.331 178.891 152.93 178.547C153.529 178.203 154.208 178.031 154.969 178.031C155.75 178.031 156.438 178.219 157.031 178.594C157.63 178.969 158.096 179.49 158.43 180.156C158.763 180.823 158.93 181.594 158.93 182.469V182.719H152.391C152.484 183.177 152.672 183.576 152.953 183.914C153.234 184.253 153.586 184.516 154.008 184.703C154.435 184.891 154.909 184.984 155.43 184.984C156.326 184.984 157.143 184.69 157.883 184.102L158.477 185.039ZM152.344 181.625H157.719C157.661 181.141 157.51 180.719 157.266 180.359C157.026 179.995 156.714 179.711 156.328 179.508C155.948 179.305 155.518 179.203 155.039 179.203C154.555 179.203 154.117 179.305 153.727 179.508C153.341 179.711 153.026 179.995 152.781 180.359C152.542 180.719 152.396 181.141 152.344 181.625ZM162.016 186H160.734V178.188H161.859L161.914 179.734C162.185 179.198 162.565 178.781 163.055 178.484C163.549 178.182 164.117 178.031 164.758 178.031C164.898 178.031 165.042 178.039 165.188 178.055C165.333 178.07 165.479 178.094 165.625 178.125L165.469 179.281C165.182 179.214 164.898 179.18 164.617 179.18C164.107 179.18 163.654 179.305 163.258 179.555C162.867 179.805 162.562 180.148 162.344 180.586C162.125 181.023 162.016 181.526 162.016 182.094V186ZM166.609 186.156C166.38 186.156 166.193 186.086 166.047 185.945C165.906 185.799 165.836 185.612 165.836 185.383C165.836 185.148 165.906 184.958 166.047 184.812C166.193 184.667 166.38 184.594 166.609 184.594C166.839 184.594 167.026 184.667 167.172 184.812C167.323 184.958 167.398 185.148 167.398 185.383C167.398 185.612 167.323 185.799 167.172 185.945C167.026 186.086 166.839 186.156 166.609 186.156Z" fill="black"/>
</svg>
