<svg width="251" height="433" viewBox="0 0 251 433" fill="none" xmlns="http://www.w3.org/2000/svg">
<path d="M251 10H106C52.9807 10 10 52.9807 10 106V251H155C208.019 251 251 208.019 251 155V10Z" fill="#E7C9E7"/>
<path d="M136.882 80.3387H134.416C134.283 80.2399 134.031 80.2668 133.755 80.2431C120.848 79.1432 109.264 70.3564 103.561 58.9078C101.631 55.0333 100.433 50.8891 100.098 46.5945C100.078 46.3486 100.073 46.1466 100.002 46.0413V43.5761C100.516 41.272 102.346 39.5082 104.826 39.5071L111.264 39.5039C111.938 39.5039 112.56 39.9389 112.775 40.5792L115.995 50.1984C116.16 50.6936 116.079 51.2264 115.799 51.6475L113.087 55.7165C115.305 60.2011 120.245 65.0629 124.74 67.2585L128.808 64.5473C129.27 64.239 129.803 64.1949 130.339 64.3743L139.881 67.5678C140.527 67.7838 140.952 68.4046 140.953 69.0792L140.964 75.405C140.968 77.9304 139.256 79.8102 136.884 80.3377L136.882 80.3387ZM125.755 70.4477C125.213 70.7667 124.645 70.7399 124.106 70.5068C118.567 68.1286 112.215 61.8908 109.838 56.347C109.569 55.7573 109.587 55.131 109.96 54.6047L112.698 50.5013L110.102 42.7178L104.825 42.7221C103.868 42.7221 103.181 43.4816 103.213 44.4451C103.268 48.7075 104.251 52.8484 106.069 56.7283C109.752 64.5849 116.229 70.9472 124.151 74.4898C127.919 76.1752 131.906 77.0743 136.013 77.1269C136.972 77.1613 137.734 76.4717 137.735 75.5168L137.739 70.2404L129.955 67.6452L125.753 70.4477H125.755Z" fill="#4B164C"/>
<path d="M137.771 54.6132L131.704 60.663C131.237 61.1292 130.49 61.1217 129.963 60.8757C129.436 60.6297 129.06 60.0969 129.059 59.4395L129.052 54.5058C123.333 53.6293 119.219 48.7021 119.415 42.966C119.603 37.4651 123.982 32.4551 129.762 32.2145C134.636 32.0126 139.557 32.0008 144.424 32.2145C150.742 32.4906 155.417 38.2578 154.843 44.3731C154.306 50.0974 149.572 54.5842 143.845 54.5993L137.77 54.6143L137.771 54.6132ZM137.139 51.4004L143.847 51.3746C148.189 51.3574 151.668 47.7074 151.668 43.3548C151.668 39.0527 148.193 35.364 143.841 35.3576L130.565 35.3371C126.098 35.3296 122.593 39.0742 122.622 43.4096C122.652 47.7976 126.212 51.3821 130.67 51.4036C131.565 51.4079 132.253 52.1244 132.263 52.9955L132.29 55.5295L135.956 51.8773C136.236 51.598 136.67 51.4025 137.139 51.4004Z" fill="#4B164C"/>
<path d="M130.237 41.8205C131.141 41.5638 131.977 42.1277 132.207 42.928C132.452 43.7809 131.941 44.6617 131.095 44.9034C130.25 45.1451 129.418 44.6746 129.143 43.8657C128.865 43.0461 129.297 42.0869 130.237 41.8205Z" fill="#4B164C"/>
<path d="M136.669 41.8205C137.574 41.5638 138.409 42.1277 138.639 42.928C138.884 43.7798 138.373 44.6617 137.527 44.9034C136.682 45.1451 135.851 44.6746 135.576 43.8657C135.297 43.0461 135.729 42.0869 136.669 41.8205Z" fill="#4B164C"/>
<path d="M143.101 41.8205C144.006 41.5638 144.841 42.1277 145.071 42.928C145.316 43.7798 144.805 44.6617 143.959 44.9034C143.114 45.1451 142.283 44.6746 142.008 43.8657C141.733 43.0569 142.161 42.0869 143.101 41.8205Z" fill="#4B164C"/>
<path d="M96 1C43.533 1 1 43.533 1 96V240H145C197.467 240 240 197.467 240 145V1H96Z" stroke="#4B164C" stroke-width="2"/>
<rect x="119" y="241" width="2" height="192" fill="#4B164C"/>
<path d="M79.6562 124.469L81.9375 120.797C82.6562 121.38 83.349 121.859 84.0156 122.234C84.6927 122.599 85.3594 122.87 86.0156 123.047C86.6719 123.214 87.3438 123.297 88.0312 123.297C88.8438 123.297 89.5469 123.182 90.1406 122.953C90.7344 122.724 91.1927 122.396 91.5156 121.969C91.849 121.542 92.0156 121.047 92.0156 120.484C92.0156 119.828 91.8073 119.276 91.3906 118.828C90.974 118.38 90.4271 117.99 89.75 117.656C89.0833 117.312 88.3594 116.984 87.5781 116.672C86.8177 116.359 86.0521 116.021 85.2812 115.656C84.5208 115.281 83.8177 114.839 83.1719 114.328C82.5365 113.818 82.0208 113.198 81.625 112.469C81.2396 111.729 81.0469 110.833 81.0469 109.781C81.0469 108.406 81.3906 107.219 82.0781 106.219C82.776 105.219 83.7292 104.448 84.9375 103.906C86.1458 103.365 87.526 103.094 89.0781 103.094C90.1719 103.094 91.3073 103.24 92.4844 103.531C93.6719 103.823 94.8542 104.266 96.0312 104.859L94.1406 108.75C93.401 108.302 92.6042 107.948 91.75 107.688C90.8958 107.427 90.0938 107.297 89.3438 107.297C88.6667 107.297 88.0729 107.401 87.5625 107.609C87.0625 107.818 86.6719 108.109 86.3906 108.484C86.1094 108.849 85.9688 109.281 85.9688 109.781C85.9688 110.375 86.1719 110.891 86.5781 111.328C86.9844 111.755 87.5104 112.135 88.1562 112.469C88.8125 112.802 89.5156 113.135 90.2656 113.469C91.0365 113.802 91.8125 114.167 92.5938 114.562C93.3854 114.958 94.1042 115.427 94.75 115.969C95.4062 116.5 95.9323 117.141 96.3281 117.891C96.7344 118.63 96.9375 119.521 96.9375 120.562C96.9375 121.938 96.5729 123.146 95.8438 124.188C95.1146 125.219 94.099 126.026 92.7969 126.609C91.4948 127.182 89.9792 127.469 88.25 127.469C86.6667 127.469 85.151 127.214 83.7031 126.703C82.2552 126.193 80.9062 125.448 79.6562 124.469ZM109.953 126.594C108.755 127.073 107.594 127.312 106.469 127.312C105.302 127.312 104.271 127.068 103.375 126.578C102.49 126.078 101.797 125.385 101.297 124.5C100.797 123.604 100.547 122.573 100.547 121.406V115.375H97.8125V111.375H100.781V107.469H105.031V111.375H109.359V115.375H105.031V120.594C105.031 121.448 105.266 122.115 105.734 122.594C106.203 123.062 106.786 123.297 107.484 123.297C108.12 123.297 108.74 123.099 109.344 122.703L109.953 126.594ZM126.953 125.25C125.016 126.625 122.896 127.312 120.594 127.312C118.885 127.312 117.349 126.948 115.984 126.219C114.63 125.479 113.557 124.479 112.766 123.219C111.984 121.958 111.594 120.536 111.594 118.953C111.594 117.443 111.948 116.094 112.656 114.906C113.375 113.719 114.349 112.781 115.578 112.094C116.807 111.406 118.203 111.062 119.766 111.062C121.38 111.062 122.802 111.443 124.031 112.203C125.26 112.953 126.219 114.005 126.906 115.359C127.594 116.703 127.938 118.26 127.938 120.031V120.531H116.422C116.609 121.146 116.911 121.688 117.328 122.156C117.755 122.615 118.286 122.979 118.922 123.25C119.568 123.521 120.302 123.656 121.125 123.656C122.719 123.656 124.203 123.141 125.578 122.109L126.953 125.25ZM116.219 118.25H123.797C123.714 117.573 123.5 116.979 123.156 116.469C122.823 115.948 122.38 115.542 121.828 115.25C121.286 114.958 120.677 114.812 120 114.812C119.312 114.812 118.698 114.964 118.156 115.266C117.625 115.568 117.193 115.974 116.859 116.484C116.526 116.995 116.312 117.583 116.219 118.25ZM135.281 134.812H130.781V111.375H134.719L134.953 113.5C135.62 112.74 136.417 112.146 137.344 111.719C138.281 111.281 139.302 111.062 140.406 111.062C141.844 111.062 143.12 111.417 144.234 112.125C145.349 112.823 146.229 113.786 146.875 115.016C147.521 116.234 147.844 117.625 147.844 119.188C147.844 120.74 147.521 122.13 146.875 123.359C146.229 124.589 145.349 125.557 144.234 126.266C143.12 126.964 141.844 127.312 140.406 127.312C139.385 127.312 138.438 127.13 137.562 126.766C136.698 126.391 135.938 125.875 135.281 125.219V134.812ZM139.266 123.281C140.047 123.281 140.734 123.109 141.328 122.766C141.922 122.411 142.385 121.927 142.719 121.312C143.062 120.688 143.234 119.979 143.234 119.188C143.234 118.385 143.062 117.677 142.719 117.062C142.385 116.448 141.922 115.964 141.328 115.609C140.734 115.255 140.052 115.078 139.281 115.078C138.552 115.078 137.896 115.24 137.312 115.562C136.729 115.875 136.255 116.312 135.891 116.875C135.536 117.438 135.333 118.083 135.281 118.812V119.594C135.333 120.302 135.536 120.938 135.891 121.5C136.245 122.052 136.714 122.49 137.297 122.812C137.88 123.125 138.536 123.281 139.266 123.281ZM173.391 127H158.453V124.172C160.297 122.526 161.844 121.073 163.094 119.812C164.354 118.552 165.359 117.427 166.109 116.438C166.859 115.448 167.401 114.542 167.734 113.719C168.068 112.885 168.234 112.078 168.234 111.297C168.234 110.495 168.083 109.792 167.781 109.188C167.49 108.583 167.073 108.115 166.531 107.781C166 107.448 165.38 107.281 164.672 107.281C163.859 107.281 163.073 107.516 162.312 107.984C161.552 108.443 160.906 109.078 160.375 109.891L157.938 106.828C158.854 105.641 159.99 104.724 161.344 104.078C162.708 103.422 164.125 103.094 165.594 103.094C166.99 103.094 168.26 103.391 169.406 103.984C170.552 104.578 171.464 105.422 172.141 106.516C172.818 107.609 173.156 108.901 173.156 110.391C173.156 111.432 172.974 112.484 172.609 113.547C172.255 114.599 171.734 115.646 171.047 116.688C170.37 117.729 169.536 118.766 168.547 119.797C167.568 120.818 166.448 121.818 165.188 122.797H173.391V127Z" fill="#4B164C"/>
<path d="M82.1406 162.5C81.6042 163.042 80.9635 163.466 80.2188 163.773C79.474 164.081 78.6615 164.234 77.7812 164.234C76.901 164.234 76.0885 164.083 75.3438 163.781C74.6042 163.479 73.9609 163.055 73.4141 162.508C72.8672 161.956 72.4427 161.31 72.1406 160.57C71.8385 159.826 71.6875 159.016 71.6875 158.141C71.6875 157.26 71.8385 156.451 72.1406 155.711C72.4427 154.966 72.8672 154.32 73.4141 153.773C73.9609 153.227 74.6042 152.802 75.3438 152.5C76.0885 152.198 76.901 152.047 77.7812 152.047C78.6562 152.047 79.4661 152.201 80.2109 152.508C80.9557 152.81 81.5964 153.232 82.1328 153.773L81.1719 154.75C80.7552 154.286 80.2552 153.924 79.6719 153.664C79.0885 153.398 78.4505 153.266 77.7578 153.266C77.0859 153.266 76.4661 153.388 75.8984 153.633C75.3307 153.872 74.8359 154.214 74.4141 154.656C73.9974 155.094 73.6719 155.609 73.4375 156.203C73.2083 156.797 73.0938 157.443 73.0938 158.141C73.0938 158.844 73.2083 159.492 73.4375 160.086C73.6719 160.674 73.9974 161.19 74.4141 161.633C74.8359 162.07 75.3307 162.411 75.8984 162.656C76.4661 162.896 77.0859 163.016 77.7578 163.016C78.4505 163.016 79.0885 162.885 79.6719 162.625C80.2552 162.359 80.7552 161.995 81.1719 161.531L82.1406 162.5ZM84.1719 164V152.281H85.4531V157.359C86.0417 156.474 86.9531 156.031 88.1875 156.031C89.224 156.031 90.0312 156.341 90.6094 156.961C91.1927 157.576 91.4844 158.435 91.4844 159.539V164H90.2031V159.836C90.2031 158.997 89.9948 158.346 89.5781 157.883C89.1667 157.414 88.5911 157.18 87.8516 157.18C87.1068 157.18 86.5208 157.417 86.0938 157.891C85.6667 158.365 85.4531 159.013 85.4531 159.836V164H84.1719ZM97.2188 164.156C96.4427 164.156 95.7448 163.979 95.125 163.625C94.5052 163.271 94.0156 162.789 93.6562 162.18C93.3021 161.565 93.125 160.87 93.125 160.094C93.125 159.323 93.3021 158.633 93.6562 158.023C94.0156 157.409 94.5052 156.924 95.125 156.57C95.7448 156.211 96.4427 156.031 97.2188 156.031C97.9948 156.031 98.6901 156.211 99.3047 156.57C99.9193 156.924 100.404 157.409 100.758 158.023C101.112 158.633 101.289 159.323 101.289 160.094C101.289 160.87 101.112 161.565 100.758 162.18C100.404 162.789 99.9193 163.271 99.3047 163.625C98.6901 163.979 97.9948 164.156 97.2188 164.156ZM97.2109 163C97.737 163 98.2083 162.872 98.625 162.617C99.0417 162.362 99.3698 162.016 99.6094 161.578C99.8542 161.141 99.9766 160.646 99.9766 160.094C99.9766 159.542 99.8542 159.047 99.6094 158.609C99.3698 158.172 99.0417 157.826 98.625 157.57C98.2083 157.315 97.737 157.188 97.2109 157.188C96.6849 157.188 96.2109 157.315 95.7891 157.57C95.3724 157.826 95.0417 158.172 94.7969 158.609C94.5573 159.047 94.4375 159.542 94.4375 160.094C94.4375 160.646 94.5573 161.141 94.7969 161.578C95.0417 162.016 95.3724 162.362 95.7891 162.617C96.2109 162.872 96.6849 163 97.2109 163ZM106.562 164.156C105.786 164.156 105.089 163.979 104.469 163.625C103.849 163.271 103.359 162.789 103 162.18C102.646 161.565 102.469 160.87 102.469 160.094C102.469 159.323 102.646 158.633 103 158.023C103.359 157.409 103.849 156.924 104.469 156.57C105.089 156.211 105.786 156.031 106.562 156.031C107.339 156.031 108.034 156.211 108.648 156.57C109.263 156.924 109.747 157.409 110.102 158.023C110.456 158.633 110.633 159.323 110.633 160.094C110.633 160.87 110.456 161.565 110.102 162.18C109.747 162.789 109.263 163.271 108.648 163.625C108.034 163.979 107.339 164.156 106.562 164.156ZM106.555 163C107.081 163 107.552 162.872 107.969 162.617C108.385 162.362 108.714 162.016 108.953 161.578C109.198 161.141 109.32 160.646 109.32 160.094C109.32 159.542 109.198 159.047 108.953 158.609C108.714 158.172 108.385 157.826 107.969 157.57C107.552 157.315 107.081 157.188 106.555 157.188C106.029 157.188 105.555 157.315 105.133 157.57C104.716 157.826 104.385 158.172 104.141 158.609C103.901 159.047 103.781 159.542 103.781 160.094C103.781 160.646 103.901 161.141 104.141 161.578C104.385 162.016 104.716 162.362 105.133 162.617C105.555 162.872 106.029 163 106.555 163ZM111.891 163.32L112.227 162.117C112.414 162.294 112.628 162.448 112.867 162.578C113.107 162.708 113.359 162.81 113.625 162.883C113.891 162.951 114.159 162.984 114.43 162.984C114.914 162.984 115.305 162.878 115.602 162.664C115.898 162.451 116.047 162.172 116.047 161.828C116.047 161.578 115.969 161.372 115.812 161.211C115.661 161.044 115.461 160.901 115.211 160.781C114.961 160.661 114.693 160.547 114.406 160.438C114.057 160.302 113.711 160.148 113.367 159.977C113.023 159.805 112.737 159.578 112.508 159.297C112.284 159.016 112.172 158.646 112.172 158.188C112.172 157.75 112.281 157.37 112.5 157.047C112.719 156.724 113.023 156.474 113.414 156.297C113.81 156.12 114.263 156.031 114.773 156.031C115.544 156.031 116.302 156.224 117.047 156.609L116.664 157.766C116.497 157.656 116.305 157.56 116.086 157.477C115.867 157.388 115.643 157.32 115.414 157.273C115.185 157.227 114.969 157.203 114.766 157.203C114.385 157.203 114.078 157.292 113.844 157.469C113.609 157.641 113.492 157.872 113.492 158.164C113.492 158.331 113.539 158.484 113.633 158.625C113.732 158.76 113.896 158.896 114.125 159.031C114.354 159.167 114.672 159.318 115.078 159.484C115.438 159.63 115.792 159.797 116.141 159.984C116.49 160.167 116.779 160.404 117.008 160.695C117.242 160.982 117.359 161.357 117.359 161.82C117.359 162.279 117.237 162.685 116.992 163.039C116.753 163.388 116.417 163.661 115.984 163.859C115.557 164.057 115.062 164.156 114.5 164.156C113.568 164.156 112.698 163.878 111.891 163.32ZM126.086 163.039C125.117 163.784 124.049 164.156 122.883 164.156C122.07 164.156 121.341 163.974 120.695 163.609C120.049 163.245 119.539 162.75 119.164 162.125C118.794 161.495 118.609 160.784 118.609 159.992C118.609 159.232 118.781 158.555 119.125 157.961C119.469 157.362 119.94 156.891 120.539 156.547C121.138 156.203 121.818 156.031 122.578 156.031C123.359 156.031 124.047 156.219 124.641 156.594C125.24 156.969 125.706 157.49 126.039 158.156C126.372 158.823 126.539 159.594 126.539 160.469V160.719H120C120.094 161.177 120.281 161.576 120.562 161.914C120.844 162.253 121.195 162.516 121.617 162.703C122.044 162.891 122.518 162.984 123.039 162.984C123.935 162.984 124.753 162.69 125.492 162.102L126.086 163.039ZM119.953 159.625H125.328C125.271 159.141 125.12 158.719 124.875 158.359C124.635 157.995 124.323 157.711 123.938 157.508C123.557 157.305 123.128 157.203 122.648 157.203C122.164 157.203 121.727 157.305 121.336 157.508C120.951 157.711 120.635 157.995 120.391 158.359C120.151 158.719 120.005 159.141 119.953 159.625ZM138.742 162.875C138.362 163.286 137.911 163.604 137.391 163.828C136.87 164.047 136.31 164.156 135.711 164.156C134.935 164.156 134.237 163.979 133.617 163.625C133.003 163.271 132.516 162.786 132.156 162.172C131.802 161.557 131.625 160.865 131.625 160.094C131.625 159.318 131.802 158.625 132.156 158.016C132.516 157.401 133.003 156.917 133.617 156.562C134.237 156.208 134.935 156.031 135.711 156.031C136.305 156.031 136.862 156.141 137.383 156.359C137.904 156.578 138.354 156.893 138.734 157.305L137.969 158.109C137.693 157.818 137.362 157.594 136.977 157.438C136.596 157.281 136.193 157.203 135.766 157.203C135.219 157.203 134.732 157.328 134.305 157.578C133.883 157.823 133.549 158.161 133.305 158.594C133.065 159.026 132.945 159.523 132.945 160.086C132.945 160.648 133.065 161.148 133.305 161.586C133.549 162.023 133.883 162.367 134.305 162.617C134.732 162.862 135.219 162.984 135.766 162.984C136.193 162.984 136.599 162.906 136.984 162.75C137.37 162.589 137.698 162.365 137.969 162.078L138.742 162.875ZM140.547 164V152.281H141.828V157.359C142.417 156.474 143.328 156.031 144.562 156.031C145.599 156.031 146.406 156.341 146.984 156.961C147.568 157.576 147.859 158.435 147.859 159.539V164H146.578V159.836C146.578 158.997 146.37 158.346 145.953 157.883C145.542 157.414 144.966 157.18 144.227 157.18C143.482 157.18 142.896 157.417 142.469 157.891C142.042 158.365 141.828 159.013 141.828 159.836V164H140.547ZM156.43 164H155.328L155.242 162.969C154.956 163.339 154.591 163.63 154.148 163.844C153.706 164.052 153.211 164.156 152.664 164.156C152.102 164.156 151.599 164.047 151.156 163.828C150.714 163.604 150.365 163.299 150.109 162.914C149.859 162.529 149.734 162.091 149.734 161.602C149.734 161.086 149.87 160.633 150.141 160.242C150.417 159.846 150.789 159.536 151.258 159.312C151.732 159.089 152.268 158.977 152.867 158.977C153.258 158.977 153.656 159.026 154.062 159.125C154.469 159.219 154.831 159.349 155.148 159.516V159.188C155.148 158.771 155.044 158.417 154.836 158.125C154.628 157.828 154.349 157.602 154 157.445C153.651 157.284 153.266 157.203 152.844 157.203C152.479 157.203 152.107 157.271 151.727 157.406C151.346 157.536 150.982 157.74 150.633 158.016L150.211 156.914C150.664 156.622 151.141 156.404 151.641 156.258C152.141 156.107 152.635 156.031 153.125 156.031C153.802 156.031 154.385 156.169 154.875 156.445C155.37 156.716 155.753 157.104 156.023 157.609C156.294 158.109 156.43 158.703 156.43 159.391V164ZM152.891 162.984C153.292 162.984 153.659 162.901 153.992 162.734C154.326 162.568 154.596 162.328 154.805 162.016C155.013 161.698 155.128 161.323 155.148 160.891V160.758C154.862 160.534 154.539 160.362 154.18 160.242C153.826 160.117 153.464 160.055 153.094 160.055C152.516 160.055 152.031 160.195 151.641 160.477C151.255 160.758 151.062 161.115 151.062 161.547C151.062 161.818 151.141 162.062 151.297 162.281C151.458 162.5 151.677 162.672 151.953 162.797C152.229 162.922 152.542 162.984 152.891 162.984ZM163 163.812C162.484 164.042 161.982 164.156 161.492 164.156C161.023 164.156 160.612 164.055 160.258 163.852C159.904 163.643 159.628 163.354 159.43 162.984C159.232 162.609 159.133 162.174 159.133 161.68V157.336H157.766V156.188H159.195V154.234H160.414V156.188H162.75V157.336H160.414V161.445C160.414 161.914 160.539 162.292 160.789 162.578C161.044 162.865 161.378 163.008 161.789 163.008C162.122 163.008 162.456 162.909 162.789 162.711L163 163.812ZM172.094 164.156C171.318 164.156 170.62 163.979 170 163.625C169.38 163.271 168.891 162.789 168.531 162.18C168.177 161.565 168 160.87 168 160.094C168 159.323 168.177 158.633 168.531 158.023C168.891 157.409 169.38 156.924 170 156.57C170.62 156.211 171.318 156.031 172.094 156.031C172.87 156.031 173.565 156.211 174.18 156.57C174.794 156.924 175.279 157.409 175.633 158.023C175.987 158.633 176.164 159.323 176.164 160.094C176.164 160.87 175.987 161.565 175.633 162.18C175.279 162.789 174.794 163.271 174.18 163.625C173.565 163.979 172.87 164.156 172.094 164.156ZM172.086 163C172.612 163 173.083 162.872 173.5 162.617C173.917 162.362 174.245 162.016 174.484 161.578C174.729 161.141 174.852 160.646 174.852 160.094C174.852 159.542 174.729 159.047 174.484 158.609C174.245 158.172 173.917 157.826 173.5 157.57C173.083 157.315 172.612 157.188 172.086 157.188C171.56 157.188 171.086 157.315 170.664 157.57C170.247 157.826 169.917 158.172 169.672 158.609C169.432 159.047 169.312 159.542 169.312 160.094C169.312 160.646 169.432 161.141 169.672 161.578C169.917 162.016 170.247 162.362 170.664 162.617C171.086 162.872 171.56 163 172.086 163ZM179.25 164H177.969V156.188H179.094L179.148 157.734C179.419 157.198 179.799 156.781 180.289 156.484C180.784 156.182 181.352 156.031 181.992 156.031C182.133 156.031 182.276 156.039 182.422 156.055C182.568 156.07 182.714 156.094 182.859 156.125L182.703 157.281C182.417 157.214 182.133 157.18 181.852 157.18C181.341 157.18 180.888 157.305 180.492 157.555C180.102 157.805 179.797 158.148 179.578 158.586C179.359 159.023 179.25 159.526 179.25 160.094V164ZM94.4297 184.875C94.0495 185.286 93.599 185.604 93.0781 185.828C92.5573 186.047 91.9974 186.156 91.3984 186.156C90.6224 186.156 89.9245 185.979 89.3047 185.625C88.6901 185.271 88.2031 184.786 87.8438 184.172C87.4896 183.557 87.3125 182.865 87.3125 182.094C87.3125 181.318 87.4896 180.625 87.8438 180.016C88.2031 179.401 88.6901 178.917 89.3047 178.562C89.9245 178.208 90.6224 178.031 91.3984 178.031C91.9922 178.031 92.5495 178.141 93.0703 178.359C93.5911 178.578 94.0417 178.893 94.4219 179.305L93.6562 180.109C93.3802 179.818 93.0495 179.594 92.6641 179.438C92.2839 179.281 91.8802 179.203 91.4531 179.203C90.9062 179.203 90.4193 179.328 89.9922 179.578C89.5703 179.823 89.237 180.161 88.9922 180.594C88.7526 181.026 88.6328 181.523 88.6328 182.086C88.6328 182.648 88.7526 183.148 88.9922 183.586C89.237 184.023 89.5703 184.367 89.9922 184.617C90.4193 184.862 90.9062 184.984 91.4531 184.984C91.8802 184.984 92.2865 184.906 92.6719 184.75C93.0573 184.589 93.3854 184.365 93.6562 184.078L94.4297 184.875ZM102.539 186H101.438L101.352 184.969C101.065 185.339 100.701 185.63 100.258 185.844C99.8151 186.052 99.3203 186.156 98.7734 186.156C98.2109 186.156 97.7083 186.047 97.2656 185.828C96.8229 185.604 96.474 185.299 96.2188 184.914C95.9688 184.529 95.8438 184.091 95.8438 183.602C95.8438 183.086 95.9792 182.633 96.25 182.242C96.526 181.846 96.8984 181.536 97.3672 181.312C97.8411 181.089 98.3776 180.977 98.9766 180.977C99.3672 180.977 99.7656 181.026 100.172 181.125C100.578 181.219 100.94 181.349 101.258 181.516V181.188C101.258 180.771 101.154 180.417 100.945 180.125C100.737 179.828 100.458 179.602 100.109 179.445C99.7604 179.284 99.375 179.203 98.9531 179.203C98.5885 179.203 98.2161 179.271 97.8359 179.406C97.4557 179.536 97.0911 179.74 96.7422 180.016L96.3203 178.914C96.7734 178.622 97.25 178.404 97.75 178.258C98.25 178.107 98.7448 178.031 99.2344 178.031C99.9115 178.031 100.495 178.169 100.984 178.445C101.479 178.716 101.862 179.104 102.133 179.609C102.404 180.109 102.539 180.703 102.539 181.391V186ZM99 184.984C99.401 184.984 99.7682 184.901 100.102 184.734C100.435 184.568 100.706 184.328 100.914 184.016C101.122 183.698 101.237 183.323 101.258 182.891V182.758C100.971 182.534 100.648 182.362 100.289 182.242C99.9349 182.117 99.5729 182.055 99.2031 182.055C98.625 182.055 98.1406 182.195 97.75 182.477C97.3646 182.758 97.1719 183.115 97.1719 183.547C97.1719 183.818 97.25 184.062 97.4062 184.281C97.5677 184.5 97.7865 184.672 98.0625 184.797C98.3385 184.922 98.651 184.984 99 184.984ZM106.172 186H104.812V174.281H106.172V186ZM109.953 186H108.594V174.281H109.953V186ZM115.734 185.32L116.07 184.117C116.258 184.294 116.471 184.448 116.711 184.578C116.951 184.708 117.203 184.81 117.469 184.883C117.734 184.951 118.003 184.984 118.273 184.984C118.758 184.984 119.148 184.878 119.445 184.664C119.742 184.451 119.891 184.172 119.891 183.828C119.891 183.578 119.812 183.372 119.656 183.211C119.505 183.044 119.305 182.901 119.055 182.781C118.805 182.661 118.536 182.547 118.25 182.438C117.901 182.302 117.555 182.148 117.211 181.977C116.867 181.805 116.581 181.578 116.352 181.297C116.128 181.016 116.016 180.646 116.016 180.188C116.016 179.75 116.125 179.37 116.344 179.047C116.562 178.724 116.867 178.474 117.258 178.297C117.654 178.12 118.107 178.031 118.617 178.031C119.388 178.031 120.146 178.224 120.891 178.609L120.508 179.766C120.341 179.656 120.148 179.56 119.93 179.477C119.711 179.388 119.487 179.32 119.258 179.273C119.029 179.227 118.812 179.203 118.609 179.203C118.229 179.203 117.922 179.292 117.688 179.469C117.453 179.641 117.336 179.872 117.336 180.164C117.336 180.331 117.383 180.484 117.477 180.625C117.576 180.76 117.74 180.896 117.969 181.031C118.198 181.167 118.516 181.318 118.922 181.484C119.281 181.63 119.635 181.797 119.984 181.984C120.333 182.167 120.622 182.404 120.852 182.695C121.086 182.982 121.203 183.357 121.203 183.82C121.203 184.279 121.081 184.685 120.836 185.039C120.596 185.388 120.26 185.661 119.828 185.859C119.401 186.057 118.906 186.156 118.344 186.156C117.411 186.156 116.542 185.878 115.734 185.32ZM129.93 185.039C128.961 185.784 127.893 186.156 126.727 186.156C125.914 186.156 125.185 185.974 124.539 185.609C123.893 185.245 123.383 184.75 123.008 184.125C122.638 183.495 122.453 182.784 122.453 181.992C122.453 181.232 122.625 180.555 122.969 179.961C123.312 179.362 123.784 178.891 124.383 178.547C124.982 178.203 125.661 178.031 126.422 178.031C127.203 178.031 127.891 178.219 128.484 178.594C129.083 178.969 129.549 179.49 129.883 180.156C130.216 180.823 130.383 181.594 130.383 182.469V182.719H123.844C123.938 183.177 124.125 183.576 124.406 183.914C124.688 184.253 125.039 184.516 125.461 184.703C125.888 184.891 126.362 184.984 126.883 184.984C127.779 184.984 128.596 184.69 129.336 184.102L129.93 185.039ZM123.797 181.625H129.172C129.115 181.141 128.964 180.719 128.719 180.359C128.479 179.995 128.167 179.711 127.781 179.508C127.401 179.305 126.971 179.203 126.492 179.203C126.008 179.203 125.57 179.305 125.18 179.508C124.794 179.711 124.479 179.995 124.234 180.359C123.995 180.719 123.849 181.141 123.797 181.625ZM131.641 185.32L131.977 184.117C132.164 184.294 132.378 184.448 132.617 184.578C132.857 184.708 133.109 184.81 133.375 184.883C133.641 184.951 133.909 184.984 134.18 184.984C134.664 184.984 135.055 184.878 135.352 184.664C135.648 184.451 135.797 184.172 135.797 183.828C135.797 183.578 135.719 183.372 135.562 183.211C135.411 183.044 135.211 182.901 134.961 182.781C134.711 182.661 134.443 182.547 134.156 182.438C133.807 182.302 133.461 182.148 133.117 181.977C132.773 181.805 132.487 181.578 132.258 181.297C132.034 181.016 131.922 180.646 131.922 180.188C131.922 179.75 132.031 179.37 132.25 179.047C132.469 178.724 132.773 178.474 133.164 178.297C133.56 178.12 134.013 178.031 134.523 178.031C135.294 178.031 136.052 178.224 136.797 178.609L136.414 179.766C136.247 179.656 136.055 179.56 135.836 179.477C135.617 179.388 135.393 179.32 135.164 179.273C134.935 179.227 134.719 179.203 134.516 179.203C134.135 179.203 133.828 179.292 133.594 179.469C133.359 179.641 133.242 179.872 133.242 180.164C133.242 180.331 133.289 180.484 133.383 180.625C133.482 180.76 133.646 180.896 133.875 181.031C134.104 181.167 134.422 181.318 134.828 181.484C135.188 181.63 135.542 181.797 135.891 181.984C136.24 182.167 136.529 182.404 136.758 182.695C136.992 182.982 137.109 183.357 137.109 183.82C137.109 184.279 136.987 184.685 136.742 185.039C136.503 185.388 136.167 185.661 135.734 185.859C135.307 186.057 134.812 186.156 134.25 186.156C133.318 186.156 132.448 185.878 131.641 185.32ZM138.438 185.32L138.773 184.117C138.961 184.294 139.174 184.448 139.414 184.578C139.654 184.708 139.906 184.81 140.172 184.883C140.438 184.951 140.706 184.984 140.977 184.984C141.461 184.984 141.852 184.878 142.148 184.664C142.445 184.451 142.594 184.172 142.594 183.828C142.594 183.578 142.516 183.372 142.359 183.211C142.208 183.044 142.008 182.901 141.758 182.781C141.508 182.661 141.24 182.547 140.953 182.438C140.604 182.302 140.258 182.148 139.914 181.977C139.57 181.805 139.284 181.578 139.055 181.297C138.831 181.016 138.719 180.646 138.719 180.188C138.719 179.75 138.828 179.37 139.047 179.047C139.266 178.724 139.57 178.474 139.961 178.297C140.357 178.12 140.81 178.031 141.32 178.031C142.091 178.031 142.849 178.224 143.594 178.609L143.211 179.766C143.044 179.656 142.852 179.56 142.633 179.477C142.414 179.388 142.19 179.32 141.961 179.273C141.732 179.227 141.516 179.203 141.312 179.203C140.932 179.203 140.625 179.292 140.391 179.469C140.156 179.641 140.039 179.872 140.039 180.164C140.039 180.331 140.086 180.484 140.18 180.625C140.279 180.76 140.443 180.896 140.672 181.031C140.901 181.167 141.219 181.318 141.625 181.484C141.984 181.63 142.339 181.797 142.688 181.984C143.036 182.167 143.326 182.404 143.555 182.695C143.789 182.982 143.906 183.357 143.906 183.82C143.906 184.279 143.784 184.685 143.539 185.039C143.299 185.388 142.964 185.661 142.531 185.859C142.104 186.057 141.609 186.156 141.047 186.156C140.115 186.156 139.245 185.878 138.438 185.32ZM146.453 175.719C146.234 175.719 146.049 175.643 145.898 175.492C145.753 175.336 145.68 175.148 145.68 174.93C145.68 174.716 145.753 174.534 145.898 174.383C146.049 174.232 146.234 174.156 146.453 174.156C146.677 174.156 146.865 174.232 147.016 174.383C147.167 174.534 147.242 174.716 147.242 174.93C147.242 175.148 147.167 175.336 147.016 175.492C146.865 175.643 146.677 175.719 146.453 175.719ZM147.094 186H145.812V178.188H147.094V186ZM153.031 186.156C152.255 186.156 151.557 185.979 150.938 185.625C150.318 185.271 149.828 184.789 149.469 184.18C149.115 183.565 148.938 182.87 148.938 182.094C148.938 181.323 149.115 180.633 149.469 180.023C149.828 179.409 150.318 178.924 150.938 178.57C151.557 178.211 152.255 178.031 153.031 178.031C153.807 178.031 154.503 178.211 155.117 178.57C155.732 178.924 156.216 179.409 156.57 180.023C156.924 180.633 157.102 181.323 157.102 182.094C157.102 182.87 156.924 183.565 156.57 184.18C156.216 184.789 155.732 185.271 155.117 185.625C154.503 185.979 153.807 186.156 153.031 186.156ZM153.023 185C153.549 185 154.021 184.872 154.438 184.617C154.854 184.362 155.182 184.016 155.422 183.578C155.667 183.141 155.789 182.646 155.789 182.094C155.789 181.542 155.667 181.047 155.422 180.609C155.182 180.172 154.854 179.826 154.438 179.57C154.021 179.315 153.549 179.188 153.023 179.188C152.497 179.188 152.023 179.315 151.602 179.57C151.185 179.826 150.854 180.172 150.609 180.609C150.37 181.047 150.25 181.542 150.25 182.094C150.25 182.646 150.37 183.141 150.609 183.578C150.854 184.016 151.185 184.362 151.602 184.617C152.023 184.872 152.497 185 153.023 185ZM166.219 186H164.938V181.492C164.938 180.789 164.74 180.232 164.344 179.82C163.953 179.409 163.419 179.203 162.742 179.203C162.258 179.203 161.823 179.312 161.438 179.531C161.052 179.745 160.747 180.047 160.523 180.438C160.299 180.828 160.188 181.281 160.188 181.797V186H158.906V178.188H160.023L160.07 179.453C160.357 178.995 160.753 178.643 161.258 178.398C161.768 178.154 162.341 178.031 162.977 178.031C163.971 178.031 164.76 178.331 165.344 178.93C165.927 179.529 166.219 180.336 166.219 181.352V186Z" fill="black"/>
</svg>
