<svg width="251" height="433" viewBox="0 0 251 433" fill="none" xmlns="http://www.w3.org/2000/svg">
<path d="M251 10H106C52.9807 10 10 52.9807 10 106V251H155C208.019 251 251 208.019 251 155V10Z" fill="#E7C9E7"/>
<path d="M96 1C43.533 1 1 43.533 1 96V240H145C197.467 240 240 197.467 240 145V1H96Z" stroke="#4B164C" stroke-width="2"/>
<rect x="119" y="241" width="2" height="192" fill="#4B164C"/>
<path d="M82.625 124.469L84.9062 120.797C85.625 121.38 86.3177 121.859 86.9844 122.234C87.6615 122.599 88.3281 122.87 88.9844 123.047C89.6406 123.214 90.3125 123.297 91 123.297C91.8125 123.297 92.5156 123.182 93.1094 122.953C93.7031 122.724 94.1615 122.396 94.4844 121.969C94.8177 121.542 94.9844 121.047 94.9844 120.484C94.9844 119.828 94.776 119.276 94.3594 118.828C93.9427 118.38 93.3958 117.99 92.7188 117.656C92.0521 117.312 91.3281 116.984 90.5469 116.672C89.7865 116.359 89.0208 116.021 88.25 115.656C87.4896 115.281 86.7865 114.839 86.1406 114.328C85.5052 113.818 84.9896 113.198 84.5938 112.469C84.2083 111.729 84.0156 110.833 84.0156 109.781C84.0156 108.406 84.3594 107.219 85.0469 106.219C85.7448 105.219 86.6979 104.448 87.9062 103.906C89.1146 103.365 90.4948 103.094 92.0469 103.094C93.1406 103.094 94.276 103.24 95.4531 103.531C96.6406 103.823 97.8229 104.266 99 104.859L97.1094 108.75C96.3698 108.302 95.5729 107.948 94.7188 107.688C93.8646 107.427 93.0625 107.297 92.3125 107.297C91.6354 107.297 91.0417 107.401 90.5312 107.609C90.0312 107.818 89.6406 108.109 89.3594 108.484C89.0781 108.849 88.9375 109.281 88.9375 109.781C88.9375 110.375 89.1406 110.891 89.5469 111.328C89.9531 111.755 90.4792 112.135 91.125 112.469C91.7812 112.802 92.4844 113.135 93.2344 113.469C94.0052 113.802 94.7812 114.167 95.5625 114.562C96.3542 114.958 97.0729 115.427 97.7188 115.969C98.375 116.5 98.901 117.141 99.2969 117.891C99.7031 118.63 99.9062 119.521 99.9062 120.562C99.9062 121.938 99.5417 123.146 98.8125 124.188C98.0833 125.219 97.0677 126.026 95.7656 126.609C94.4635 127.182 92.9479 127.469 91.2188 127.469C89.6354 127.469 88.1198 127.214 86.6719 126.703C85.224 126.193 83.875 125.448 82.625 124.469ZM112.922 126.594C111.724 127.073 110.562 127.312 109.438 127.312C108.271 127.312 107.24 127.068 106.344 126.578C105.458 126.078 104.766 125.385 104.266 124.5C103.766 123.604 103.516 122.573 103.516 121.406V115.375H100.781V111.375H103.75V107.469H108V111.375H112.328V115.375H108V120.594C108 121.448 108.234 122.115 108.703 122.594C109.172 123.062 109.755 123.297 110.453 123.297C111.089 123.297 111.708 123.099 112.312 122.703L112.922 126.594ZM129.922 125.25C127.984 126.625 125.865 127.312 123.562 127.312C121.854 127.312 120.318 126.948 118.953 126.219C117.599 125.479 116.526 124.479 115.734 123.219C114.953 121.958 114.562 120.536 114.562 118.953C114.562 117.443 114.917 116.094 115.625 114.906C116.344 113.719 117.318 112.781 118.547 112.094C119.776 111.406 121.172 111.062 122.734 111.062C124.349 111.062 125.771 111.443 127 112.203C128.229 112.953 129.188 114.005 129.875 115.359C130.562 116.703 130.906 118.26 130.906 120.031V120.531H119.391C119.578 121.146 119.88 121.688 120.297 122.156C120.724 122.615 121.255 122.979 121.891 123.25C122.536 123.521 123.271 123.656 124.094 123.656C125.688 123.656 127.172 123.141 128.547 122.109L129.922 125.25ZM119.188 118.25H126.766C126.682 117.573 126.469 116.979 126.125 116.469C125.792 115.948 125.349 115.542 124.797 115.25C124.255 114.958 123.646 114.812 122.969 114.812C122.281 114.812 121.667 114.964 121.125 115.266C120.594 115.568 120.161 115.974 119.828 116.484C119.495 116.995 119.281 117.583 119.188 118.25ZM138.25 134.812H133.75V111.375H137.688L137.922 113.5C138.589 112.74 139.385 112.146 140.312 111.719C141.25 111.281 142.271 111.062 143.375 111.062C144.812 111.062 146.089 111.417 147.203 112.125C148.318 112.823 149.198 113.786 149.844 115.016C150.49 116.234 150.812 117.625 150.812 119.188C150.812 120.74 150.49 122.13 149.844 123.359C149.198 124.589 148.318 125.557 147.203 126.266C146.089 126.964 144.812 127.312 143.375 127.312C142.354 127.312 141.406 127.13 140.531 126.766C139.667 126.391 138.906 125.875 138.25 125.219V134.812ZM142.234 123.281C143.016 123.281 143.703 123.109 144.297 122.766C144.891 122.411 145.354 121.927 145.688 121.312C146.031 120.688 146.203 119.979 146.203 119.188C146.203 118.385 146.031 117.677 145.688 117.062C145.354 116.448 144.891 115.964 144.297 115.609C143.703 115.255 143.021 115.078 142.25 115.078C141.521 115.078 140.865 115.24 140.281 115.562C139.698 115.875 139.224 116.312 138.859 116.875C138.505 117.438 138.302 118.083 138.25 118.812V119.594C138.302 120.302 138.505 120.938 138.859 121.5C139.214 122.052 139.682 122.49 140.266 122.812C140.849 123.125 141.505 123.281 142.234 123.281ZM169.891 127H165.078V108.281L161.156 109.719L159.656 105.891L166.062 103.562H169.891V127Z" fill="#4B164C"/>
<path d="M152.319 85.9999H151.702C151.136 85.6753 150.969 85.2469 150.969 84.5385L150.966 63.9053C150.966 62.5386 150.379 61.2625 149.347 60.3977L142.153 54.3602C141.278 53.6413 140.252 53.2326 139.102 53.2339L134.662 53.2405L134.665 64.7556C134.665 66.6862 133.337 68.3697 131.36 68.5616C130.302 68.6641 129.186 68.2909 128.312 67.6929L123.87 64.6479C122.807 63.9198 121.407 64.2063 120.67 65.1617C119.897 66.1632 119.994 67.6903 121.093 68.5025L136.76 80.0689C138.016 80.9954 137.82 83.8643 137.695 85.2837C137.673 85.5321 137.162 85.8593 136.982 85.9999H136.489C135.936 85.7502 135.637 85.352 135.645 84.6936L135.67 82.5659C135.674 82.2557 135.532 81.7576 135.28 81.5723L131.885 79.0832C130.951 79.5826 130.065 79.8928 128.986 79.8928L107.911 79.8993C104.941 79.8993 102.461 77.8189 102.12 74.8514C102.096 74.6504 102.054 74.4138 102 74.3297V32.7611C102 30.1235 104.446 27.3439 107.141 27.3413L129.497 27.3281C132.479 27.3268 134.66 30.2207 134.66 33.0055L134.663 51.1299L139.1 51.1378C140.754 51.1404 142.252 51.7068 143.504 52.7582L150.711 58.8075C152.14 60.0074 153.077 61.8105 153.081 63.7608L153.123 84.6699C153.124 85.3152 152.762 85.7082 152.317 85.9986L152.319 85.9999ZM132.565 64.7977V33.0423C132.565 30.9435 130.935 29.3481 128.878 29.3533L126.442 29.3599L125.502 33.0594C125.367 33.5943 125.022 34.0319 124.405 34.0319H112.255C111.784 34.0306 111.376 33.635 111.269 33.2211L110.276 29.3481L107.752 29.3612C105.798 29.3717 104.158 30.9567 104.158 32.9648V74.1483C104.158 76.1696 105.755 77.7927 107.781 77.794L128.987 77.7992C129.29 77.7992 129.588 77.7072 129.856 77.5837L120.032 70.3503C117.941 68.8113 117.393 66.0528 118.886 63.9816C120.39 61.8946 123.226 61.5424 125.323 63.0708C126.814 64.1577 128.275 65.1512 129.822 66.1448C130.367 66.4944 131.068 66.6034 131.646 66.3235C132.126 66.0922 132.566 65.6086 132.566 64.7977H132.565ZM123.624 31.9344L124.252 29.3546H112.451L113.104 31.9318L123.624 31.9344Z" fill="#4B164C"/>
<path d="M126.04 58.3111L110.803 58.3269C108.705 58.3295 107.656 56.5396 107.652 54.6681C107.648 52.6784 108.792 50.9909 110.933 50.9909L125.704 50.9844C127.87 50.9844 129.087 52.6009 129.066 54.6826C129.049 56.4108 128.129 58.3098 126.04 58.3111ZM126.896 55.2674L126.908 54.1227C126.913 53.5655 126.44 53.0871 125.85 53.0871H110.923C110.307 53.0858 109.818 53.5208 109.817 54.124L109.814 55.1899C109.814 55.8102 110.298 56.2425 110.922 56.2425H125.849C126.381 56.2412 126.89 55.8457 126.896 55.2687V55.2674Z" fill="#4B164C"/>
<path d="M123.849 45.2535C124.417 45.5794 124.69 46.1603 124.405 46.7189C124.087 47.3444 123.394 47.4272 122.793 47.0803L120.507 45.7595C118.786 47.577 116.096 47.7952 114.154 46.3653C112.186 44.9184 111.613 42.1953 112.879 40.0663C114.145 37.9373 116.672 37.1409 118.928 38.1357C121.11 39.0977 122.287 41.5619 121.567 43.9419L123.849 45.2522V45.2535ZM114.863 44.0957C115.615 45.0945 116.851 45.402 117.945 45.0012C119.04 44.6003 119.718 43.6068 119.662 42.4188C119.609 41.3319 118.886 40.3055 117.738 39.9651C116.589 39.6247 115.454 40.065 114.817 40.9376C114.149 41.855 114.131 43.1219 114.865 44.0957H114.863Z" fill="#4B164C"/>
<path d="M36.7031 164V152.281H40.8594C41.9792 152.281 42.8594 152.539 43.5 153.055C44.1406 153.57 44.4609 154.279 44.4609 155.18C44.4609 155.82 44.3021 156.38 43.9844 156.859C43.6667 157.333 43.2422 157.677 42.7109 157.891C43.4245 158.068 43.9844 158.409 44.3906 158.914C44.8021 159.414 45.0078 160.029 45.0078 160.758C45.0078 161.404 44.8464 161.971 44.5234 162.461C44.2057 162.945 43.7604 163.323 43.1875 163.594C42.6146 163.865 41.9453 164 41.1797 164H36.7031ZM38.0781 157.453H40.8281C41.5156 157.453 42.0651 157.271 42.4766 156.906C42.8932 156.542 43.1016 156.06 43.1016 155.461C43.1016 154.857 42.8906 154.38 42.4688 154.031C42.0469 153.677 41.4714 153.5 40.7422 153.5H38.0781V157.453ZM38.0781 162.781H40.8828C41.4245 162.781 41.8984 162.69 42.3047 162.508C42.7109 162.32 43.0286 162.062 43.2578 161.734C43.487 161.401 43.6016 161.018 43.6016 160.586C43.6016 160.164 43.4922 159.797 43.2734 159.484C43.0599 159.172 42.7552 158.932 42.3594 158.766C41.9688 158.594 41.5078 158.508 40.9766 158.508H38.0781V162.781ZM48.1719 164H46.8906V156.188H48.0156L48.0703 157.734C48.3411 157.198 48.7214 156.781 49.2109 156.484C49.7057 156.182 50.2734 156.031 50.9141 156.031C51.0547 156.031 51.1979 156.039 51.3438 156.055C51.4896 156.07 51.6354 156.094 51.7812 156.125L51.625 157.281C51.3385 157.214 51.0547 157.18 50.7734 157.18C50.263 157.18 49.8099 157.305 49.4141 157.555C49.0234 157.805 48.7188 158.148 48.5 158.586C48.2812 159.023 48.1719 159.526 48.1719 160.094V164ZM56.5781 164.156C55.8021 164.156 55.1042 163.979 54.4844 163.625C53.8646 163.271 53.375 162.789 53.0156 162.18C52.6615 161.565 52.4844 160.87 52.4844 160.094C52.4844 159.323 52.6615 158.633 53.0156 158.023C53.375 157.409 53.8646 156.924 54.4844 156.57C55.1042 156.211 55.8021 156.031 56.5781 156.031C57.3542 156.031 58.0495 156.211 58.6641 156.57C59.2786 156.924 59.763 157.409 60.1172 158.023C60.4714 158.633 60.6484 159.323 60.6484 160.094C60.6484 160.87 60.4714 161.565 60.1172 162.18C59.763 162.789 59.2786 163.271 58.6641 163.625C58.0495 163.979 57.3542 164.156 56.5781 164.156ZM56.5703 163C57.0964 163 57.5677 162.872 57.9844 162.617C58.401 162.362 58.7292 162.016 58.9688 161.578C59.2135 161.141 59.3359 160.646 59.3359 160.094C59.3359 159.542 59.2135 159.047 58.9688 158.609C58.7292 158.172 58.401 157.826 57.9844 157.57C57.5677 157.315 57.0964 157.188 56.5703 157.188C56.0443 157.188 55.5703 157.315 55.1484 157.57C54.7318 157.826 54.401 158.172 54.1562 158.609C53.9167 159.047 53.7969 159.542 53.7969 160.094C53.7969 160.646 53.9167 161.141 54.1562 161.578C54.401 162.016 54.7318 162.362 55.1484 162.617C55.5703 162.872 56.0443 163 56.5703 163ZM70.6641 164H69.1797L67.4141 158.031L65.6484 164H64.1641L61.6719 156.188H63.0312L64.8984 162.438L66.8125 156.188H68.0156L69.9297 162.438L71.8047 156.188H73.1641L70.6641 164ZM73.9531 163.32L74.2891 162.117C74.4766 162.294 74.6901 162.448 74.9297 162.578C75.1693 162.708 75.4219 162.81 75.6875 162.883C75.9531 162.951 76.2214 162.984 76.4922 162.984C76.9766 162.984 77.3672 162.878 77.6641 162.664C77.9609 162.451 78.1094 162.172 78.1094 161.828C78.1094 161.578 78.0312 161.372 77.875 161.211C77.724 161.044 77.5234 160.901 77.2734 160.781C77.0234 160.661 76.7552 160.547 76.4688 160.438C76.1198 160.302 75.7734 160.148 75.4297 159.977C75.0859 159.805 74.7995 159.578 74.5703 159.297C74.3464 159.016 74.2344 158.646 74.2344 158.188C74.2344 157.75 74.3438 157.37 74.5625 157.047C74.7812 156.724 75.0859 156.474 75.4766 156.297C75.8724 156.12 76.3255 156.031 76.8359 156.031C77.6068 156.031 78.3646 156.224 79.1094 156.609L78.7266 157.766C78.5599 157.656 78.3672 157.56 78.1484 157.477C77.9297 157.388 77.7057 157.32 77.4766 157.273C77.2474 157.227 77.0312 157.203 76.8281 157.203C76.4479 157.203 76.1406 157.292 75.9062 157.469C75.6719 157.641 75.5547 157.872 75.5547 158.164C75.5547 158.331 75.6016 158.484 75.6953 158.625C75.7943 158.76 75.9583 158.896 76.1875 159.031C76.4167 159.167 76.7344 159.318 77.1406 159.484C77.5 159.63 77.8542 159.797 78.2031 159.984C78.5521 160.167 78.8411 160.404 79.0703 160.695C79.3047 160.982 79.4219 161.357 79.4219 161.82C79.4219 162.279 79.2995 162.685 79.0547 163.039C78.8151 163.388 78.4792 163.661 78.0469 163.859C77.6198 164.057 77.125 164.156 76.5625 164.156C75.6302 164.156 74.7604 163.878 73.9531 163.32ZM88.1484 163.039C87.1797 163.784 86.112 164.156 84.9453 164.156C84.1328 164.156 83.4036 163.974 82.7578 163.609C82.112 163.245 81.6016 162.75 81.2266 162.125C80.8568 161.495 80.6719 160.784 80.6719 159.992C80.6719 159.232 80.8438 158.555 81.1875 157.961C81.5312 157.362 82.0026 156.891 82.6016 156.547C83.2005 156.203 83.8802 156.031 84.6406 156.031C85.4219 156.031 86.1094 156.219 86.7031 156.594C87.3021 156.969 87.7682 157.49 88.1016 158.156C88.4349 158.823 88.6016 159.594 88.6016 160.469V160.719H82.0625C82.1562 161.177 82.3438 161.576 82.625 161.914C82.9062 162.253 83.2578 162.516 83.6797 162.703C84.1068 162.891 84.5807 162.984 85.1016 162.984C85.9974 162.984 86.8151 162.69 87.5547 162.102L88.1484 163.039ZM82.0156 159.625H87.3906C87.3333 159.141 87.1823 158.719 86.9375 158.359C86.6979 157.995 86.3854 157.711 86 157.508C85.6198 157.305 85.1901 157.203 84.7109 157.203C84.2266 157.203 83.7891 157.305 83.3984 157.508C83.013 157.711 82.6979 157.995 82.4531 158.359C82.2135 158.719 82.0677 159.141 82.0156 159.625ZM101.5 156.188L98.2109 164H96.9688L93.6875 156.188H95.0703L97.6016 162.656L100.141 156.188H101.5ZM109.914 163.039C108.945 163.784 107.878 164.156 106.711 164.156C105.898 164.156 105.169 163.974 104.523 163.609C103.878 163.245 103.367 162.75 102.992 162.125C102.622 161.495 102.438 160.784 102.438 159.992C102.438 159.232 102.609 158.555 102.953 157.961C103.297 157.362 103.768 156.891 104.367 156.547C104.966 156.203 105.646 156.031 106.406 156.031C107.188 156.031 107.875 156.219 108.469 156.594C109.068 156.969 109.534 157.49 109.867 158.156C110.201 158.823 110.367 159.594 110.367 160.469V160.719H103.828C103.922 161.177 104.109 161.576 104.391 161.914C104.672 162.253 105.023 162.516 105.445 162.703C105.872 162.891 106.346 162.984 106.867 162.984C107.763 162.984 108.581 162.69 109.32 162.102L109.914 163.039ZM103.781 159.625H109.156C109.099 159.141 108.948 158.719 108.703 158.359C108.464 157.995 108.151 157.711 107.766 157.508C107.385 157.305 106.956 157.203 106.477 157.203C105.992 157.203 105.555 157.305 105.164 157.508C104.779 157.711 104.464 157.995 104.219 158.359C103.979 158.719 103.833 159.141 103.781 159.625ZM113.453 164H112.172V156.188H113.297L113.352 157.734C113.622 157.198 114.003 156.781 114.492 156.484C114.987 156.182 115.555 156.031 116.195 156.031C116.336 156.031 116.479 156.039 116.625 156.055C116.771 156.07 116.917 156.094 117.062 156.125L116.906 157.281C116.62 157.214 116.336 157.18 116.055 157.18C115.544 157.18 115.091 157.305 114.695 157.555C114.305 157.805 114 158.148 113.781 158.586C113.562 159.023 113.453 159.526 113.453 160.094V164ZM119.062 153.719C118.844 153.719 118.659 153.643 118.508 153.492C118.362 153.336 118.289 153.148 118.289 152.93C118.289 152.716 118.362 152.534 118.508 152.383C118.659 152.232 118.844 152.156 119.062 152.156C119.286 152.156 119.474 152.232 119.625 152.383C119.776 152.534 119.852 152.716 119.852 152.93C119.852 153.148 119.776 153.336 119.625 153.492C119.474 153.643 119.286 153.719 119.062 153.719ZM119.703 164H118.422V156.188H119.703V164ZM124.352 164H123.07V157.336H121.703V156.188H123.07V154.508C123.07 154.023 123.172 153.596 123.375 153.227C123.583 152.857 123.872 152.568 124.242 152.359C124.612 152.151 125.036 152.047 125.516 152.047C125.812 152.047 126.109 152.089 126.406 152.172C126.708 152.25 127 152.372 127.281 152.539L126.789 153.547C126.617 153.432 126.44 153.346 126.258 153.289C126.076 153.227 125.896 153.195 125.719 153.195C125.307 153.195 124.977 153.339 124.727 153.625C124.477 153.911 124.352 154.289 124.352 154.758V156.188H129.219V164H127.93V157.336H124.352V164ZM138.492 163.039C137.523 163.784 136.456 164.156 135.289 164.156C134.477 164.156 133.747 163.974 133.102 163.609C132.456 163.245 131.945 162.75 131.57 162.125C131.201 161.495 131.016 160.784 131.016 159.992C131.016 159.232 131.188 158.555 131.531 157.961C131.875 157.362 132.346 156.891 132.945 156.547C133.544 156.203 134.224 156.031 134.984 156.031C135.766 156.031 136.453 156.219 137.047 156.594C137.646 156.969 138.112 157.49 138.445 158.156C138.779 158.823 138.945 159.594 138.945 160.469V160.719H132.406C132.5 161.177 132.688 161.576 132.969 161.914C133.25 162.253 133.602 162.516 134.023 162.703C134.451 162.891 134.924 162.984 135.445 162.984C136.341 162.984 137.159 162.69 137.898 162.102L138.492 163.039ZM132.359 159.625H137.734C137.677 159.141 137.526 158.719 137.281 158.359C137.042 157.995 136.729 157.711 136.344 157.508C135.964 157.305 135.534 157.203 135.055 157.203C134.57 157.203 134.133 157.305 133.742 157.508C133.357 157.711 133.042 157.995 132.797 158.359C132.557 158.719 132.411 159.141 132.359 159.625ZM148.375 164H147.234L147.164 162.859C146.805 163.26 146.367 163.578 145.852 163.812C145.336 164.042 144.771 164.156 144.156 164.156C143.391 164.156 142.703 163.979 142.094 163.625C141.484 163.271 141.003 162.786 140.648 162.172C140.299 161.557 140.125 160.865 140.125 160.094C140.125 159.318 140.299 158.625 140.648 158.016C141.003 157.401 141.484 156.917 142.094 156.562C142.703 156.208 143.391 156.031 144.156 156.031C144.75 156.031 145.297 156.138 145.797 156.352C146.302 156.565 146.734 156.862 147.094 157.242V152.281H148.375V164ZM144.273 163C144.794 163 145.268 162.88 145.695 162.641C146.122 162.396 146.461 162.065 146.711 161.648C146.966 161.227 147.094 160.75 147.094 160.219V159.953C147.094 159.422 146.966 158.948 146.711 158.531C146.461 158.109 146.122 157.779 145.695 157.539C145.268 157.299 144.794 157.18 144.273 157.18C143.732 157.18 143.247 157.307 142.82 157.562C142.393 157.818 142.055 158.164 141.805 158.602C141.56 159.039 141.438 159.534 141.438 160.086C141.438 160.638 141.56 161.135 141.805 161.578C142.055 162.016 142.393 162.362 142.82 162.617C143.247 162.872 143.732 163 144.273 163ZM156.062 164H154.703V152.281H156.062V164ZM159.156 153.719C158.938 153.719 158.753 153.643 158.602 153.492C158.456 153.336 158.383 153.148 158.383 152.93C158.383 152.716 158.456 152.534 158.602 152.383C158.753 152.232 158.938 152.156 159.156 152.156C159.38 152.156 159.568 152.232 159.719 152.383C159.87 152.534 159.945 152.716 159.945 152.93C159.945 153.148 159.87 153.336 159.719 153.492C159.568 153.643 159.38 153.719 159.156 153.719ZM159.797 164H158.516V156.188H159.797V164ZM161.719 163.32L162.055 162.117C162.242 162.294 162.456 162.448 162.695 162.578C162.935 162.708 163.188 162.81 163.453 162.883C163.719 162.951 163.987 162.984 164.258 162.984C164.742 162.984 165.133 162.878 165.43 162.664C165.727 162.451 165.875 162.172 165.875 161.828C165.875 161.578 165.797 161.372 165.641 161.211C165.49 161.044 165.289 160.901 165.039 160.781C164.789 160.661 164.521 160.547 164.234 160.438C163.885 160.302 163.539 160.148 163.195 159.977C162.852 159.805 162.565 159.578 162.336 159.297C162.112 159.016 162 158.646 162 158.188C162 157.75 162.109 157.37 162.328 157.047C162.547 156.724 162.852 156.474 163.242 156.297C163.638 156.12 164.091 156.031 164.602 156.031C165.372 156.031 166.13 156.224 166.875 156.609L166.492 157.766C166.326 157.656 166.133 157.56 165.914 157.477C165.695 157.388 165.471 157.32 165.242 157.273C165.013 157.227 164.797 157.203 164.594 157.203C164.214 157.203 163.906 157.292 163.672 157.469C163.438 157.641 163.32 157.872 163.32 158.164C163.32 158.331 163.367 158.484 163.461 158.625C163.56 158.76 163.724 158.896 163.953 159.031C164.182 159.167 164.5 159.318 164.906 159.484C165.266 159.63 165.62 159.797 165.969 159.984C166.318 160.167 166.607 160.404 166.836 160.695C167.07 160.982 167.188 161.357 167.188 161.82C167.188 162.279 167.065 162.685 166.82 163.039C166.581 163.388 166.245 163.661 165.812 163.859C165.385 164.057 164.891 164.156 164.328 164.156C163.396 164.156 162.526 163.878 161.719 163.32ZM173.516 163.812C173 164.042 172.497 164.156 172.008 164.156C171.539 164.156 171.128 164.055 170.773 163.852C170.419 163.643 170.143 163.354 169.945 162.984C169.747 162.609 169.648 162.174 169.648 161.68V157.336H168.281V156.188H169.711V154.234H170.93V156.188H173.266V157.336H170.93V161.445C170.93 161.914 171.055 162.292 171.305 162.578C171.56 162.865 171.893 163.008 172.305 163.008C172.638 163.008 172.971 162.909 173.305 162.711L173.516 163.812ZM182.086 163.039C181.117 163.784 180.049 164.156 178.883 164.156C178.07 164.156 177.341 163.974 176.695 163.609C176.049 163.245 175.539 162.75 175.164 162.125C174.794 161.495 174.609 160.784 174.609 159.992C174.609 159.232 174.781 158.555 175.125 157.961C175.469 157.362 175.94 156.891 176.539 156.547C177.138 156.203 177.818 156.031 178.578 156.031C179.359 156.031 180.047 156.219 180.641 156.594C181.24 156.969 181.706 157.49 182.039 158.156C182.372 158.823 182.539 159.594 182.539 160.469V160.719H176C176.094 161.177 176.281 161.576 176.562 161.914C176.844 162.253 177.195 162.516 177.617 162.703C178.044 162.891 178.518 162.984 179.039 162.984C179.935 162.984 180.753 162.69 181.492 162.102L182.086 163.039ZM175.953 159.625H181.328C181.271 159.141 181.12 158.719 180.875 158.359C180.635 157.995 180.323 157.711 179.938 157.508C179.557 157.305 179.128 157.203 178.648 157.203C178.164 157.203 177.727 157.305 177.336 157.508C176.951 157.711 176.635 157.995 176.391 158.359C176.151 158.719 176.005 159.141 175.953 159.625ZM191.656 164H190.375V159.492C190.375 158.789 190.177 158.232 189.781 157.82C189.391 157.409 188.857 157.203 188.18 157.203C187.695 157.203 187.26 157.312 186.875 157.531C186.49 157.745 186.185 158.047 185.961 158.438C185.737 158.828 185.625 159.281 185.625 159.797V164H184.344V156.188H185.461L185.508 157.453C185.794 156.995 186.19 156.643 186.695 156.398C187.206 156.154 187.779 156.031 188.414 156.031C189.409 156.031 190.198 156.331 190.781 156.93C191.365 157.529 191.656 158.336 191.656 159.352V164ZM200.773 163.039C199.805 163.784 198.737 164.156 197.57 164.156C196.758 164.156 196.029 163.974 195.383 163.609C194.737 163.245 194.227 162.75 193.852 162.125C193.482 161.495 193.297 160.784 193.297 159.992C193.297 159.232 193.469 158.555 193.812 157.961C194.156 157.362 194.628 156.891 195.227 156.547C195.826 156.203 196.505 156.031 197.266 156.031C198.047 156.031 198.734 156.219 199.328 156.594C199.927 156.969 200.393 157.49 200.727 158.156C201.06 158.823 201.227 159.594 201.227 160.469V160.719H194.688C194.781 161.177 194.969 161.576 195.25 161.914C195.531 162.253 195.883 162.516 196.305 162.703C196.732 162.891 197.206 162.984 197.727 162.984C198.622 162.984 199.44 162.69 200.18 162.102L200.773 163.039ZM194.641 159.625H200.016C199.958 159.141 199.807 158.719 199.562 158.359C199.323 157.995 199.01 157.711 198.625 157.508C198.245 157.305 197.815 157.203 197.336 157.203C196.852 157.203 196.414 157.305 196.023 157.508C195.638 157.711 195.323 157.995 195.078 158.359C194.839 158.719 194.693 159.141 194.641 159.625ZM204.312 164H203.031V156.188H204.156L204.211 157.734C204.482 157.198 204.862 156.781 205.352 156.484C205.846 156.182 206.414 156.031 207.055 156.031C207.195 156.031 207.339 156.039 207.484 156.055C207.63 156.07 207.776 156.094 207.922 156.125L207.766 157.281C207.479 157.214 207.195 157.18 206.914 157.18C206.404 157.18 205.951 157.305 205.555 157.555C205.164 157.805 204.859 158.148 204.641 158.586C204.422 159.023 204.312 159.526 204.312 160.094V164ZM208.703 163.32L209.039 162.117C209.227 162.294 209.44 162.448 209.68 162.578C209.919 162.708 210.172 162.81 210.438 162.883C210.703 162.951 210.971 162.984 211.242 162.984C211.727 162.984 212.117 162.878 212.414 162.664C212.711 162.451 212.859 162.172 212.859 161.828C212.859 161.578 212.781 161.372 212.625 161.211C212.474 161.044 212.273 160.901 212.023 160.781C211.773 160.661 211.505 160.547 211.219 160.438C210.87 160.302 210.523 160.148 210.18 159.977C209.836 159.805 209.549 159.578 209.32 159.297C209.096 159.016 208.984 158.646 208.984 158.188C208.984 157.75 209.094 157.37 209.312 157.047C209.531 156.724 209.836 156.474 210.227 156.297C210.622 156.12 211.076 156.031 211.586 156.031C212.357 156.031 213.115 156.224 213.859 156.609L213.477 157.766C213.31 157.656 213.117 157.56 212.898 157.477C212.68 157.388 212.456 157.32 212.227 157.273C211.997 157.227 211.781 157.203 211.578 157.203C211.198 157.203 210.891 157.292 210.656 157.469C210.422 157.641 210.305 157.872 210.305 158.164C210.305 158.331 210.352 158.484 210.445 158.625C210.544 158.76 210.708 158.896 210.938 159.031C211.167 159.167 211.484 159.318 211.891 159.484C212.25 159.63 212.604 159.797 212.953 159.984C213.302 160.167 213.591 160.404 213.82 160.695C214.055 160.982 214.172 161.357 214.172 161.82C214.172 162.279 214.049 162.685 213.805 163.039C213.565 163.388 213.229 163.661 212.797 163.859C212.37 164.057 211.875 164.156 211.312 164.156C210.38 164.156 209.51 163.878 208.703 163.32ZM216.68 165.875H215.734L216.359 162.594H217.531L216.68 165.875ZM72.25 186H71.1094L71.0391 184.859C70.6797 185.26 70.2422 185.578 69.7266 185.812C69.2109 186.042 68.6458 186.156 68.0312 186.156C67.2656 186.156 66.5781 185.979 65.9688 185.625C65.3594 185.271 64.8776 184.786 64.5234 184.172C64.1745 183.557 64 182.865 64 182.094C64 181.318 64.1745 180.625 64.5234 180.016C64.8776 179.401 65.3594 178.917 65.9688 178.562C66.5781 178.208 67.2656 178.031 68.0312 178.031C68.625 178.031 69.1719 178.138 69.6719 178.352C70.1771 178.565 70.6094 178.862 70.9688 179.242V174.281H72.25V186ZM68.1484 185C68.6693 185 69.1432 184.88 69.5703 184.641C69.9974 184.396 70.3359 184.065 70.5859 183.648C70.8411 183.227 70.9688 182.75 70.9688 182.219V181.953C70.9688 181.422 70.8411 180.948 70.5859 180.531C70.3359 180.109 69.9974 179.779 69.5703 179.539C69.1432 179.299 68.6693 179.18 68.1484 179.18C67.6068 179.18 67.1224 179.307 66.6953 179.562C66.2682 179.818 65.9297 180.164 65.6797 180.602C65.4349 181.039 65.3125 181.534 65.3125 182.086C65.3125 182.638 65.4349 183.135 65.6797 183.578C65.9297 184.016 66.2682 184.362 66.6953 184.617C67.1224 184.872 67.6068 185 68.1484 185ZM80.9766 186H79.875L79.7891 184.969C79.5026 185.339 79.138 185.63 78.6953 185.844C78.2526 186.052 77.7578 186.156 77.2109 186.156C76.6484 186.156 76.1458 186.047 75.7031 185.828C75.2604 185.604 74.9115 185.299 74.6562 184.914C74.4062 184.529 74.2812 184.091 74.2812 183.602C74.2812 183.086 74.4167 182.633 74.6875 182.242C74.9635 181.846 75.3359 181.536 75.8047 181.312C76.2786 181.089 76.8151 180.977 77.4141 180.977C77.8047 180.977 78.2031 181.026 78.6094 181.125C79.0156 181.219 79.3776 181.349 79.6953 181.516V181.188C79.6953 180.771 79.5911 180.417 79.3828 180.125C79.1745 179.828 78.8958 179.602 78.5469 179.445C78.1979 179.284 77.8125 179.203 77.3906 179.203C77.026 179.203 76.6536 179.271 76.2734 179.406C75.8932 179.536 75.5286 179.74 75.1797 180.016L74.7578 178.914C75.2109 178.622 75.6875 178.404 76.1875 178.258C76.6875 178.107 77.1823 178.031 77.6719 178.031C78.349 178.031 78.9323 178.169 79.4219 178.445C79.9167 178.716 80.2995 179.104 80.5703 179.609C80.8411 180.109 80.9766 180.703 80.9766 181.391V186ZM77.4375 184.984C77.8385 184.984 78.2057 184.901 78.5391 184.734C78.8724 184.568 79.1432 184.328 79.3516 184.016C79.5599 183.698 79.6745 183.323 79.6953 182.891V182.758C79.4089 182.534 79.0859 182.362 78.7266 182.242C78.3724 182.117 78.0104 182.055 77.6406 182.055C77.0625 182.055 76.5781 182.195 76.1875 182.477C75.8021 182.758 75.6094 183.115 75.6094 183.547C75.6094 183.818 75.6875 184.062 75.8438 184.281C76.0052 184.5 76.224 184.672 76.5 184.797C76.776 184.922 77.0885 184.984 77.4375 184.984ZM87.5469 185.812C87.0312 186.042 86.5286 186.156 86.0391 186.156C85.5703 186.156 85.1589 186.055 84.8047 185.852C84.4505 185.643 84.1745 185.354 83.9766 184.984C83.7786 184.609 83.6797 184.174 83.6797 183.68V179.336H82.3125V178.188H83.7422V176.234H84.9609V178.188H87.2969V179.336H84.9609V183.445C84.9609 183.914 85.0859 184.292 85.3359 184.578C85.5911 184.865 85.9245 185.008 86.3359 185.008C86.6693 185.008 87.0026 184.909 87.3359 184.711L87.5469 185.812ZM89.7031 175.719C89.4844 175.719 89.2995 175.643 89.1484 175.492C89.0026 175.336 88.9297 175.148 88.9297 174.93C88.9297 174.716 89.0026 174.534 89.1484 174.383C89.2995 174.232 89.4844 174.156 89.7031 174.156C89.9271 174.156 90.1146 174.232 90.2656 174.383C90.4167 174.534 90.4922 174.716 90.4922 174.93C90.4922 175.148 90.4167 175.336 90.2656 175.492C90.1146 175.643 89.9271 175.719 89.7031 175.719ZM90.3438 186H89.0625V178.188H90.3438V186ZM100.125 186H98.8438V181.492C98.8438 180.789 98.6458 180.232 98.25 179.82C97.8594 179.409 97.3255 179.203 96.6484 179.203C96.1641 179.203 95.7292 179.312 95.3438 179.531C94.9583 179.745 94.6536 180.047 94.4297 180.438C94.2057 180.828 94.0938 181.281 94.0938 181.797V186H92.8125V178.188H93.9297L93.9766 179.453C94.263 178.995 94.6589 178.643 95.1641 178.398C95.6745 178.154 96.2474 178.031 96.8828 178.031C97.8776 178.031 98.6667 178.331 99.25 178.93C99.8333 179.529 100.125 180.336 100.125 181.352V186ZM105.711 186C104.961 186 104.286 185.826 103.688 185.477C103.094 185.128 102.625 184.654 102.281 184.055C101.938 183.451 101.766 182.771 101.766 182.016C101.766 181.255 101.938 180.576 102.281 179.977C102.625 179.378 103.094 178.904 103.688 178.555C104.286 178.206 104.964 178.031 105.719 178.031C106.323 178.031 106.878 178.146 107.383 178.375C107.888 178.599 108.318 178.911 108.672 179.312L108.734 178.188H109.867V185.797C109.867 186.672 109.695 187.427 109.352 188.062C109.008 188.703 108.518 189.195 107.883 189.539C107.247 189.888 106.492 190.062 105.617 190.062C104.378 190.062 103.299 189.651 102.383 188.828L102.945 187.797C103.659 188.536 104.531 188.906 105.562 188.906C106.182 188.906 106.716 188.776 107.164 188.516C107.617 188.26 107.966 187.898 108.211 187.43C108.461 186.961 108.586 186.406 108.586 185.766V184.805C108.232 185.174 107.807 185.466 107.312 185.68C106.823 185.893 106.289 186 105.711 186ZM105.82 184.867C106.331 184.867 106.794 184.753 107.211 184.523C107.628 184.289 107.961 183.971 108.211 183.57C108.461 183.164 108.586 182.706 108.586 182.195V181.836C108.586 181.32 108.461 180.862 108.211 180.461C107.961 180.06 107.628 179.745 107.211 179.516C106.794 179.281 106.331 179.164 105.82 179.164C105.294 179.164 104.823 179.289 104.406 179.539C103.99 179.789 103.659 180.13 103.414 180.562C103.174 180.99 103.055 181.474 103.055 182.016C103.055 182.557 103.174 183.044 103.414 183.477C103.659 183.909 103.99 184.25 104.406 184.5C104.823 184.745 105.294 184.867 105.82 184.867ZM122.617 184.875C122.237 185.286 121.786 185.604 121.266 185.828C120.745 186.047 120.185 186.156 119.586 186.156C118.81 186.156 118.112 185.979 117.492 185.625C116.878 185.271 116.391 184.786 116.031 184.172C115.677 183.557 115.5 182.865 115.5 182.094C115.5 181.318 115.677 180.625 116.031 180.016C116.391 179.401 116.878 178.917 117.492 178.562C118.112 178.208 118.81 178.031 119.586 178.031C120.18 178.031 120.737 178.141 121.258 178.359C121.779 178.578 122.229 178.893 122.609 179.305L121.844 180.109C121.568 179.818 121.237 179.594 120.852 179.438C120.471 179.281 120.068 179.203 119.641 179.203C119.094 179.203 118.607 179.328 118.18 179.578C117.758 179.823 117.424 180.161 117.18 180.594C116.94 181.026 116.82 181.523 116.82 182.086C116.82 182.648 116.94 183.148 117.18 183.586C117.424 184.023 117.758 184.367 118.18 184.617C118.607 184.862 119.094 184.984 119.641 184.984C120.068 184.984 120.474 184.906 120.859 184.75C121.245 184.589 121.573 184.365 121.844 184.078L122.617 184.875ZM127.891 186.156C127.115 186.156 126.417 185.979 125.797 185.625C125.177 185.271 124.688 184.789 124.328 184.18C123.974 183.565 123.797 182.87 123.797 182.094C123.797 181.323 123.974 180.633 124.328 180.023C124.688 179.409 125.177 178.924 125.797 178.57C126.417 178.211 127.115 178.031 127.891 178.031C128.667 178.031 129.362 178.211 129.977 178.57C130.591 178.924 131.076 179.409 131.43 180.023C131.784 180.633 131.961 181.323 131.961 182.094C131.961 182.87 131.784 183.565 131.43 184.18C131.076 184.789 130.591 185.271 129.977 185.625C129.362 185.979 128.667 186.156 127.891 186.156ZM127.883 185C128.409 185 128.88 184.872 129.297 184.617C129.714 184.362 130.042 184.016 130.281 183.578C130.526 183.141 130.648 182.646 130.648 182.094C130.648 181.542 130.526 181.047 130.281 180.609C130.042 180.172 129.714 179.826 129.297 179.57C128.88 179.315 128.409 179.188 127.883 179.188C127.357 179.188 126.883 179.315 126.461 179.57C126.044 179.826 125.714 180.172 125.469 180.609C125.229 181.047 125.109 181.542 125.109 182.094C125.109 182.646 125.229 183.141 125.469 183.578C125.714 184.016 126.044 184.362 126.461 184.617C126.883 184.872 127.357 185 127.883 185ZM140.07 186H138.969L138.883 184.969C138.596 185.339 138.232 185.63 137.789 185.844C137.346 186.052 136.852 186.156 136.305 186.156C135.742 186.156 135.24 186.047 134.797 185.828C134.354 185.604 134.005 185.299 133.75 184.914C133.5 184.529 133.375 184.091 133.375 183.602C133.375 183.086 133.51 182.633 133.781 182.242C134.057 181.846 134.43 181.536 134.898 181.312C135.372 181.089 135.909 180.977 136.508 180.977C136.898 180.977 137.297 181.026 137.703 181.125C138.109 181.219 138.471 181.349 138.789 181.516V181.188C138.789 180.771 138.685 180.417 138.477 180.125C138.268 179.828 137.99 179.602 137.641 179.445C137.292 179.284 136.906 179.203 136.484 179.203C136.12 179.203 135.747 179.271 135.367 179.406C134.987 179.536 134.622 179.74 134.273 180.016L133.852 178.914C134.305 178.622 134.781 178.404 135.281 178.258C135.781 178.107 136.276 178.031 136.766 178.031C137.443 178.031 138.026 178.169 138.516 178.445C139.01 178.716 139.393 179.104 139.664 179.609C139.935 180.109 140.07 180.703 140.07 181.391V186ZM136.531 184.984C136.932 184.984 137.299 184.901 137.633 184.734C137.966 184.568 138.237 184.328 138.445 184.016C138.654 183.698 138.768 183.323 138.789 182.891V182.758C138.503 182.534 138.18 182.362 137.82 182.242C137.466 182.117 137.104 182.055 136.734 182.055C136.156 182.055 135.672 182.195 135.281 182.477C134.896 182.758 134.703 183.115 134.703 183.547C134.703 183.818 134.781 184.062 134.938 184.281C135.099 184.5 135.318 184.672 135.594 184.797C135.87 184.922 136.182 184.984 136.531 184.984ZM148.836 184.875C148.456 185.286 148.005 185.604 147.484 185.828C146.964 186.047 146.404 186.156 145.805 186.156C145.029 186.156 144.331 185.979 143.711 185.625C143.096 185.271 142.609 184.786 142.25 184.172C141.896 183.557 141.719 182.865 141.719 182.094C141.719 181.318 141.896 180.625 142.25 180.016C142.609 179.401 143.096 178.917 143.711 178.562C144.331 178.208 145.029 178.031 145.805 178.031C146.398 178.031 146.956 178.141 147.477 178.359C147.997 178.578 148.448 178.893 148.828 179.305L148.062 180.109C147.786 179.818 147.456 179.594 147.07 179.438C146.69 179.281 146.286 179.203 145.859 179.203C145.312 179.203 144.826 179.328 144.398 179.578C143.977 179.823 143.643 180.161 143.398 180.594C143.159 181.026 143.039 181.523 143.039 182.086C143.039 182.648 143.159 183.148 143.398 183.586C143.643 184.023 143.977 184.367 144.398 184.617C144.826 184.862 145.312 184.984 145.859 184.984C146.286 184.984 146.693 184.906 147.078 184.75C147.464 184.589 147.792 184.365 148.062 184.078L148.836 184.875ZM150.641 186V174.281H151.922V179.359C152.51 178.474 153.422 178.031 154.656 178.031C155.693 178.031 156.5 178.341 157.078 178.961C157.661 179.576 157.953 180.435 157.953 181.539V186H156.672V181.836C156.672 180.997 156.464 180.346 156.047 179.883C155.635 179.414 155.06 179.18 154.32 179.18C153.576 179.18 152.99 179.417 152.562 179.891C152.135 180.365 151.922 181.013 151.922 181.836V186H150.641ZM167.07 185.039C166.102 185.784 165.034 186.156 163.867 186.156C163.055 186.156 162.326 185.974 161.68 185.609C161.034 185.245 160.523 184.75 160.148 184.125C159.779 183.495 159.594 182.784 159.594 181.992C159.594 181.232 159.766 180.555 160.109 179.961C160.453 179.362 160.924 178.891 161.523 178.547C162.122 178.203 162.802 178.031 163.562 178.031C164.344 178.031 165.031 178.219 165.625 178.594C166.224 178.969 166.69 179.49 167.023 180.156C167.357 180.823 167.523 181.594 167.523 182.469V182.719H160.984C161.078 183.177 161.266 183.576 161.547 183.914C161.828 184.253 162.18 184.516 162.602 184.703C163.029 184.891 163.503 184.984 164.023 184.984C164.919 184.984 165.737 184.69 166.477 184.102L167.07 185.039ZM160.938 181.625H166.312C166.255 181.141 166.104 180.719 165.859 180.359C165.62 179.995 165.307 179.711 164.922 179.508C164.542 179.305 164.112 179.203 163.633 179.203C163.148 179.203 162.711 179.305 162.32 179.508C161.935 179.711 161.62 179.995 161.375 180.359C161.135 180.719 160.99 181.141 160.938 181.625ZM168.781 185.32L169.117 184.117C169.305 184.294 169.518 184.448 169.758 184.578C169.997 184.708 170.25 184.81 170.516 184.883C170.781 184.951 171.049 184.984 171.32 184.984C171.805 184.984 172.195 184.878 172.492 184.664C172.789 184.451 172.938 184.172 172.938 183.828C172.938 183.578 172.859 183.372 172.703 183.211C172.552 183.044 172.352 182.901 172.102 182.781C171.852 182.661 171.583 182.547 171.297 182.438C170.948 182.302 170.602 182.148 170.258 181.977C169.914 181.805 169.628 181.578 169.398 181.297C169.174 181.016 169.062 180.646 169.062 180.188C169.062 179.75 169.172 179.37 169.391 179.047C169.609 178.724 169.914 178.474 170.305 178.297C170.701 178.12 171.154 178.031 171.664 178.031C172.435 178.031 173.193 178.224 173.938 178.609L173.555 179.766C173.388 179.656 173.195 179.56 172.977 179.477C172.758 179.388 172.534 179.32 172.305 179.273C172.076 179.227 171.859 179.203 171.656 179.203C171.276 179.203 170.969 179.292 170.734 179.469C170.5 179.641 170.383 179.872 170.383 180.164C170.383 180.331 170.43 180.484 170.523 180.625C170.622 180.76 170.786 180.896 171.016 181.031C171.245 181.167 171.562 181.318 171.969 181.484C172.328 181.63 172.682 181.797 173.031 181.984C173.38 182.167 173.669 182.404 173.898 182.695C174.133 182.982 174.25 183.357 174.25 183.82C174.25 184.279 174.128 184.685 173.883 185.039C173.643 185.388 173.307 185.661 172.875 185.859C172.448 186.057 171.953 186.156 171.391 186.156C170.458 186.156 169.589 185.878 168.781 185.32ZM190 185.211L189.289 186.234C188.924 185.99 188.568 185.742 188.219 185.492C187.87 185.242 187.534 184.995 187.211 184.75C186.701 185.234 186.146 185.604 185.547 185.859C184.953 186.109 184.323 186.234 183.656 186.234C182.917 186.234 182.255 186.089 181.672 185.797C181.089 185.505 180.63 185.104 180.297 184.594C179.964 184.078 179.797 183.495 179.797 182.844C179.797 182.307 179.904 181.844 180.117 181.453C180.336 181.062 180.62 180.724 180.969 180.438C181.318 180.146 181.69 179.88 182.086 179.641C181.716 179.083 181.432 178.552 181.234 178.047C181.042 177.542 180.945 177.07 180.945 176.633C180.945 176.133 181.062 175.69 181.297 175.305C181.531 174.914 181.854 174.607 182.266 174.383C182.677 174.159 183.143 174.047 183.664 174.047C184.185 174.047 184.643 174.156 185.039 174.375C185.435 174.589 185.745 174.888 185.969 175.273C186.193 175.659 186.305 176.102 186.305 176.602C186.305 177.148 186.177 177.62 185.922 178.016C185.672 178.406 185.349 178.75 184.953 179.047C184.562 179.344 184.151 179.625 183.719 179.891C184.125 180.396 184.609 180.919 185.172 181.461C185.74 181.997 186.38 182.549 187.094 183.117C187.391 182.727 187.664 182.281 187.914 181.781C188.169 181.276 188.393 180.724 188.586 180.125L189.68 180.555C189.461 181.206 189.214 181.805 188.938 182.352C188.661 182.898 188.359 183.391 188.031 183.828C188.339 184.052 188.656 184.281 188.984 184.516C189.312 184.75 189.651 184.982 190 185.211ZM183.109 179.055C183.469 178.846 183.799 178.633 184.102 178.414C184.409 178.195 184.654 177.951 184.836 177.68C185.018 177.409 185.109 177.094 185.109 176.734C185.109 176.297 184.974 175.935 184.703 175.648C184.432 175.362 184.089 175.219 183.672 175.219C183.26 175.219 182.924 175.365 182.664 175.656C182.404 175.948 182.273 176.326 182.273 176.789C182.273 177.122 182.344 177.479 182.484 177.859C182.63 178.24 182.839 178.638 183.109 179.055ZM182.727 180.508C182.43 180.706 182.159 180.919 181.914 181.148C181.674 181.372 181.482 181.62 181.336 181.891C181.195 182.161 181.125 182.471 181.125 182.82C181.125 183.253 181.237 183.638 181.461 183.977C181.685 184.315 181.992 184.581 182.383 184.773C182.773 184.966 183.216 185.062 183.711 185.062C184.174 185.062 184.62 184.974 185.047 184.797C185.479 184.62 185.888 184.359 186.273 184.016C185.544 183.417 184.883 182.823 184.289 182.234C183.695 181.641 183.174 181.065 182.727 180.508ZM87.8047 197.719C87.5859 197.719 87.401 197.643 87.25 197.492C87.1042 197.336 87.0312 197.148 87.0312 196.93C87.0312 196.716 87.1042 196.534 87.25 196.383C87.401 196.232 87.5859 196.156 87.8047 196.156C88.0286 196.156 88.2161 196.232 88.3672 196.383C88.5182 196.534 88.5938 196.716 88.5938 196.93C88.5938 197.148 88.5182 197.336 88.3672 197.492C88.2161 197.643 88.0286 197.719 87.8047 197.719ZM88.4453 208H87.1641V200.188H88.4453V208ZM98.2266 208H96.9453V203.492C96.9453 202.789 96.7474 202.232 96.3516 201.82C95.9609 201.409 95.4271 201.203 94.75 201.203C94.2656 201.203 93.8307 201.312 93.4453 201.531C93.0599 201.745 92.7552 202.047 92.5312 202.438C92.3073 202.828 92.1953 203.281 92.1953 203.797V208H90.9141V200.188H92.0312L92.0781 201.453C92.3646 200.995 92.7604 200.643 93.2656 200.398C93.776 200.154 94.349 200.031 94.9844 200.031C95.9792 200.031 96.7682 200.331 97.3516 200.93C97.9349 201.529 98.2266 202.336 98.2266 203.352V208ZM108.18 208H106.898V199.188C106.898 198.578 106.703 198.086 106.312 197.711C105.927 197.331 105.422 197.141 104.797 197.141C104.172 197.141 103.661 197.328 103.266 197.703C102.87 198.078 102.672 198.56 102.672 199.148V200.188H105.086V201.344H102.672V208H101.391V201.344H100.023V200.188H101.391V199.094C101.391 198.5 101.534 197.974 101.82 197.516C102.112 197.057 102.513 196.698 103.023 196.438C103.534 196.177 104.12 196.047 104.781 196.047C105.453 196.047 106.044 196.18 106.555 196.445C107.065 196.711 107.464 197.081 107.75 197.555C108.036 198.023 108.18 198.568 108.18 199.188V208ZM117.758 208H116.633L116.586 206.734C116.299 207.193 115.922 207.544 115.453 207.789C114.99 208.034 114.44 208.156 113.805 208.156C112.768 208.156 111.948 207.844 111.344 207.219C110.745 206.589 110.445 205.729 110.445 204.641V200.188H111.727V204.547C111.727 205.286 111.935 205.878 112.352 206.32C112.773 206.763 113.333 206.984 114.031 206.984C114.76 206.984 115.349 206.745 115.797 206.266C116.25 205.786 116.477 205.161 116.477 204.391V200.188H117.758V208ZM127.031 207.039C126.062 207.784 124.995 208.156 123.828 208.156C123.016 208.156 122.286 207.974 121.641 207.609C120.995 207.245 120.484 206.75 120.109 206.125C119.74 205.495 119.555 204.784 119.555 203.992C119.555 203.232 119.727 202.555 120.07 201.961C120.414 201.362 120.885 200.891 121.484 200.547C122.083 200.203 122.763 200.031 123.523 200.031C124.305 200.031 124.992 200.219 125.586 200.594C126.185 200.969 126.651 201.49 126.984 202.156C127.318 202.823 127.484 203.594 127.484 204.469V204.719H120.945C121.039 205.177 121.227 205.576 121.508 205.914C121.789 206.253 122.141 206.516 122.562 206.703C122.99 206.891 123.464 206.984 123.984 206.984C124.88 206.984 125.698 206.69 126.438 206.102L127.031 207.039ZM120.898 203.625H126.273C126.216 203.141 126.065 202.719 125.82 202.359C125.581 201.995 125.268 201.711 124.883 201.508C124.503 201.305 124.073 201.203 123.594 201.203C123.109 201.203 122.672 201.305 122.281 201.508C121.896 201.711 121.581 201.995 121.336 202.359C121.096 202.719 120.951 203.141 120.898 203.625ZM136.602 208H135.32V203.492C135.32 202.789 135.122 202.232 134.727 201.82C134.336 201.409 133.802 201.203 133.125 201.203C132.641 201.203 132.206 201.312 131.82 201.531C131.435 201.745 131.13 202.047 130.906 202.438C130.682 202.828 130.57 203.281 130.57 203.797V208H129.289V200.188H130.406L130.453 201.453C130.74 200.995 131.135 200.643 131.641 200.398C132.151 200.154 132.724 200.031 133.359 200.031C134.354 200.031 135.143 200.331 135.727 200.93C136.31 201.529 136.602 202.336 136.602 203.352V208ZM145.359 206.875C144.979 207.286 144.529 207.604 144.008 207.828C143.487 208.047 142.927 208.156 142.328 208.156C141.552 208.156 140.854 207.979 140.234 207.625C139.62 207.271 139.133 206.786 138.773 206.172C138.419 205.557 138.242 204.865 138.242 204.094C138.242 203.318 138.419 202.625 138.773 202.016C139.133 201.401 139.62 200.917 140.234 200.562C140.854 200.208 141.552 200.031 142.328 200.031C142.922 200.031 143.479 200.141 144 200.359C144.521 200.578 144.971 200.893 145.352 201.305L144.586 202.109C144.31 201.818 143.979 201.594 143.594 201.438C143.214 201.281 142.81 201.203 142.383 201.203C141.836 201.203 141.349 201.328 140.922 201.578C140.5 201.823 140.167 202.161 139.922 202.594C139.682 203.026 139.562 203.523 139.562 204.086C139.562 204.648 139.682 205.148 139.922 205.586C140.167 206.023 140.5 206.367 140.922 206.617C141.349 206.862 141.836 206.984 142.383 206.984C142.81 206.984 143.216 206.906 143.602 206.75C143.987 206.589 144.315 206.365 144.586 206.078L145.359 206.875ZM154.016 207.039C153.047 207.784 151.979 208.156 150.812 208.156C150 208.156 149.271 207.974 148.625 207.609C147.979 207.245 147.469 206.75 147.094 206.125C146.724 205.495 146.539 204.784 146.539 203.992C146.539 203.232 146.711 202.555 147.055 201.961C147.398 201.362 147.87 200.891 148.469 200.547C149.068 200.203 149.747 200.031 150.508 200.031C151.289 200.031 151.977 200.219 152.57 200.594C153.169 200.969 153.635 201.49 153.969 202.156C154.302 202.823 154.469 203.594 154.469 204.469V204.719H147.93C148.023 205.177 148.211 205.576 148.492 205.914C148.773 206.253 149.125 206.516 149.547 206.703C149.974 206.891 150.448 206.984 150.969 206.984C151.865 206.984 152.682 206.69 153.422 206.102L154.016 207.039ZM147.883 203.625H153.258C153.201 203.141 153.049 202.719 152.805 202.359C152.565 201.995 152.253 201.711 151.867 201.508C151.487 201.305 151.057 201.203 150.578 201.203C150.094 201.203 149.656 201.305 149.266 201.508C148.88 201.711 148.565 201.995 148.32 202.359C148.081 202.719 147.935 203.141 147.883 203.625ZM157.555 208H156.273V200.188H157.398L157.453 201.734C157.724 201.198 158.104 200.781 158.594 200.484C159.089 200.182 159.656 200.031 160.297 200.031C160.438 200.031 160.581 200.039 160.727 200.055C160.872 200.07 161.018 200.094 161.164 200.125L161.008 201.281C160.721 201.214 160.438 201.18 160.156 201.18C159.646 201.18 159.193 201.305 158.797 201.555C158.406 201.805 158.102 202.148 157.883 202.586C157.664 203.023 157.555 203.526 157.555 204.094V208ZM161.945 207.32L162.281 206.117C162.469 206.294 162.682 206.448 162.922 206.578C163.161 206.708 163.414 206.81 163.68 206.883C163.945 206.951 164.214 206.984 164.484 206.984C164.969 206.984 165.359 206.878 165.656 206.664C165.953 206.451 166.102 206.172 166.102 205.828C166.102 205.578 166.023 205.372 165.867 205.211C165.716 205.044 165.516 204.901 165.266 204.781C165.016 204.661 164.747 204.547 164.461 204.438C164.112 204.302 163.766 204.148 163.422 203.977C163.078 203.805 162.792 203.578 162.562 203.297C162.339 203.016 162.227 202.646 162.227 202.188C162.227 201.75 162.336 201.37 162.555 201.047C162.773 200.724 163.078 200.474 163.469 200.297C163.865 200.12 164.318 200.031 164.828 200.031C165.599 200.031 166.357 200.224 167.102 200.609L166.719 201.766C166.552 201.656 166.359 201.56 166.141 201.477C165.922 201.388 165.698 201.32 165.469 201.273C165.24 201.227 165.023 201.203 164.82 201.203C164.44 201.203 164.133 201.292 163.898 201.469C163.664 201.641 163.547 201.872 163.547 202.164C163.547 202.331 163.594 202.484 163.688 202.625C163.786 202.76 163.951 202.896 164.18 203.031C164.409 203.167 164.727 203.318 165.133 203.484C165.492 203.63 165.846 203.797 166.195 203.984C166.544 204.167 166.833 204.404 167.062 204.695C167.297 204.982 167.414 205.357 167.414 205.82C167.414 206.279 167.292 206.685 167.047 207.039C166.807 207.388 166.471 207.661 166.039 207.859C165.612 208.057 165.117 208.156 164.555 208.156C163.622 208.156 162.753 207.878 161.945 207.32Z" fill="black"/>
</svg>
